<svg xmlns="http://www.w3.org/2000/svg" xmlns:xlink="http://www.w3.org/1999/xlink" width="1827" height="511.67303466796875" viewBox="0 0 1827 511.67303466796875" fill="none"><g  clip-path="url(#clip-path-b2--nYLqlKpOzkDfWLlI-)"><rect x="0" y="0" width="0.001" height="0.001"   fill="#F9F9F9" ></rect><path d="M1679 436.664L1688.5 447.664L1679 447.664L1679 436.664Z" stroke="rgba(0, 0, 0, 1)" stroke-width="1"      fill="#4B4B53" ></path><path d="M1688.5 447.664L1688.5 476.164L1693 480.164L1693 494.664L1684.5 494.664L1682.5 492.664L1677 492.664L1677 487.164L1673 487.164L1666 482.664L1666 479.164L1673 447.664L1688.5 447.664Z" stroke="rgba(0, 0, 0, 1)" stroke-width="1"      fill="#4B4B53" ></path><rect x="677.5" y="394.66351318359375" width="36" height="69" stroke="rgba(0, 0, 0, 1)" stroke-width="1"      fill="#35353F" ></rect><path d="M121.5 269.164L121.5 464.664L143 434.664L143 248.664L121.5 269.164Z" stroke="rgba(0, 0, 0, 1)" stroke-width="1"      fill="#42424E" ></path><rect x="910.5" y="394.66351318359375" width="36" height="69" stroke="rgba(0, 0, 0, 1)" stroke-width="1"      fill="#35353F" ></rect><rect x="1131.5" y="394.66351318359375" width="36" height="69" stroke="rgba(0, 0, 0, 1)" stroke-width="1"      fill="#35353F" ></rect><circle cx="1453" cy="391.16357421875" r="41.5" stroke="rgba(0, 0, 0, 1)" stroke-width="1"      fill="#999CA1" ></circle><circle cx="1453.5" cy="391.66351318359375" r="19" stroke="rgba(0, 0, 0, 1)" stroke-width="1"      fill="#4F515D" ></circle><path d="M1439.5 407.194L1439.5 388.694C1443.81 361.671 1476.36 367.503 1476.5 388.694L1476.5 407.194L1439.5 407.194Z" stroke="rgba(0, 0, 0, 1)" stroke-width="1"      fill="#81848B" ></path><rect x="1382.5" y="407.66351318359375" width="125" height="3" stroke="rgba(0, 0, 0, 1)" stroke-width="1"      fill="#454351" ></rect><circle cx="1458.5" cy="391.66351318359375" r="12" stroke="rgba(0, 0, 0, 1)" stroke-width="1"      fill="#383844" ></circle><rect x="464.5" y="412.66351318359375" width="69" height="4" stroke="rgba(0, 0, 0, 1)" stroke-width="1"      fill="#CCCCCC" ></rect><rect x="460.5" y="398.66351318359375" width="77" height="11" stroke="rgba(0, 0, 0, 1)" stroke-width="1"      fill="#474854" ></rect><rect x="460.5" y="406.66351318359375" width="77" height="6" stroke="rgba(0, 0, 0, 1)" stroke-width="1"      fill="#474854" ></rect><rect x="460.5" y="373.66351318359375" width="77" height="30" stroke="rgba(0, 0, 0, 1)" stroke-width="1"      fill="#474854" ></rect><rect x="1295.5" y="398.66351318359375" width="77" height="11" stroke="rgba(0, 0, 0, 1)" stroke-width="1"      fill="#474854" ></rect><rect x="1295.5" y="373.66351318359375" width="77" height="30" stroke="rgba(0, 0, 0, 1)" stroke-width="1"      fill="#474854" ></rect><rect x="1295.5" y="406.66351318359375" width="77" height="6" stroke="rgba(0, 0, 0, 1)" stroke-width="1"      fill="#474854" ></rect><path d="M498.5 437.164C498.5 449.59 488.426 459.664 476 459.664C463.574 459.664 453.5 449.59 453.5 437.164C453.5 424.737 463.574 414.664 476 414.664C488.426 414.664 498.5 424.737 498.5 437.164Z" stroke="rgba(0, 0, 0, 1)" stroke-width="1"      fill="#96979C" ></path><circle cx="476" cy="437.16351318359375" r="11.5" stroke="rgba(0, 0, 0, 1)" stroke-width="1"      fill="#656774" ></circle><circle cx="476" cy="437.16351318359375" r="6.5" stroke="rgba(0, 0, 0, 1)" stroke-width="1"      fill="#A1A4AB" ></circle><ellipse cx="401" cy="382.66357421875" rx="39.5" ry="37" stroke="rgba(0, 0, 0, 1)" stroke-width="1"      fill="#97969B" ></ellipse><circle cx="400" cy="382.16357421875" r="19.5" stroke="rgba(0, 0, 0, 1)" stroke-width="1"      fill="#686A77" ></circle><path d="M257 488.664L273 464.664L273 488.664L257 510.164L257 488.664Z" stroke="rgba(0, 0, 0, 1)" stroke-width="1"      fill="#545760" ></path><path d="M150.5 487.664L150.5 510.664L257.5 510.664L257.5 487.664L150.5 487.664Z" stroke="rgba(0, 0, 0, 1)" stroke-width="1"      fill="#545760" ></path><path d="M152 488.164L180 470.664L269 470.664L257.5 488.164L152 488.164Z" stroke="rgba(0, 0, 0, 1)" stroke-width="1"      fill="#545760" ></path><path d="M136.5 450.664L136.5 476.164L132.5 480.664L132.5 495.664L141 495.664L144 492.664L150 492.664L150 488.164L152.5 488.164L160 483.164L157.5 480.664L150 450.664L136.5 450.664Z" stroke="rgba(0, 0, 0, 1)" stroke-width="1"      fill="#494C55" ></path><path    stroke="rgba(0, 0, 0, 1)" stroke-width="1"    d="M132.5 480.664L158.463 480.664"></path><path d="M295.5 459.664L295.5 478.164L297 480.164L299 476.164L299 459.664L295.5 459.664Z" stroke="rgba(0, 0, 0, 1)" stroke-width="1"      fill="#303038" ></path><path d="M148 433.664L136.5 450.664L142 450.664L148 450.664L148 433.664Z" stroke="rgba(0, 0, 0, 1)" stroke-width="1"      fill="#3B3C48" ></path><path d="M192.89 345.664L170.39 345.664L170.39 449.664L143.39 449.664L143.39 466.164C139.042 467.522 151.714 481.878 156.39 479.664L192.89 479.664L192.89 345.664ZM287.894 345.664L192.894 345.664L192.894 479.664L287.894 479.664L287.894 345.664Z" stroke="rgba(0, 0, 0, 1)" stroke-width="1"    fill-rule="evenodd"  fill="#303039" ></path><path d="M299.5 460.664L311.5 460.664L299.5 476.164L299.5 460.664Z" stroke="rgba(0, 0, 0, 1)" stroke-width="1"      fill="#5A5B62" ></path><path d="M311 196.664L311 459.664L298.5 478.664L298.5 495.164L331 442.664L331 177.664L311 196.664Z" stroke="rgba(0, 0, 0, 1)" stroke-width="1"      fill="#2D2D37" ></path><path d="M319.5 188.164L312 196.164L312 257.164L319.5 247.164L319.5 188.164Z" stroke="rgba(0, 0, 0, 1)" stroke-width="1"      fill="#CCCCCC" ></path><rect x="148.5" y="319.66357421875" width="36" height="26" stroke="rgba(0, 0, 0, 1)" stroke-width="1"      fill="#FFFFFF" ></rect><rect x="276.5" y="319.66357421875" width="25" height="26" stroke="rgba(0, 0, 0, 1)" stroke-width="1"      fill="#FFFFFF" ></rect><path d="M286.5 459.664C289.724 464.521 273.156 482.101 271 480.664L271 495.164L277 495.164C276.855 492.804 284.472 485.758 289.5 495.164L297.5 495.164L297.5 480.664L295.5 478.164L295.5 459.664L286.5 459.664Z" stroke="rgba(0, 0, 0, 1)" stroke-width="1"      fill="#5A5B62" ></path><path    stroke="rgba(0, 0, 0, 1)" stroke-width="1"    d="M271.5 480.664L297.463 480.664"></path><rect x="184.5" y="319.66357421875" width="92" height="26" stroke="rgba(0, 0, 0, 1)" stroke-width="1"      fill="#FFFFFF" ></rect><rect x="286.5" y="196.66357421875" width="25" height="263" stroke="rgba(0, 0, 0, 1)" stroke-width="1"      fill="#605F66" ></rect><path d="M191 236.164L148.5 293.664L148.5 319.164L284.5 319.164L284.5 236.164L191 236.164Z" stroke="rgba(0, 0, 0, 1)" stroke-width="1"      fill="#FFFFFF" ></path><rect x="148.5" y="196.66357421875" width="25" height="263" stroke="rgba(0, 0, 0, 1)" stroke-width="1"      fill="#605F66" ></rect><path d="M161.381 448.664C152.766 450.011 154.353 467.142 161.381 466.91L161.381 485.664L246.566 485.664L246.566 466.91L253.5 466.91L253.5 448.664L161.381 448.664Z" stroke="rgba(0, 0, 0, 1)" stroke-width="1"      fill="#FFFFFF" ></path><ellipse cx="174.5" cy="467.66351318359375" rx="6" ry="12"   fill="#605F66" ></ellipse><ellipse cx="232.5" cy="467.66351318359375" rx="6" ry="12"   fill="#605F66" ></ellipse><path d="M188 416.664L158.5 448.664L246.5 448.664L269.5 416.664L188 416.664Z" stroke="rgba(0, 0, 0, 1)" stroke-width="1"      fill="#FFFFFF" ></path><path d="M246.5 448.164C255.119 450.037 252.147 467.327 246.5 466.164L246.5 484.164L273 448.164L273 424.664L269 418.164L246.5 448.164Z" stroke="rgba(0, 0, 0, 1)" stroke-width="1"      fill="#FFFFFF" ></path><rect x="192.5" y="196.66357421875" width="10" height="49" stroke="rgba(0, 0, 0, 1)" stroke-width="1"      fill="#9A9FA3" ></rect><rect x="266.5" y="196.66357421875" width="10" height="49" stroke="rgba(0, 0, 0, 1)" stroke-width="1"      fill="#9A9FA3" ></rect><rect x="113.5" y="40.66357421875" width="6" height="18" stroke="rgba(0, 0, 0, 1)" stroke-width="1"      fill="#9A9DA4" ></rect><rect x="142.5" y="19.66357421875" width="83" height="177" stroke="rgba(0, 0, 0, 1)" stroke-width="1"      fill="#60636C" ></rect><rect x="225.5" y="19.66357421875" width="86" height="177" stroke="rgba(0, 0, 0, 1)" stroke-width="1"      fill="#60636C" ></rect><rect x="1597.5" y="19.66357421875" width="86" height="177" stroke="rgba(0, 0, 0, 1)" stroke-width="1"      fill="#60636C" ></rect><rect x="1514.5" y="19.66357421875" width="83" height="177" stroke="rgba(0, 0, 0, 1)" stroke-width="1"      fill="#60636C" ></rect><path d="M143 19.1636L312 19.1636L330 1.16357L162.5 1.16357L143 19.1636Z" stroke="rgba(0, 0, 0, 1)" stroke-width="1"      fill="#60636C" ></path><path d="M1683.5 19.6636L1514.5 19.6636L1496.5 1.66357L1664 1.66357L1683.5 19.6636Z" stroke="rgba(0, 0, 0, 1)" stroke-width="1"      fill="#60636C" ></path><ellipse cx="235" cy="10.66357421875" rx="37.5" ry="5" stroke="rgba(0, 0, 0, 1)" stroke-width="1"      fill="#2F2F3C" ></ellipse><ellipse cx="1598" cy="10.66357421875" rx="37.5" ry="5" stroke="rgba(0, 0, 0, 1)" stroke-width="1"      fill="#2F2F3C" ></ellipse><path d="M311 19.6636L311 196.164L330.5 176.664L330.5 1.16357L311 19.6636Z" stroke="rgba(0, 0, 0, 1)" stroke-width="1"      fill="#60636C" ></path><path d="M1514.5 20.1636L1514.5 196.664L1495 177.164L1495 1.66357L1514.5 20.1636Z" stroke="rgba(0, 0, 0, 1)" stroke-width="1"      fill="#60636C" ></path><path d="M121.5 30.6636L140.5 30.6636C141.605 30.6636 142.5 31.559 142.5 32.6636L142.5 62.6636L119.5 62.6636L119.5 32.6636C119.5 31.559 120.395 30.6636 121.5 30.6636Z"   fill="#8B8E95" ></path><path d="M121.5 30.1636L140.5 30.1636C141.881 30.1636 143 31.2829 143 32.6636L143 63.1636L119 63.1636L119 32.6636C119 31.2829 120.119 30.1636 121.5 30.1636ZM121.5 31.1636C120.672 31.1636 120 31.8351 120 32.6636L120 62.6636L119.5 62.6636L119.5 62.1636L142.5 62.1636L142.5 62.6636L142 62.6636L142 32.6636C142 31.8351 141.328 31.1636 140.5 31.1636L121.5 31.1636Z"   fill="#000000" ></path><rect x="119.5" y="62.66357421875" width="23" height="13" stroke="rgba(0, 0, 0, 1)" stroke-width="1"      fill="#3D3E47" ></rect><rect x="119.5" y="143.66357421875" width="23" height="13" stroke="rgba(0, 0, 0, 1)" stroke-width="1"      fill="#3D3E47" ></rect><path d="M121.5 111.664L140.5 111.664C141.605 111.664 142.5 112.559 142.5 113.664L142.5 143.664L119.5 143.664L119.5 113.664C119.5 112.559 120.395 111.664 121.5 111.664Z"   fill="#8B8E95" ></path><path d="M121.5 111.164L140.5 111.164C141.881 111.164 143 112.283 143 113.664L143 144.164L119 144.164L119 113.664C119 112.283 120.119 111.164 121.5 111.164ZM121.5 112.164C120.672 112.164 120 112.835 120 113.664L120 143.664L119.5 143.664L119.5 143.164L142.5 143.164L142.5 143.664L142 143.664L142 113.664C142 112.835 141.328 112.164 140.5 112.164L121.5 112.164Z"   fill="#000000" ></path><rect x="113.5" y="121.66357421875" width="6" height="18" stroke="rgba(0, 0, 0, 1)" stroke-width="1"      fill="#9A9DA4" ></rect><rect transform="matrix(-1, 0, 0, 1, 1712.5, 121.66357421875)" x="0" y="0" width="6" height="18" stroke="rgba(0, 0, 0, 1)" stroke-width="1"      fill="#9A9DA4" ></rect><path d="M1704.5 111.664L1685.5 111.664C1684.4 111.664 1683.5 112.559 1683.5 113.664L1683.5 143.664L1706.5 143.664L1706.5 113.664C1706.5 112.559 1705.6 111.664 1704.5 111.664Z"   fill="#8B8E95" ></path><path d="M1704.5 111.164L1685.5 111.164C1684.12 111.164 1683 112.283 1683 113.664L1683 144.164L1707 144.164L1707 113.664C1707 112.283 1705.88 111.164 1704.5 111.164ZM1704.5 112.164C1705.33 112.164 1706 112.835 1706 113.664L1706 143.664L1706.5 143.664L1706.5 143.164L1683.5 143.164L1683.5 143.664L1684 143.664L1684 113.664C1684 112.835 1684.67 112.164 1685.5 112.164L1704.5 112.164Z"   fill="#000000" ></path><rect transform="matrix(-1, 0, 0, 1, 1706.5, 143.66357421875)" x="0" y="0" width="23" height="13" stroke="rgba(0, 0, 0, 1)" stroke-width="1"      fill="#3D3E47" ></rect><rect transform="matrix(-1, 0, 0, 1, 1706.5, 62.66357421875)" x="0" y="0" width="23" height="13" stroke="rgba(0, 0, 0, 1)" stroke-width="1"      fill="#3D3E47" ></rect><path d="M1704.5 30.6636L1685.5 30.6636C1684.4 30.6636 1683.5 31.559 1683.5 32.6636L1683.5 62.6636L1706.5 62.6636L1706.5 32.6636C1706.5 31.559 1705.6 30.6636 1704.5 30.6636Z"   fill="#8B8E95" ></path><path d="M1704.5 30.1636L1685.5 30.1636C1684.12 30.1636 1683 31.2829 1683 32.6636L1683 63.1636L1707 63.1636L1707 32.6636C1707 31.2829 1705.88 30.1636 1704.5 30.1636ZM1704.5 31.1636C1705.33 31.1636 1706 31.8351 1706 32.6636L1706 62.6636L1706.5 62.6636L1706.5 62.1636L1683.5 62.1636L1683.5 62.6636L1684 62.6636L1684 32.6636C1684 31.8351 1684.67 31.1636 1685.5 31.1636L1704.5 31.1636Z"   fill="#000000" ></path><rect transform="matrix(-1, 0, 0, 1, 1712.5, 40.66357421875)" x="0" y="0" width="6" height="18" stroke="rgba(0, 0, 0, 1)" stroke-width="1"      fill="#9A9DA4" ></rect><path d="M209.5 196.664L249.5 196.664L249.5 265.664C249.5 270.634 245.471 274.664 240.5 274.664L218.5 274.664C213.529 274.664 209.5 270.634 209.5 265.664L209.5 196.664Z"   fill="#60636C" ></path><path d="M209.5 196.164L250 196.164L250 265.664C250 270.91 245.747 275.164 240.5 275.164L218.5 275.164C213.253 275.164 209 270.91 209 265.664L209 196.164L209.5 196.164ZM209.5 197.164L209.5 196.664L210 196.664L210 265.664C210 270.358 213.806 274.164 218.5 274.164L240.5 274.164C245.194 274.164 249 270.358 249 265.664L249 196.664L249.5 196.664L249.5 197.164L209.5 197.164Z"   fill="#000000" ></path><rect x="217.5" y="196.66357421875" width="25" height="78" stroke="rgba(0, 0, 0, 1)" stroke-width="1"      fill="#B5B9C0" ></rect><path d="M1632 236.664L1674.5 294.164L1674.5 319.664L1538.5 319.664L1538.5 236.664L1632 236.664Z" stroke="rgba(0, 0, 0, 1)" stroke-width="1"      fill="#FFFFFF" ></path><rect transform="matrix(-1, 0, 0, 1, 1556.5, 196.66357421875)" x="0" y="0" width="10" height="49" stroke="rgba(0, 0, 0, 1)" stroke-width="1"      fill="#9A9FA3" ></rect><rect transform="matrix(-1, 0, 0, 1, 1630.5, 196.66357421875)" x="0" y="0" width="10" height="49" stroke="rgba(0, 0, 0, 1)" stroke-width="1"      fill="#9A9FA3" ></rect><path d="M1613.5 196.664L1573.5 196.664L1573.5 265.664C1573.5 270.634 1577.53 274.664 1582.5 274.664L1604.5 274.664C1609.47 274.664 1613.5 270.634 1613.5 265.664L1613.5 196.664Z"   fill="#60636C" ></path><path d="M1613.5 196.164L1573 196.164L1573 265.664C1573 270.91 1577.25 275.164 1582.5 275.164L1604.5 275.164C1609.75 275.164 1614 270.91 1614 265.664L1614 196.164L1613.5 196.164ZM1613.5 197.164L1613.5 196.664L1613 196.664L1613 265.664C1613 270.358 1609.19 274.164 1604.5 274.164L1582.5 274.164C1577.81 274.164 1574 270.358 1574 265.664L1574 196.664L1573.5 196.664L1573.5 197.164L1613.5 197.164Z"   fill="#000000" ></path><rect transform="matrix(-1, 0, 0, 1, 1605.5, 196.66357421875)" x="0" y="0" width="25" height="78" stroke="rgba(0, 0, 0, 1)" stroke-width="1"      fill="#B5B9C0" ></rect><rect transform="matrix(-1, 0, 0, 1, 1638.5, 319.66357421875)" x="0" y="0" width="92" height="26" stroke="rgba(0, 0, 0, 1)" stroke-width="1"      fill="#FFFFFF" ></rect><rect transform="matrix(-1, 0, 0, 1, 1546.5, 319.66357421875)" x="0" y="0" width="25" height="26" stroke="rgba(0, 0, 0, 1)" stroke-width="1"      fill="#FFFFFF" ></rect><rect transform="matrix(-1, 0, 0, 1, 1674.5, 319.66357421875)" x="0" y="0" width="36" height="26" stroke="rgba(0, 0, 0, 1)" stroke-width="1"      fill="#FFFFFF" ></rect><rect x="293.5" y="220.66357421875" width="11" height="32" stroke="rgba(0, 0, 0, 1)" stroke-width="1"      fill="#2B2937" ></rect><rect x="155.5" y="220.66357421875" width="11" height="32" stroke="rgba(0, 0, 0, 1)" stroke-width="1"      fill="#2B2937" ></rect><rect x="0.5" y="268.66357421875" width="121" height="196" stroke="rgba(0, 0, 0, 1)" stroke-width="1"      fill="#686B71" ></rect><rect x="9.5" y="277.66357421875" width="106" height="177" stroke="rgba(0, 0, 0, 1)" stroke-width="1"      fill="#FFFFFF" ></rect><rect x="16.5" y="286.66357421875" width="88" height="85" stroke="rgba(0, 0, 0, 1)" stroke-width="1"      fill="#686B72" ></rect><rect x="22.5" y="293.66357421875" width="21" height="12" stroke="rgba(0, 0, 0, 1)" stroke-width="1"      fill="#BFC0C5" ></rect><rect x="51.5" y="293.66357421875" width="21" height="12" stroke="rgba(0, 0, 0, 1)" stroke-width="1"      fill="#BFC0C5" ></rect><rect x="80.5" y="293.66357421875" width="21" height="12" stroke="rgba(0, 0, 0, 1)" stroke-width="1"      fill="#BFC0C5" ></rect><rect x="34.5" y="312.66357421875" width="53" height="10" stroke="rgba(0, 0, 0, 1)" stroke-width="1"      fill="#CCCCCC" ></rect><rect x="293.5" y="265.66357421875" width="11" height="32" stroke="rgba(0, 0, 0, 1)" stroke-width="1"      fill="#2B2937" ></rect><rect x="155.5" y="265.66357421875" width="11" height="32" stroke="rgba(0, 0, 0, 1)" stroke-width="1"      fill="#2B2937" ></rect><rect x="155.5" y="338.66357421875" width="11" height="22" stroke="rgba(0, 0, 0, 1)" stroke-width="1"      fill="#2B2937" ></rect><rect x="155.5" y="367.66351318359375" width="11" height="22" stroke="rgba(0, 0, 0, 1)" stroke-width="1"      fill="#2B2937" ></rect><rect x="293.5" y="367.66351318359375" width="11" height="22" stroke="rgba(0, 0, 0, 1)" stroke-width="1"      fill="#2B2937" ></rect><rect x="293.5" y="338.66357421875" width="11" height="22" stroke="rgba(0, 0, 0, 1)" stroke-width="1"      fill="#2B2937" ></rect><path d="M1676.5 487.664L1676.5 510.664L1569.5 510.664L1569.5 487.664L1676.5 487.664Z" stroke="rgba(0, 0, 0, 1)" stroke-width="1"      fill="#545760" ></path><path d="M1569.5 488.872L1553.5 465.664L1553.5 488.872L1569.5 509.664L1569.5 488.872Z" stroke="rgba(0, 0, 0, 1)" stroke-width="1"      fill="#545760" ></path><path d="M1675.5 487.164L1647.02 469.664L1556.5 469.664L1568.2 487.164L1675.5 487.164Z" stroke="rgba(0, 0, 0, 1)" stroke-width="1"      fill="#545760" ></path><path d="M1630.98 345.664L1652.64 345.664L1652.64 449.484L1678.64 449.484L1678.64 465.954C1682.83 467.31 1670.62 481.644 1666.12 479.434L1630.98 479.434L1630.98 345.664ZM1539.5 345.664L1630.98 345.664L1630.98 479.432L1539.5 479.432L1539.5 345.664Z" stroke="rgba(0, 0, 0, 1)" stroke-width="1"    fill-rule="evenodd"  fill="#303039" ></path><rect transform="matrix(-1, 0, 0, 1, 1678.5, 196.66357421875)" x="0" y="0" width="25" height="263" stroke="rgba(0, 0, 0, 1)" stroke-width="1"      fill="#605F66" ></rect><rect transform="matrix(-1, 0, 0, 1, 1540.5, 196.66357421875)" x="0" y="0" width="25" height="263" stroke="rgba(0, 0, 0, 1)" stroke-width="1"      fill="#605F66" ></rect><rect transform="matrix(-1, 0, 0, 1, 1533.5, 338.66357421875)" x="0" y="0" width="11" height="22" stroke="rgba(0, 0, 0, 1)" stroke-width="1"      fill="#2B2937" ></rect><rect transform="matrix(-1, 0, 0, 1, 1533.5, 367.66351318359375)" x="0" y="0" width="11" height="22" stroke="rgba(0, 0, 0, 1)" stroke-width="1"      fill="#2B2937" ></rect><rect transform="matrix(-1, 0, 0, 1, 1671.5, 367.66351318359375)" x="0" y="0" width="11" height="22" stroke="rgba(0, 0, 0, 1)" stroke-width="1"      fill="#2B2937" ></rect><rect transform="matrix(-1, 0, 0, 1, 1671.5, 338.66357421875)" x="0" y="0" width="11" height="22" stroke="rgba(0, 0, 0, 1)" stroke-width="1"      fill="#2B2937" ></rect><rect transform="matrix(-1, 0, 0, 1, 1671.5, 265.66357421875)" x="0" y="0" width="11" height="32" stroke="rgba(0, 0, 0, 1)" stroke-width="1"      fill="#2B2937" ></rect><rect transform="matrix(-1, 0, 0, 1, 1533.5, 265.66357421875)" x="0" y="0" width="11" height="32" stroke="rgba(0, 0, 0, 1)" stroke-width="1"      fill="#2B2937" ></rect><rect transform="matrix(-1, 0, 0, 1, 1671.5, 220.66357421875)" x="0" y="0" width="11" height="32" stroke="rgba(0, 0, 0, 1)" stroke-width="1"      fill="#2B2937" ></rect><rect transform="matrix(-1, 0, 0, 1, 1533.5, 220.66357421875)" x="0" y="0" width="11" height="32" stroke="rgba(0, 0, 0, 1)" stroke-width="1"      fill="#2B2937" ></rect><path d="M1580.5 448.664C1571.88 450.537 1574.85 467.827 1580.5 466.664L1580.5 484.664L1554 448.664L1554 425.164L1558 418.664L1580.5 448.664Z" stroke="rgba(0, 0, 0, 1)" stroke-width="1"      fill="#FFFFFF" ></path><path d="M1639 416.664L1668.5 448.664L1580.5 448.664L1557.5 416.664L1639 416.664Z" stroke="rgba(0, 0, 0, 1)" stroke-width="1"      fill="#FFFFFF" ></path><path d="M1665.62 448.664C1674.23 450.011 1672.65 467.146 1665.62 466.914L1665.62 485.664L1580.43 485.664L1580.43 466.914C1575.24 468.017 1571.88 450.501 1580.33 448.664L1665.62 448.664Z" stroke="rgba(0, 0, 0, 1)" stroke-width="1"      fill="#FFFFFF" ></path><path d="M1507 188.664L1514.5 196.664L1514.5 257.664L1507 247.664L1507 188.664Z" stroke="rgba(0, 0, 0, 1)" stroke-width="1"      fill="#CCCCCC" ></path><ellipse cx="1597.5" cy="467.66351318359375" rx="6" ry="12"   fill="#605F66" ></ellipse><ellipse cx="1655.5" cy="467.66351318359375" rx="6" ry="12"   fill="#605F66" ></ellipse><path d="M1540 459.664C1536.78 464.521 1553.34 482.101 1555.5 480.664L1555.5 495.164L1549.5 495.164C1549.65 492.804 1542.03 485.758 1537 495.164L1529 495.164L1529 480.664L1531 478.164L1531 459.664L1540 459.664Z" stroke="rgba(0, 0, 0, 1)" stroke-width="1"      fill="#5A5B62" ></path><path    stroke="rgba(0, 0, 0, 1)" stroke-width="1"    d="M1555.5 480.664L1529.54 480.664"></path><path    stroke="rgba(0, 0, 0, 1)" stroke-width="1"    d="M1692.5 479.664L1666.54 479.664"></path><path d="M1516 196.664L1516 459.664L1528.5 478.664L1528.5 495.164L1496 442.664L1496 177.664L1516 196.664Z" stroke="rgba(0, 0, 0, 1)" stroke-width="1"      fill="#2D2D37" ></path><rect  x="273.5" y="114.66357421875" width="1280" height="13" rx="5"    fill="#CCCCCC" ></rect><path d="M278.5 114.164L1548.5 114.164C1551.54 114.164 1554 116.626 1554 119.664L1554 122.664C1554 125.701 1551.54 128.164 1548.5 128.164L278.5 128.164C275.462 128.164 273 125.701 273 122.664L273 119.664C273 116.626 275.462 114.164 278.5 114.164ZM278.5 115.164C276.015 115.164 274 117.178 274 119.664L274 122.664C274 125.149 276.015 127.164 278.5 127.164L1548.5 127.164C1550.99 127.164 1553 125.149 1553 122.664L1553 119.664C1553 117.178 1550.99 115.164 1548.5 115.164L278.5 115.164Z"   fill="#474854" ></path><path d="M390.5 245.664L346 301.164L1484 301.164L1453.5 245.664L390.5 245.664Z" stroke="rgba(0, 0, 0, 1)" stroke-width="1"      fill="#343642" ></path><rect x="346.5" y="301.66357421875" width="1138" height="18" stroke="rgba(0, 0, 0, 1)" stroke-width="1"      fill="#A2A6AB" ></rect><rect x="330.5" y="393.66351318359375" width="104" height="22" stroke="rgba(0, 0, 0, 1)" stroke-width="1"      fill="#585960" ></rect><rect x="331.5" y="360.66357421875" width="104" height="22" stroke="rgba(0, 0, 0, 1)" stroke-width="1"      fill="#585960" ></rect><rect x="690.5" y="376.66351318359375" width="11" height="18" stroke="rgba(0, 0, 0, 1)" stroke-width="1"      fill="#444551" ></rect><rect x="690.5" y="362.66357421875" width="11" height="14" stroke="rgba(0, 0, 0, 1)" stroke-width="1"      fill="#999AA0" ></rect><circle cx="696.5" cy="356.66357421875" r="9" stroke="rgba(0, 0, 0, 1)" stroke-width="1"      fill="#CCCCCC" ></circle><circle cx="697" cy="357.16357421875" r="4.5" stroke="rgba(0, 0, 0, 1)" stroke-width="1"      fill="#999CA3" ></circle><rect x="922.5" y="362.66357421875" width="11" height="14" stroke="rgba(0, 0, 0, 1)" stroke-width="1"      fill="#999AA0" ></rect><circle cx="928.5" cy="356.66357421875" r="9" stroke="rgba(0, 0, 0, 1)" stroke-width="1"      fill="#CCCCCC" ></circle><circle cx="929" cy="357.16357421875" r="4.5" stroke="rgba(0, 0, 0, 1)" stroke-width="1"      fill="#999CA3" ></circle><rect x="922.5" y="376.66351318359375" width="11" height="18" stroke="rgba(0, 0, 0, 1)" stroke-width="1"      fill="#444551" ></rect><rect x="1143.5" y="362.66357421875" width="11" height="14" stroke="rgba(0, 0, 0, 1)" stroke-width="1"      fill="#999AA0" ></rect><circle cx="1149.5" cy="356.66357421875" r="9" stroke="rgba(0, 0, 0, 1)" stroke-width="1"      fill="#CCCCCC" ></circle><circle cx="1150" cy="357.16357421875" r="4.5" stroke="rgba(0, 0, 0, 1)" stroke-width="1"      fill="#999CA3" ></circle><rect x="1143.5" y="376.66351318359375" width="11" height="18" stroke="rgba(0, 0, 0, 1)" stroke-width="1"      fill="#444551" ></rect><rect x="383.5" y="346.66357421875" width="1071" height="3" stroke="rgba(0, 0, 0, 1)" stroke-width="1"      fill="#CCCCCC" ></rect><rect x="1382.5" y="410.66351318359375" width="125" height="30" stroke="rgba(0, 0, 0, 1)" stroke-width="1"      fill="#41424F" ></rect><circle cx="1358.5" cy="434.66351318359375" r="24" stroke="rgba(0, 0, 0, 1)" stroke-width="1"      fill="#9898A0" ></circle><circle cx="1358.5" cy="434.66351318359375" r="13" stroke="rgba(0, 0, 0, 1)" stroke-width="1"      fill="#72757E" ></circle><circle cx="1358.5" cy="434.66351318359375" r="10" stroke="rgba(0, 0, 0, 1)" stroke-width="1"      fill="#5A5A66" ></circle><circle cx="1358.5" cy="434.66351318359375" r="5" stroke="rgba(0, 0, 0, 1)" stroke-width="1"      fill="#999CA5" ></circle><rect x="504.5" y="405.66351318359375" width="830" height="15" stroke="rgba(0, 0, 0, 1)" stroke-width="1"      fill="#585B62" ></rect><rect x="432.5" y="360.66357421875" width="8" height="105" stroke="rgba(0, 0, 0, 1)" stroke-width="1"      fill="#3C3940" ></rect><path d="M459.5 360.664L467.5 360.664C467.5 360.664 471.5 465.664 467.5 465.664C463.5 465.664 459.5 465.664 459.5 465.664L459.5 360.664Z" stroke="rgba(0, 0, 0, 1)" stroke-width="1"      fill="#3C3940" ></path><rect x="440.5" y="360.66357421875" width="19" height="105" stroke="rgba(0, 0, 0, 1)" stroke-width="1"      fill="#51545E" ></rect><rect x="1372.5" y="360.66357421875" width="19" height="105" stroke="rgba(0, 0, 0, 1)" stroke-width="1"      fill="#51545E" ></rect><path d="M1372.5 360.664L1364.32 360.664C1364.32 360.664 1360.23 465.664 1364.32 465.664C1368.41 465.664 1372.5 465.664 1372.5 465.664L1372.5 360.664Z" stroke="rgba(0, 0, 0, 1)" stroke-width="1"      fill="#3C3940" ></path><rect x="1391.5" y="360.66357421875" width="8" height="105" stroke="rgba(0, 0, 0, 1)" stroke-width="1"      fill="#3C3940" ></rect><rect x="357.5" y="319.66357421875" width="16" height="155" stroke="rgba(0, 0, 0, 1)" stroke-width="1"      fill="#A2A5AC" ></rect><rect x="558.5" y="319.66357421875" width="16" height="155" stroke="rgba(0, 0, 0, 1)" stroke-width="1"      fill="#A2A5AC" ></rect><rect x="822.5" y="319.66357421875" width="16" height="155" stroke="rgba(0, 0, 0, 1)" stroke-width="1"      fill="#A2A5AC" ></rect><rect x="1252.5" y="319.66357421875" width="16" height="155" stroke="rgba(0, 0, 0, 1)" stroke-width="1"      fill="#A2A5AC" ></rect><rect x="1454.5" y="319.66357421875" width="16" height="155" stroke="rgba(0, 0, 0, 1)" stroke-width="1"      fill="#A2A5AC" ></rect><path d="M26.5 231.664L2.5 252.664L121 252.664L142.5 231.664L26.5 231.664Z" stroke="rgba(0, 0, 0, 1)" stroke-width="1"      fill="#4E5159" ></path><rect x="2.5" y="252.66357421875" width="119" height="10" stroke="rgba(0, 0, 0, 1)" stroke-width="1"      fill="#4E5159" ></rect><path d="M121.5 253.353L121.5 262.664L142.5 243.008L142.5 232.664L121.5 253.353Z" stroke="rgba(0, 0, 0, 1)" stroke-width="1"      fill="#2C2A35" ></path><path d="M122.5 259.595L122.5 267.664L142.5 250.629L142.5 241.664L122.5 259.595Z" stroke="rgba(0, 0, 0, 1)" stroke-width="1"      fill="#2C2A35" ></path><path d="M4.5 262.664L1.5 268.164L122 268.164L122 262.664L4.5 262.664Z" stroke="rgba(0, 0, 0, 1)" stroke-width="1"      fill="#3A3E49" ></path><circle cx="43" cy="318.16357421875" r="1.5" stroke="rgba(0, 0, 0, 1)" stroke-width="0.5"      fill="#686B72" ></circle><circle cx="48" cy="318.16357421875" r="1.5" stroke="rgba(0, 0, 0, 1)" stroke-width="0.5"      fill="#686B72" ></circle><circle cx="38" cy="318.16357421875" r="1.5" stroke="rgba(0, 0, 0, 1)" stroke-width="0.5"      fill="#686B72" ></circle><circle cx="53" cy="318.16357421875" r="1.5" stroke="rgba(0, 0, 0, 1)" stroke-width="0.5"      fill="#686B72" ></circle><circle cx="58" cy="318.16357421875" r="1.5" stroke="rgba(0, 0, 0, 1)" stroke-width="0.5"      fill="#686B72" ></circle><circle cx="63" cy="318.16357421875" r="1.5" stroke="rgba(0, 0, 0, 1)" stroke-width="0.5"      fill="#686B72" ></circle><circle cx="68" cy="318.16357421875" r="1.5" stroke="rgba(0, 0, 0, 1)" stroke-width="0.5"      fill="#686B72" ></circle><circle cx="73" cy="318.16357421875" r="1.5" stroke="rgba(0, 0, 0, 1)" stroke-width="0.5"      fill="#686B72" ></circle><circle cx="78" cy="318.16357421875" r="1.5" stroke="rgba(0, 0, 0, 1)" stroke-width="0.5"      fill="#686B72" ></circle><circle cx="83" cy="318.16357421875" r="1.5" stroke="rgba(0, 0, 0, 1)" stroke-width="0.5"      fill="#686B72" ></circle><circle cx="28.5" cy="345.66357421875" r="6" stroke="rgba(0, 0, 0, 1)" stroke-width="1"      fill="#CCCCCC" ></circle><circle cx="43.5" cy="353.66357421875" r="4" stroke="rgba(0, 0, 0, 1)" stroke-width="1"      fill="#CCCCCC" ></circle><rect x="24.5" y="342.66357421875" width="7.999999999999997" height="3.0000000000000147" transform="rotate(15.000000120055857 24.5 342.66357421875)" stroke="rgba(0, 0, 0, 1)" stroke-width="0.5"      fill="#686B72" ></rect><rect x="93.5" y="388.66351318359375" width="11" height="40" stroke="rgba(0, 0, 0, 1)" stroke-width="1"      fill="#686B72" ></rect><rect x="9.5" y="464.66351318359375" width="7" height="5" stroke="rgba(0, 0, 0, 1)" stroke-width="1"      fill="#CCCCCC" ></rect><rect x="112.5" y="464.66351318359375" width="7" height="5" stroke="rgba(0, 0, 0, 1)" stroke-width="1"      fill="#CCCCCC" ></rect><rect x="7.5" y="247.66357421875" width="6" height="5" stroke="rgba(0, 0, 0, 1)" stroke-width="1"      fill="#CCCCCC" ></rect><rect x="24.5" y="230.66357421875" width="6" height="5" stroke="rgba(0, 0, 0, 1)" stroke-width="1"      fill="#CCCCCC" ></rect><rect x="132.5" y="230.66357421875" width="6" height="5" stroke="rgba(0, 0, 0, 1)" stroke-width="1"      fill="#CCCCCC" ></rect><rect x="115.5" y="247.66357421875" width="6" height="5" stroke="rgba(0, 0, 0, 1)" stroke-width="1"      fill="#CCCCCC" ></rect><path d="M33.5 252.164L33.5 234.664L47.5 222.664L49 222.664L49 239.164L46 239.164L46 230.164L37 238.164L37 252.164L33.5 252.164Z" stroke="rgba(0, 0, 0, 1)" stroke-width="1"      fill="#BFBFC9" ></path><path d="M100.5 252.164L100.5 234.664L114.5 222.664L116 222.664L116 239.164L113 239.164L113 230.164L104 238.164L104 252.164L100.5 252.164Z" stroke="rgba(0, 0, 0, 1)" stroke-width="1"      fill="#BFBFC9" ></path><path d="M1516.5 459.664L1528.5 478.164L1528.5 480.664L1531.5 478.164L1531.5 459.664L1516.5 459.664Z" stroke="rgba(0, 0, 0, 1)" stroke-width="1"      fill="#5A5B62" ></path><path d="M1690.5 321.664L1803.5 321.664L1826.5 343.164L1826.5 467.664L1710.5 467.664L1688.5 440.164L1690.5 321.664Z"   fill="#666970" ></path><path    stroke="rgba(0, 0, 0, 1)" stroke-width="1"    d="M1690.5 321.664L1710.5 343.164M1690.5 321.664L1803.5 321.664L1826.5 343.164M1690.5 321.664L1688.5 440.164L1710.5 467.664M1710.5 343.164L1826.5 343.164M1710.5 343.164L1710.5 467.664M1826.5 343.164L1826.5 467.664L1710.5 467.664"></path><rect x="1721.5" y="355.66357421875" width="93" height="79" stroke="rgba(0, 0, 0, 1)" stroke-width="1"      fill="#FFFFFF" ></rect><circle cx="1734.5" cy="350.66357421875" r="2" stroke="rgba(0, 0, 0, 1)" stroke-width="0.75"      fill="#666970" ></circle><circle cx="1715.5" cy="377.66351318359375" r="2" stroke="rgba(0, 0, 0, 1)" stroke-width="0.75"      fill="#666970" ></circle><circle cx="1715.5" cy="411.66351318359375" r="2" stroke="rgba(0, 0, 0, 1)" stroke-width="0.75"      fill="#666970" ></circle><circle cx="1736.5" cy="401.66351318359375" r="2" stroke="rgba(0, 0, 0, 1)" stroke-width="0.75"      fill="#666970" ></circle><circle cx="1736.5" cy="387.66351318359375" r="2" stroke="rgba(0, 0, 0, 1)" stroke-width="0.75"      fill="#666970" ></circle><circle cx="1801.5" cy="387.66351318359375" r="2" stroke="rgba(0, 0, 0, 1)" stroke-width="0.75"      fill="#666970" ></circle><circle cx="1801.5" cy="401.66351318359375" r="2" stroke="rgba(0, 0, 0, 1)" stroke-width="0.75"      fill="#666970" ></circle><circle cx="1820.5" cy="411.66351318359375" r="2" stroke="rgba(0, 0, 0, 1)" stroke-width="0.75"      fill="#666970" ></circle><circle cx="1820.5" cy="377.66351318359375" r="2" stroke="rgba(0, 0, 0, 1)" stroke-width="0.75"      fill="#666970" ></circle><circle cx="1805.5" cy="350.66357421875" r="2" stroke="rgba(0, 0, 0, 1)" stroke-width="0.75"      fill="#666970" ></circle><circle cx="1805.5" cy="440.66351318359375" r="2" stroke="rgba(0, 0, 0, 1)" stroke-width="0.75"      fill="#666970" ></circle><circle cx="1734.5" cy="440.66351318359375" r="2" stroke="rgba(0, 0, 0, 1)" stroke-width="0.75"      fill="#666970" ></circle><rect x="1748.5" y="375.66351318359375" width="38" height="38" stroke="rgba(0, 0, 0, 1)" stroke-width="1"      fill="#666874" ></rect><circle cx="1777.5" cy="385.66351318359375" r="3" stroke="rgba(0, 0, 0, 1)" stroke-width="0.75"      fill="#B5B5BD" ></circle><circle cx="1758.5" cy="385.66351318359375" r="3" stroke="rgba(0, 0, 0, 1)" stroke-width="0.75"      fill="#B5B5BD" ></circle><circle cx="1758.5" cy="403.66351318359375" r="3" stroke="rgba(0, 0, 0, 1)" stroke-width="0.75"      fill="#B5B5BD" ></circle><circle cx="1777.5" cy="403.66351318359375" r="3" stroke="rgba(0, 0, 0, 1)" stroke-width="0.75"      fill="#B5B5BD" ></circle><rect x="1738.5" y="449.66351318359375" width="61" height="5" stroke="rgba(0, 0, 0, 1)" stroke-width="1"      fill="#CCCCCC" ></rect><rect x="1715.5" y="467.66351318359375" width="11" height="6" stroke="rgba(0, 0, 0, 1)" stroke-width="1"      fill="#BEBCBB" ></rect><rect x="1807.5" y="467.66351318359375" width="11" height="6" stroke="rgba(0, 0, 0, 1)" stroke-width="1"      fill="#BEBCBB" ></rect><path d="M602.053 225.764C581.477 227.431 589.622 279.834 602.053 277.124L614.063 277.124L618.063 283.674L1210.98 283.674L1216.49 277.124L1226.99 277.124C1247.37 265.048 1239.17 226.482 1223.49 224.674L602.053 225.764Z" stroke="rgba(0, 0, 0, 1)" stroke-width="0.75"      fill="#3E404D" ></path><path d="M599.5 236.164C584.171 237.564 590.252 272.522 599.5 271.664L1225 271.664C1248.23 265.879 1238.73 236.947 1225 238.664L599.5 236.164Z" stroke="rgba(0, 0, 0, 1)" stroke-width="0.75"      fill="#646770" ></path><rect x="1206.5" y="246.66357421875" width="15" height="21" stroke="rgba(0, 0, 0, 1)" stroke-width="1"      fill="#3A3A46" ></rect><rect x="1206.5" y="250.66357421875" width="9" height="17" stroke="rgba(0, 0, 0, 1)" stroke-width="1"      fill="#535561" ></rect><rect x="1164.5" y="244.66357421875" width="39" height="23" stroke="rgba(0, 0, 0, 1)" stroke-width="1"      fill="#5F6269" ></rect><rect x="1141.5" y="253.66357421875" width="21" height="2" stroke="rgba(0, 0, 0, 1)" stroke-width="1"      fill="#302E3A" ></rect><rect x="1141.5" y="258.66357421875" width="21" height="2" stroke="rgba(0, 0, 0, 1)" stroke-width="1"      fill="#302E3A" ></rect><rect x="1141.5" y="264.66357421875" width="21" height="2" stroke="rgba(0, 0, 0, 1)" stroke-width="1"      fill="#302E3A" ></rect><rect x="604.5" y="268.66357421875" width="3" height="17" stroke="rgba(0, 0, 0, 1)" stroke-width="1"      fill="#71727F" ></rect><rect x="602.5" y="278.66357421875" width="5" height="3" stroke="rgba(0, 0, 0, 1)" stroke-width="1"      fill="#CCCCCC" ></rect><path d="M601.5 281.664L607.5 281.664L607.5 289.794L607.5 294.664L614 294.664L614 297.664L596.5 297.664L596.5 294.664L601.5 294.664L601.5 289.794L601.5 281.664Z"   fill="#A8AFB5" ></path><path    stroke="rgba(0, 0, 0, 1)" stroke-width="0.75"    d="M601.5 289.789L601.5 294.664L596.5 294.664L596.5 297.664L614 297.664L614 294.664L607.5 294.664L607.5 289.789M601.5 289.789L601.5 281.664L607.5 281.664L607.5 289.789M601.5 289.789L607.5 289.789"></path><rect x="759.5" y="268.66357421875" width="3" height="17" stroke="rgba(0, 0, 0, 1)" stroke-width="1"      fill="#71727F" ></rect><rect x="758.5" y="278.66357421875" width="5" height="3" stroke="rgba(0, 0, 0, 1)" stroke-width="1"      fill="#CCCCCC" ></rect><path d="M757.5 281.664L763.5 281.664L763.5 289.794L763.5 294.664L770 294.664L770 297.664L752.5 297.664L752.5 294.664L757.5 294.664L757.5 289.794L757.5 281.664Z"   fill="#A8AFB5" ></path><path    stroke="rgba(0, 0, 0, 1)" stroke-width="0.75"    d="M757.5 289.789L757.5 294.664L752.5 294.664L752.5 297.664L770 297.664L770 294.664L763.5 294.664L763.5 289.789M757.5 289.789L757.5 281.664L763.5 281.664L763.5 289.789M757.5 289.789L763.5 289.789"></path><rect x="914.5" y="268.66357421875" width="3" height="17" stroke="rgba(0, 0, 0, 1)" stroke-width="1"      fill="#71727F" ></rect><rect x="913.5" y="278.66357421875" width="5" height="3" stroke="rgba(0, 0, 0, 1)" stroke-width="1"      fill="#CCCCCC" ></rect><path d="M912.5 281.664L918.5 281.664L918.5 289.794L918.5 294.664L925 294.664L925 297.664L907.5 297.664L907.5 294.664L912.5 294.664L912.5 289.794L912.5 281.664Z"   fill="#A8AFB5" ></path><path    stroke="rgba(0, 0, 0, 1)" stroke-width="0.75"    d="M912.5 289.789L912.5 294.664L907.5 294.664L907.5 297.664L925 297.664L925 294.664L918.5 294.664L918.5 289.789M912.5 289.789L912.5 281.664L918.5 281.664L918.5 289.789M912.5 289.789L918.5 289.789"></path><rect x="1067.5" y="268.66357421875" width="3" height="17" stroke="rgba(0, 0, 0, 1)" stroke-width="1"      fill="#71727F" ></rect><rect x="1066.5" y="278.66357421875" width="5" height="3" stroke="rgba(0, 0, 0, 1)" stroke-width="1"      fill="#CCCCCC" ></rect><path d="M1065.5 281.664L1071.5 281.664L1071.5 289.794L1071.5 294.664L1078 294.664L1078 297.664L1060.5 297.664L1060.5 294.664L1065.5 294.664L1065.5 289.794L1065.5 281.664Z"   fill="#A8AFB5" ></path><path    stroke="rgba(0, 0, 0, 1)" stroke-width="0.75"    d="M1065.5 289.789L1065.5 294.664L1060.5 294.664L1060.5 297.664L1078 297.664L1078 294.664L1071.5 294.664L1071.5 289.789M1065.5 289.789L1065.5 281.664L1071.5 281.664L1071.5 289.789M1065.5 289.789L1071.5 289.789"></path><rect x="1222.5" y="268.66357421875" width="3" height="17" stroke="rgba(0, 0, 0, 1)" stroke-width="1"      fill="#71727F" ></rect><rect x="1222.5" y="278.66357421875" width="5" height="3" stroke="rgba(0, 0, 0, 1)" stroke-width="1"      fill="#CCCCCC" ></rect><path d="M1222.5 281.664L1228.5 281.664L1228.5 289.794L1228.5 294.664L1235 294.664L1235 297.664L1217.5 297.664L1217.5 294.664L1222.5 294.664L1222.5 289.794L1222.5 281.664Z"   fill="#A8AFB5" ></path><path    stroke="rgba(0, 0, 0, 1)" stroke-width="0.75"    d="M1222.5 289.789L1222.5 294.664L1217.5 294.664L1217.5 297.664L1235 297.664L1235 294.664L1228.5 294.664L1228.5 289.789M1222.5 289.789L1222.5 281.664L1228.5 281.664L1228.5 289.789M1222.5 289.789L1228.5 289.789"></path><circle cx="619.5" cy="157.66357421875" r="31" stroke="rgba(0, 0, 0, 1)" stroke-width="1"      fill="#706E7B" ></circle><rect x="614.5" y="166.66357421875" width="12" height="59" stroke="rgba(0, 0, 0, 1)" stroke-width="1"      fill="#272831" ></rect><circle cx="620" cy="158.16357421875" r="26.5" stroke="rgba(0, 0, 0, 1)" stroke-width="1"      fill="#BEC0C9" ></circle><path d="M640.5 158.164C640.5 146.842 631.322 137.664 620 137.664C608.678 137.664 599.5 146.842 599.5 158.164L604.83 158.164C604.83 149.785 611.622 142.994 620 142.994C628.378 142.994 635.17 149.785 635.17 158.164L640.5 158.164Z"   fill="url(#linear_fill_AilNGetU3oDRda5yu_1ft)" ></path><rect x="611.5" y="168.66357421875" width="18" height="6" stroke="rgba(0, 0, 0, 1)" stroke-width="1"      fill="#90929F" ></rect><path d="M606.5 143.664L618 152.664L622.5 158.664L618 158.664L615.18 154.984L606.5 143.664Z"   fill="#272831" ></path><path    stroke="rgba(0, 0, 0, 1)" stroke-width="0.75"    d="M618 152.664L606.5 143.664L615.179 154.984M618 152.664L622.5 158.664L618 158.664L615.179 154.984M618 152.664L615.179 154.984"></path><rect x="705.5" y="166.66357421875" width="12" height="59" stroke="rgba(0, 0, 0, 1)" stroke-width="1"      fill="#272831" ></rect><rect x="624.5" y="212.66357421875" width="10" height="13" stroke="rgba(0, 0, 0, 1)" stroke-width="1"      fill="#E5E5E5" ></rect><rect x="673.5" y="212.66357421875" width="10" height="13" stroke="rgba(0, 0, 0, 1)" stroke-width="1"      fill="#E5E5E5" ></rect><rect x="1209.5" y="212.66357421875" width="10" height="13" stroke="rgba(0, 0, 0, 1)" stroke-width="1"      fill="#E5E5E5" ></rect><rect x="1138.5" y="212.66357421875" width="10" height="13" stroke="rgba(0, 0, 0, 1)" stroke-width="1"      fill="#E5E5E5" ></rect><rect x="643.5" y="219.66357421875" width="18" height="6" stroke="rgba(0, 0, 0, 1)" stroke-width="1"      fill="#E5E5E5" ></rect><rect x="706.5" y="166.66357421875" width="12" height="59" stroke="rgba(0, 0, 0, 1)" stroke-width="1"      fill="#272831" ></rect><circle cx="711.5" cy="157.66357421875" r="31" stroke="rgba(0, 0, 0, 1)" stroke-width="1"      fill="#706E7B" ></circle><circle cx="712" cy="158.16357421875" r="26.5" stroke="rgba(0, 0, 0, 1)" stroke-width="1"      fill="#BEC0C9" ></circle><path d="M732.5 158.164C732.5 146.842 723.322 137.664 712 137.664C700.678 137.664 691.5 146.842 691.5 158.164L696.83 158.164C696.83 149.785 703.622 142.994 712 142.994C720.378 142.994 727.17 149.785 727.17 158.164L732.5 158.164Z"   fill="url(#linear_fill_T_9e77C0uCfjQCjhvlbb-)" ></path><rect x="703.5" y="168.66357421875" width="18" height="6" stroke="rgba(0, 0, 0, 1)" stroke-width="1"      fill="#90929F" ></rect><path d="M698.5 143.664L710 152.664L714.5 158.664L710 158.664L707.18 154.984L698.5 143.664Z"   fill="#272831" ></path><path    stroke="rgba(0, 0, 0, 1)" stroke-width="0.75"    d="M710 152.664L698.5 143.664L707.179 154.984M710 152.664L714.5 158.664L710 158.664L707.179 154.984M710 152.664L707.179 154.984"></path><rect x="1175.5" y="166.66357421875" width="12" height="59" stroke="rgba(0, 0, 0, 1)" stroke-width="1"      fill="#272831" ></rect><circle cx="1180.5" cy="157.66357421875" r="31" stroke="rgba(0, 0, 0, 1)" stroke-width="1"      fill="#706E7B" ></circle><circle cx="1181" cy="158.16357421875" r="26.5" stroke="rgba(0, 0, 0, 1)" stroke-width="1"      fill="#BEC0C9" ></circle><path d="M1201.5 158.164C1201.5 146.842 1192.32 137.664 1181 137.664C1169.68 137.664 1160.5 146.842 1160.5 158.164L1165.83 158.164C1165.83 149.785 1172.62 142.994 1181 142.994C1189.38 142.994 1196.17 149.785 1196.17 158.164L1201.5 158.164Z"   fill="url(#linear_fill_IjeIkjSMvd-V2_2edZclW)" ></path><rect x="1172.5" y="168.66357421875" width="18" height="6" stroke="rgba(0, 0, 0, 1)" stroke-width="1"      fill="#90929F" ></rect><path d="M1167.5 143.664L1179 152.664L1183.5 158.664L1179 158.664L1176.18 154.984L1167.5 143.664Z"   fill="#272831" ></path><path    stroke="rgba(0, 0, 0, 1)" stroke-width="0.75"    d="M1179 152.664L1167.5 143.664L1176.18 154.984M1179 152.664L1183.5 158.664L1179 158.664L1176.18 154.984M1179 152.664L1176.18 154.984"></path></g><defs><clipPath id="clip-path-b2--nYLqlKpOzkDfWLlI-"><path d="M4.5086e-05 511.673L1827 511.673L1827 7.29816e-06L4.5086e-05 7.29816e-06L4.5086e-05 511.673Z" fill="white"/></clipPath><linearGradient id="linear_fill_AilNGetU3oDRda5yu_1ft" x1="599.5" y1="147.91357421875" x2="640.5" y2="147.91357421875" gradientUnits="userSpaceOnUse"><stop offset="0" stop-color="#458B61"  /><stop offset="1" stop-color="#C1514F"  /></linearGradient><linearGradient id="linear_fill_T_9e77C0uCfjQCjhvlbb-" x1="691.5" y1="147.91357421875" x2="732.5" y2="147.91357421875" gradientUnits="userSpaceOnUse"><stop offset="0" stop-color="#458B61"  /><stop offset="1" stop-color="#C1514F"  /></linearGradient><linearGradient id="linear_fill_IjeIkjSMvd-V2_2edZclW" x1="1160.5" y1="147.91357421875" x2="1201.5" y2="147.91357421875" gradientUnits="userSpaceOnUse"><stop offset="0" stop-color="#458B61"  /><stop offset="1" stop-color="#C1514F"  /></linearGradient></defs></svg>