<?xml version="1.0" encoding="UTF-8"?>
<svg xmlns="http://www.w3.org/2000/svg" xmlns:xlink="http://www.w3.org/1999/xlink" viewBox="1071.5 166.55 1628.5 1980">
  <defs>
    <style>
      .cls-1 {
        clip-path: url(#clippath-4);
      }

      .cls-2 {
        fill: #fff;
        opacity: 0;
      }

      .cls-3 {
        fill: none;
        stroke: #424242;
        stroke-width: 3.2px;
      }

      .cls-4, .cls-5 {
        fill: none;
      }

      .cls-6 {
        fill: #e5e5e5;
        opacity: 0;
      }

      .cls-7 {
        fill: #d8d8d8;
        opacity: 0;
      }

      .cls-8 {
        clip-path: url(#clippath-1);
      }

      .cls-9 {
        isolation: isolate;
      }

      .cls-10 {
        fill: #eaeaea;
        mix-blend-mode: soft-light;
        opacity: 0;
      }

      .cls-11 {
        clip-path: url(#clippath-3);
      }

      .cls-12 {
        fill: #efefef;
        opacity: 0;
      }

      .cls-13 {
        fill: #ccc;
        opacity: 0;
      }

      .cls-14 {
        fill: #f4f4f4;
        opacity: 0;
      }

      .cls-15 {
        clip-path: url(#clippath-2);
      }

      .cls-16 {
        fill: #c6c6c6;
        opacity: 0;
      }

      .cls-17 {
        fill: #adadad;
        opacity: 0;
      }

      .cls-18 {
        clip-path: url(#clippath);
      }

      .cls-5 {
        stroke: #424242;
        stroke-miterlimit: 10;
        stroke-width: 2.6px;
        stroke-linecap: round;
        stroke-linejoin: round;
        opacity: 1;
      }
    </style>
    <clipPath id="clippath">
      <rect class="cls-4" y="166.55" width="2700" height="1980"/>
    </clipPath>
    <clipPath id="clippath-1">
      <rect class="cls-4" y="166.55" width="2700" height="1980"/>
    </clipPath>
    <clipPath id="clippath-2">
      <rect class="cls-4" y="166.55" width="2700" height="1980"/>
    </clipPath>
    <clipPath id="clippath-3">
      <rect class="cls-4" y="166.55" width="2700" height="1980"/>
    </clipPath>
    <clipPath id="clippath-4">
      <rect class="cls-4" y="166.55" width="2700" height="1980"/>
    </clipPath>
  </defs>
  <g class="cls-9">
    <g id="Layer_2" data-name="Layer 2">
      <g class="cls-18">
        <path class="cls-6" d="M1713.06,160.85l103.89-59.98c3.6-2.08,8.1.52,8.1,4.68v119.97c0,4.16-4.5,6.76-8.1,4.68l-103.89-59.98c-3.6-2.08-3.6-7.27,0-9.35Z"/>
        <path class="cls-16" d="M1704.96,126.46V6.49c0-4.16,4.5-6.76,8.1-4.68l103.89,59.98c3.6,2.08,3.6,7.27,0,9.35l-103.89,59.98c-3.6,2.08-8.1-.52-8.1-4.68Z"/>
        <path class="cls-6" d="M2004.71,199.92l103.89,59.98c3.6,2.08,3.6,7.27,0,9.35l-103.89,59.98c-3.6,2.08-8.1-.52-8.1-4.68v-119.97c0-4.16,4.5-6.76,8.1-4.68Z"/>
        <path class="cls-13" d="M2004.71,160.85l103.89-59.98c3.6-2.08,8.1.52,8.1,4.68v119.97c0,4.16-4.5,6.76-8.1,4.68l-103.89-59.98c-3.6-2.08-3.6-7.27,0-9.35Z"/>
        <path class="cls-16" d="M1996.61,126.46V6.49c0-4.16,4.5-6.76,8.1-4.68l103.89,59.98c3.6,2.08,3.6,7.27,0,9.35l-103.89,59.98c-3.6,2.08-8.1-.52-8.1-4.68Z"/>
        <path class="cls-6" d="M1962.77,131.13l-103.89-59.98c-3.6-2.08-3.6-7.27,0-9.35L1962.77,1.81c3.6-2.08,8.1.52,8.1,4.68v119.97c0,4.16-4.5,6.76-8.1,4.68Z"/>
        <path class="cls-2" d="M1962.77,170.2l-103.89,59.98c-3.6,2.08-8.1-.52-8.1-4.68v-119.97c0-4.16,4.5-6.75,8.1-4.68l103.89,59.98c3.6,2.08,3.6,7.27,0,9.35Z"/>
        <path class="cls-14" d="M1970.87,204.59v119.97c0,4.16-4.5,6.76-8.1,4.68l-103.89-59.98c-3.6-2.08-3.6-7.27,0-9.35l103.89-59.98c3.6-2.08,8.1.52,8.1,4.68Z"/>
        <path class="cls-6" d="M2296.36,199.92l103.89,59.98c3.6,2.08,3.6,7.27,0,9.35l-103.89,59.98c-3.6,2.08-8.1-.52-8.1-4.68v-119.97c0-4.16,4.5-6.76,8.1-4.68Z"/>
        <path class="cls-14" d="M2296.36,160.85l103.89-59.98c3.6-2.08,8.1.52,8.1,4.68v119.97c0,4.16-4.5,6.76-8.1,4.68l-103.89-59.98c-3.6-2.08-3.6-7.27,0-9.35Z"/>
        <path class="cls-16" d="M2288.26,126.46V6.49c0-4.16,4.5-6.76,8.1-4.68l103.89,59.98c3.6,2.08,3.6,7.27,0,9.35l-103.89,59.98c-3.6,2.08-8.1-.52-8.1-4.68Z"/>
        <path class="cls-6" d="M2254.43,131.13l-103.89-59.98c-3.6-2.08-3.6-7.27,0-9.35l103.89-59.98c3.6-2.08,8.1.52,8.1,4.68v119.97c0,4.16-4.5,6.76-8.1,4.68Z"/>
        <path class="cls-2" d="M2254.43,170.2l-103.89,59.98c-3.6,2.08-8.1-.52-8.1-4.68v-119.97c0-4.16,4.5-6.75,8.1-4.68l103.89,59.98c3.6,2.08,3.6,7.27,0,9.35Z"/>
        <path class="cls-17" d="M2262.53,204.59v119.97c0,4.16-4.5,6.76-8.1,4.68l-103.89-59.98c-3.6-2.08-3.6-7.27,0-9.35l103.89-59.98c3.6-2.08,8.1.52,8.1,4.68Z"/>
        <path class="cls-6" d="M2588.01,199.92l103.89,59.98c3.6,2.08,3.6,7.27,0,9.35l-103.89,59.98c-3.6,2.08-8.1-.52-8.1-4.68v-119.97c0-4.16,4.5-6.76,8.1-4.68Z"/>
        <path class="cls-13" d="M2588.01,160.85l103.89-59.98c3.6-2.08,8.1.52,8.1,4.68v119.97c0,4.16-4.5,6.76-8.1,4.68l-103.89-59.98c-3.6-2.08-3.6-7.27,0-9.35Z"/>
        <path class="cls-16" d="M2579.91,126.46V6.49c0-4.16,4.5-6.76,8.1-4.68l103.89,59.98c3.6,2.08,3.6,7.27,0,9.35l-103.89,59.98c-3.6,2.08-8.1-.52-8.1-4.68Z"/>
        <path class="cls-6" d="M2546.08,131.13l-103.89-59.98c-3.6-2.08-3.6-7.27,0-9.35l103.89-59.98c3.6-2.08,8.1.52,8.1,4.68v119.97c0,4.16-4.5,6.76-8.1,4.68Z"/>
        <path class="cls-17" d="M2546.08,170.2l-103.89,59.98c-3.6,2.08-8.1-.52-8.1-4.68v-119.97c0-4.16,4.5-6.75,8.1-4.68l103.89,59.98c3.6,2.08,3.6,7.27,0,9.35Z"/>
        <path class="cls-14" d="M2554.18,204.59v119.97c0,4.16-4.5,6.76-8.1,4.68l-103.89-59.98c-3.6-2.08-3.6-7.27,0-9.35l103.89-59.98c3.6-2.08,8.1.52,8.1,4.68Z"/>
        <path class="cls-6" d="M1858.88,497.07l103.89,59.98c3.6,2.08,3.6,7.27,0,9.35l-103.89,59.98c-3.6,2.08-8.1-.52-8.1-4.68v-119.97c0-4.16,4.5-6.76,8.1-4.68Z"/>
        <path class="cls-16" d="M1858.88,458.01l103.89-59.98c3.6-2.08,8.1.52,8.1,4.68v119.97c0,4.16-4.5,6.76-8.1,4.68l-103.89-59.98c-3.6-2.08-3.6-7.27,0-9.35Z"/>
        <path class="cls-17" d="M1850.78,423.61v-119.97c0-4.16,4.5-6.75,8.1-4.68l103.89,59.98c3.6,2.08,3.6,7.27,0,9.35l-103.89,59.98c-3.6,2.08-8.1-.52-8.1-4.68Z"/>
        <path class="cls-17" d="M1825.05,501.75v119.97c0,4.16-4.5,6.76-8.1,4.68l-103.89-59.98c-3.6-2.08-3.6-7.27,0-9.35l103.89-59.98c3.6-2.08,8.1.52,8.1,4.68Z"/>
        <path class="cls-14" d="M2150.53,497.07l103.9,59.98c3.6,2.08,3.6,7.27,0,9.35l-103.89,59.98c-3.6,2.08-8.1-.52-8.1-4.68v-119.97c0-4.16,4.5-6.76,8.1-4.68Z"/>
        <path class="cls-16" d="M2150.53,458.01l103.89-59.98c3.6-2.08,8.1.52,8.1,4.68v119.97c0,4.16-4.5,6.76-8.1,4.68l-103.89-59.98c-3.6-2.08-3.6-7.27,0-9.35Z"/>
        <path class="cls-14" d="M2142.43,423.61v-119.97c0-4.16,4.5-6.75,8.1-4.68l103.9,59.98c3.6,2.08,3.6,7.27,0,9.35l-103.89,59.98c-3.6,2.08-8.1-.52-8.1-4.68Z"/>
        <path class="cls-6" d="M2108.6,428.29l-103.89-59.98c-3.6-2.08-3.6-7.27,0-9.35l103.89-59.98c3.6-2.08,8.1.52,8.1,4.68v119.97c0,4.16-4.5,6.76-8.1,4.68Z"/>
        <path class="cls-13" d="M2108.6,467.36l-103.89,59.98c-3.6,2.08-8.1-.52-8.1-4.68v-119.97c0-4.16,4.5-6.76,8.1-4.68l103.89,59.98c3.6,2.08,3.6,7.27,0,9.35Z"/>
        <path class="cls-17" d="M2116.7,501.75v119.97c0,4.16-4.5,6.76-8.1,4.68l-103.89-59.98c-3.6-2.08-3.6-7.27,0-9.35l103.89-59.98c3.6-2.08,8.1.52,8.1,4.68Z"/>
        <path class="cls-14" d="M2442.18,497.07l103.89,59.98c3.6,2.08,3.6,7.27,0,9.35l-103.89,59.98c-3.6,2.08-8.1-.52-8.1-4.68v-119.97c0-4.16,4.5-6.76,8.1-4.68Z"/>
        <path class="cls-6" d="M2442.18,458.01l103.89-59.98c3.6-2.08,8.1.52,8.1,4.68v119.97c0,4.16-4.5,6.76-8.1,4.68l-103.89-59.98c-3.6-2.08-3.6-7.27,0-9.35Z"/>
        <path class="cls-14" d="M2434.08,423.61v-119.97c0-4.16,4.5-6.75,8.1-4.68l103.89,59.98c3.6,2.08,3.6,7.27,0,9.35l-103.89,59.98c-3.6,2.08-8.1-.52-8.1-4.68Z"/>
        <path class="cls-2" d="M2400.25,428.29l-103.89-59.98c-3.6-2.08-3.6-7.27,0-9.35l103.89-59.98c3.6-2.08,8.1.52,8.1,4.68v119.97c0,4.16-4.5,6.76-8.1,4.68Z"/>
        <path class="cls-16" d="M2400.25,467.36l-103.89,59.98c-3.6,2.08-8.1-.52-8.1-4.68v-119.97c0-4.16,4.5-6.76,8.1-4.68l103.89,59.98c3.6,2.08,3.6,7.27,0,9.35Z"/>
        <path class="cls-13" d="M2408.35,501.75v119.97c0,4.16-4.5,6.76-8.1,4.68l-103.89-59.98c-3.6-2.08-3.6-7.27,0-9.35l103.89-59.98c3.6-2.08,8.1.52,8.1,4.68Z"/>
        <path class="cls-17" d="M2691.9,428.29l-103.89-59.98c-3.6-2.08-3.6-7.27,0-9.35l103.89-59.98c3.6-2.08,8.1.52,8.1,4.68v119.97c0,4.16-4.5,6.76-8.1,4.68Z"/>
        <path class="cls-17" d="M2691.9,467.36l-103.89,59.98c-3.6,2.08-8.1-.52-8.1-4.68v-119.97c0-4.16,4.5-6.76,8.1-4.68l103.89,59.98c3.6,2.08,3.6,7.27,0,9.35Z"/>
        <path class="cls-13" d="M2700,501.75v119.97c0,4.16-4.5,6.76-8.1,4.68l-103.89-59.98c-3.6-2.08-3.6-7.27,0-9.35l103.89-59.98c3.6-2.08,8.1.52,8.1,4.68Z"/>
        <path class="cls-17" d="M1713.06,794.21l103.89,59.98c3.6,2.08,3.6,7.27,0,9.35l-103.89,59.98c-3.6,2.08-8.1-.52-8.1-4.68v-119.97c0-4.16,4.5-6.76,8.1-4.68Z"/>
        <path class="cls-13" d="M1713.06,755.14l103.89-59.98c3.6-2.08,8.1.52,8.1,4.68v119.97c0,4.16-4.5,6.76-8.1,4.68l-103.89-59.98c-3.6-2.08-3.6-7.27,0-9.35Z"/>
        <path class="cls-12" d="M1704.96,720.75v-119.97c0-4.16,4.5-6.76,8.1-4.68l103.89,59.98c3.6,2.08,3.6,7.27,0,9.35l-103.89,59.98c-3.6,2.08-8.1-.52-8.1-4.68Z"/>
        <path class="cls-14" d="M1671.12,725.43l-103.89-59.98c-3.6-2.08-3.6-7.27,0-9.35l103.89-59.98c3.6-2.08,8.1.52,8.1,4.68v119.97c0,4.16-4.5,6.75-8.1,4.68Z"/>
        <path class="cls-17" d="M1679.22,798.89v119.97c0,4.16-4.5,6.76-8.1,4.68l-103.89-59.98c-3.6-2.08-3.6-7.27,0-9.35l103.89-59.98c3.6-2.08,8.1.52,8.1,4.68Z"/>
        <path class="cls-17" d="M2004.71,794.21l103.89,59.98c3.6,2.08,3.6,7.27,0,9.35l-103.89,59.98c-3.6,2.08-8.1-.52-8.1-4.68v-119.97c0-4.16,4.5-6.76,8.1-4.68Z"/>
        <path class="cls-16" d="M2004.71,755.14l103.89-59.98c3.6-2.08,8.1.52,8.1,4.68v119.97c0,4.16-4.5,6.76-8.1,4.68l-103.89-59.98c-3.6-2.08-3.6-7.27,0-9.35Z"/>
        <path class="cls-2" d="M1996.61,720.75v-119.97c0-4.16,4.5-6.76,8.1-4.68l103.89,59.98c3.6,2.08,3.6,7.27,0,9.35l-103.89,59.98c-3.6,2.08-8.1-.52-8.1-4.68Z"/>
        <path class="cls-2" d="M1962.77,725.43l-103.89-59.98c-3.6-2.08-3.6-7.27,0-9.35l103.89-59.98c3.6-2.08,8.1.52,8.1,4.68v119.97c0,4.16-4.5,6.75-8.1,4.68Z"/>
        <path class="cls-13" d="M1962.77,764.49l-103.89,59.98c-3.6,2.08-8.1-.52-8.1-4.68v-119.97c0-4.16,4.5-6.76,8.1-4.68l103.89,59.98c3.6,2.08,3.6,7.27,0,9.35Z"/>
        <path class="cls-16" d="M1970.87,798.89v119.97c0,4.16-4.5,6.76-8.1,4.68l-103.89-59.98c-3.6-2.08-3.6-7.27,0-9.35l103.89-59.98c3.6-2.08,8.1.52,8.1,4.68Z"/>
        <path class="cls-13" d="M2296.36,794.21l103.89,59.98c3.6,2.08,3.6,7.27,0,9.35l-103.89,59.98c-3.6,2.08-8.1-.52-8.1-4.68v-119.97c0-4.16,4.5-6.76,8.1-4.68Z"/>
        <path class="cls-16" d="M2296.36,755.14l103.89-59.98c3.6-2.08,8.1.52,8.1,4.68v119.97c0,4.16-4.5,6.76-8.1,4.68l-103.89-59.98c-3.6-2.08-3.6-7.27,0-9.35Z"/>
        <path class="cls-2" d="M2288.26,720.75v-119.97c0-4.16,4.5-6.76,8.1-4.68l103.89,59.98c3.6,2.08,3.6,7.27,0,9.35l-103.89,59.98c-3.6,2.08-8.1-.52-8.1-4.68Z"/>
        <path class="cls-6" d="M2254.43,725.43l-103.89-59.98c-3.6-2.08-3.6-7.27,0-9.35l103.89-59.98c3.6-2.08,8.1.52,8.1,4.68v119.97c0,4.16-4.5,6.75-8.1,4.68Z"/>
        <path class="cls-17" d="M2254.43,764.49l-103.89,59.98c-3.6,2.08-8.1-.52-8.1-4.68v-119.97c0-4.16,4.5-6.76,8.1-4.68l103.89,59.98c3.6,2.08,3.6,7.27,0,9.35Z"/>
        <path class="cls-2" d="M2262.53,798.89v119.97c0,4.16-4.5,6.76-8.1,4.68l-103.89-59.98c-3.6-2.08-3.6-7.27,0-9.35l103.89-59.98c3.6-2.08,8.1.52,8.1,4.68Z"/>
        <path class="cls-2" d="M2588.01,794.21l103.89,59.98c3.6,2.08,3.6,7.27,0,9.35l-103.89,59.98c-3.6,2.08-8.1-.52-8.1-4.68v-119.97c0-4.16,4.5-6.76,8.1-4.68Z"/>
        <path class="cls-12" d="M2588.01,755.14l103.89-59.98c3.6-2.08,8.1.52,8.1,4.68v119.97c0,4.16-4.5,6.76-8.1,4.68l-103.89-59.98c-3.6-2.08-3.6-7.27,0-9.35Z"/>
        <path class="cls-16" d="M2579.91,720.75v-119.97c0-4.16,4.5-6.76,8.1-4.68l103.89,59.98c3.6,2.08,3.6,7.27,0,9.35l-103.89,59.98c-3.6,2.08-8.1-.52-8.1-4.68Z"/>
        <path class="cls-17" d="M2546.08,725.43l-103.89-59.98c-3.6-2.08-3.6-7.27,0-9.35l103.89-59.98c3.6-2.08,8.1.52,8.1,4.68v119.97c0,4.16-4.5,6.75-8.1,4.68Z"/>
        <path class="cls-17" d="M2546.08,764.49l-103.89,59.98c-3.6,2.08-8.1-.52-8.1-4.68v-119.97c0-4.16,4.5-6.76,8.1-4.68l103.89,59.98c3.6,2.08,3.6,7.27,0,9.35Z"/>
        <path class="cls-14" d="M2554.18,798.89v119.97c0,4.16-4.5,6.76-8.1,4.68l-103.89-59.98c-3.6-2.08-3.6-7.27,0-9.35l103.89-59.98c3.6-2.08,8.1.52,8.1,4.68Z"/>
        <path class="cls-2" d="M1567.23,1052.3l103.89-59.98c3.6-2.08,8.1.52,8.1,4.68v119.97c0,4.16-4.5,6.76-8.1,4.68l-103.89-59.98c-3.6-2.08-3.6-7.27,0-9.35Z"/>
        <path class="cls-17" d="M1858.88,1091.37l103.89,59.98c3.6,2.08,3.6,7.27,0,9.35l-103.89,59.98c-3.6,2.08-8.1-.52-8.1-4.68v-119.97c0-4.16,4.5-6.76,8.1-4.68Z"/>
        <path class="cls-16" d="M1567.23,893.26l103.89,59.98c3.6,2.08,3.6,7.27,0,9.35l-103.89,59.98c-3.6,2.08-8.1-.52-8.1-4.68v-119.97c0-4.16,4.5-6.76,8.1-4.68Z"/>
        <path class="cls-16" d="M1858.88,1052.3l103.89-59.98c3.6-2.08,8.1.52,8.1,4.68v119.97c0,4.16-4.5,6.76-8.1,4.68l-103.89-59.98c-3.6-2.08-3.6-7.27,0-9.35Z"/>
        <path class="cls-12" d="M1850.78,1017.91v-119.97c0-4.16,4.5-6.76,8.1-4.68l103.89,59.98c3.6,2.08,3.6,7.27,0,9.35l-103.89,59.98c-3.6,2.08-8.1-.52-8.1-4.68Z"/>
        <path class="cls-13" d="M1816.95,1022.58l-103.89-59.98c-3.6-2.08-3.6-7.27,0-9.35l103.89-59.98c3.6-2.08,8.1.52,8.1,4.68v119.97c0,4.16-4.5,6.76-8.1,4.68Z"/>
        <path class="cls-13" d="M1816.95,1061.65l-103.89,59.98c-3.6,2.08-8.1-.52-8.1-4.68v-119.97c0-4.16,4.5-6.76,8.1-4.68l103.89,59.98c3.6,2.08,3.6,7.27,0,9.35Z"/>
        <path class="cls-17" d="M1825.05,1096.04v119.97c0,4.16-4.5,6.75-8.1,4.68l-103.89-59.98c-3.6-2.08-3.6-7.27,0-9.35l103.89-59.98c3.6-2.08,8.1.52,8.1,4.68Z"/>
        <path class="cls-16" d="M2150.53,1091.37l103.9,59.98c3.6,2.08,3.6,7.27,0,9.35l-103.89,59.98c-3.6,2.08-8.1-.52-8.1-4.68v-119.97c0-4.16,4.5-6.76,8.1-4.68Z"/>
        <path class="cls-13" d="M2150.53,1052.3l103.89-59.98c3.6-2.08,8.1.52,8.1,4.68v119.97c0,4.16-4.5,6.76-8.1,4.68l-103.89-59.98c-3.6-2.08-3.6-7.27,0-9.35Z"/>
        <path class="cls-14" d="M2142.43,1017.91v-119.97c0-4.16,4.5-6.76,8.1-4.68l103.89,59.98c3.6,2.08,3.6,7.27,0,9.35l-103.9,59.98c-3.6,2.08-8.1-.52-8.1-4.68Z"/>
        <path class="cls-14" d="M2108.6,1022.58l-103.89-59.98c-3.6-2.08-3.6-7.27,0-9.35l103.89-59.98c3.6-2.08,8.1.52,8.1,4.68v119.97c0,4.16-4.5,6.76-8.1,4.68Z"/>
        <path class="cls-17" d="M2108.6,1061.65l-103.89,59.98c-3.6,2.08-8.1-.52-8.1-4.68v-119.97c0-4.16,4.5-6.76,8.1-4.68l103.89,59.98c3.6,2.08,3.6,7.27,0,9.35Z"/>
        <path class="cls-17" d="M2116.7,1096.04v119.97c0,4.16-4.5,6.75-8.1,4.68l-103.89-59.98c-3.6-2.08-3.6-7.27,0-9.35l103.89-59.98c3.6-2.08,8.1.52,8.1,4.68Z"/>
        <path class="cls-17" d="M2442.18,1091.37l103.89,59.98c3.6,2.08,3.6,7.27,0,9.35l-103.89,59.98c-3.6,2.08-8.1-.52-8.1-4.68v-119.97c0-4.16,4.5-6.76,8.1-4.68Z"/>
        <path class="cls-2" d="M2442.18,1052.3l103.89-59.98c3.6-2.08,8.1.52,8.1,4.68v119.97c0,4.16-4.5,6.76-8.1,4.68l-103.89-59.98c-3.6-2.08-3.6-7.27,0-9.35Z"/>
        <path class="cls-14" d="M2434.08,1017.91v-119.97c0-4.16,4.5-6.76,8.1-4.68l103.89,59.98c3.6,2.08,3.6,7.27,0,9.35l-103.89,59.98c-3.6,2.08-8.1-.52-8.1-4.68Z"/>
        <path class="cls-16" d="M2400.25,1022.58l-103.89-59.98c-3.6-2.08-3.6-7.27,0-9.35l103.89-59.98c3.6-2.08,8.1.52,8.1,4.68v119.97c0,4.16-4.5,6.76-8.1,4.68Z"/>
        <path class="cls-13" d="M2400.25,1061.65l-103.89,59.98c-3.6,2.08-8.1-.52-8.1-4.68v-119.97c0-4.16,4.5-6.76,8.1-4.68l103.89,59.98c3.6,2.08,3.6,7.27,0,9.35Z"/>
        <path class="cls-17" d="M2408.35,1096.04v119.97c0,4.16-4.5,6.75-8.1,4.68l-103.89-59.98c-3.6-2.08-3.6-7.27,0-9.35l103.89-59.98c3.6-2.08,8.1.52,8.1,4.68Z"/>
        <path class="cls-17" d="M2691.9,1022.58l-103.89-59.98c-3.6-2.08-3.6-7.27,0-9.35l103.89-59.98c3.6-2.08,8.1.52,8.1,4.68v119.97c0,4.16-4.5,6.76-8.1,4.68Z"/>
        <path class="cls-13" d="M2691.9,1061.65l-103.89,59.98c-3.6,2.08-8.1-.52-8.1-4.68v-119.97c0-4.16,4.5-6.76,8.1-4.68l103.89,59.98c3.6,2.08,3.6,7.27,0,9.35Z"/>
        <path class="cls-17" d="M2700,1096.04v119.97c0,4.16-4.5,6.75-8.1,4.68l-103.89-59.98c-3.6-2.08-3.6-7.27,0-9.35l103.89-59.98c3.6-2.08,8.1.52,8.1,4.68Z"/>
        <path class="cls-14" d="M1713.06,1388.53l103.89,59.98c3.6,2.08,3.6,7.27,0,9.35l-103.89,59.98c-3.6,2.08-8.1-.52-8.1-4.68v-119.97c0-4.16,4.5-6.75,8.1-4.68Z"/>
        <path class="cls-13" d="M1679.22,1393.2v119.97c0,4.16-4.5,6.75-8.1,4.68l-103.89-59.98c-3.6-2.08-3.6-7.27,0-9.35l103.89-59.98c3.6-2.08,8.1.52,8.1,4.68Z"/>
        <path class="cls-16" d="M2004.71,1388.53l103.89,59.98c3.6,2.08,3.6,7.27,0,9.35l-103.89,59.98c-3.6,2.08-8.1-.52-8.1-4.68v-119.97c0-4.16,4.5-6.75,8.1-4.68Z"/>
        <path class="cls-13" d="M2004.71,1349.46l103.89-59.98c3.6-2.08,8.1.52,8.1,4.68v119.97c0,4.16-4.5,6.75-8.1,4.68l-103.89-59.98c-3.6-2.08-3.6-7.27,0-9.35Z"/>
        <path class="cls-2" d="M1996.61,1315.06v-119.97c0-4.16,4.5-6.76,8.1-4.68l103.89,59.98c3.6,2.08,3.6,7.27,0,9.35l-103.89,59.98c-3.6,2.08-8.1-.52-8.1-4.68Z"/>
        <path class="cls-13" d="M1962.77,1319.74l-103.89-59.98c-3.6-2.08-3.6-7.27,0-9.35l103.89-59.98c3.6-2.08,8.1.52,8.1,4.68v119.97c0,4.16-4.5,6.75-8.1,4.68Z"/>
        <path class="cls-6" d="M1962.77,1358.81l-103.89,59.98c-3.6,2.08-8.1-.52-8.1-4.68v-119.97c0-4.16,4.5-6.75,8.1-4.68l103.89,59.98c3.6,2.08,3.6,7.27,0,9.35Z"/>
        <path class="cls-2" d="M1970.87,1393.2v119.97c0,4.16-4.5,6.75-8.1,4.68l-103.89-59.98c-3.6-2.08-3.6-7.27,0-9.35l103.89-59.98c3.6-2.08,8.1.52,8.1,4.68Z"/>
        <path class="cls-13" d="M2296.36,1388.53l103.89,59.98c3.6,2.08,3.6,7.27,0,9.35l-103.89,59.98c-3.6,2.08-8.1-.52-8.1-4.68v-119.97c0-4.16,4.5-6.75,8.1-4.68Z"/>
        <path class="cls-2" d="M2296.36,1349.46l103.89-59.98c3.6-2.08,8.1.52,8.1,4.68v119.97c0,4.16-4.5,6.75-8.1,4.68l-103.89-59.98c-3.6-2.08-3.6-7.27,0-9.35Z"/>
        <path class="cls-14" d="M2288.26,1315.06v-119.97c0-4.16,4.5-6.76,8.1-4.68l103.89,59.98c3.6,2.08,3.6,7.27,0,9.35l-103.89,59.98c-3.6,2.08-8.1-.52-8.1-4.68Z"/>
        <path class="cls-2" d="M2254.43,1319.74l-103.89-59.98c-3.6-2.08-3.6-7.27,0-9.35l103.89-59.98c3.6-2.08,8.1.52,8.1,4.68v119.97c0,4.16-4.5,6.75-8.1,4.68Z"/>
        <path class="cls-14" d="M2254.43,1358.81l-103.89,59.98c-3.6,2.08-8.1-.52-8.1-4.68v-119.97c0-4.16,4.5-6.75,8.1-4.68l103.89,59.98c3.6,2.08,3.6,7.27,0,9.35Z"/>
        <path class="cls-13" d="M2262.53,1393.2v119.97c0,4.16-4.5,6.75-8.1,4.68l-103.89-59.98c-3.6-2.08-3.6-7.27,0-9.35l103.89-59.98c3.6-2.08,8.1.52,8.1,4.68Z"/>
        <path class="cls-14" d="M2588.01,1388.53l103.89,59.98c3.6,2.08,3.6,7.27,0,9.35l-103.89,59.98c-3.6,2.08-8.1-.52-8.1-4.68v-119.97c0-4.16,4.5-6.75,8.1-4.68Z"/>
        <path class="cls-12" d="M2588.01,1349.46l103.89-59.98c3.6-2.08,8.1.52,8.1,4.68v119.97c0,4.16-4.5,6.75-8.1,4.68l-103.89-59.98c-3.6-2.08-3.6-7.27,0-9.35Z"/>
        <path class="cls-2" d="M2579.91,1315.06v-119.97c0-4.16,4.5-6.76,8.1-4.68l103.89,59.98c3.6,2.08,3.6,7.27,0,9.35l-103.89,59.98c-3.6,2.08-8.1-.52-8.1-4.68Z"/>
        <path class="cls-16" d="M2546.08,1319.74l-103.89-59.98c-3.6-2.08-3.6-7.27,0-9.35l103.89-59.98c3.6-2.08,8.1.52,8.1,4.68v119.97c0,4.16-4.5,6.75-8.1,4.68Z"/>
        <path class="cls-16" d="M2546.08,1358.81l-103.89,59.98c-3.6,2.08-8.1-.52-8.1-4.68v-119.97c0-4.16,4.5-6.75,8.1-4.68l103.89,59.98c3.6,2.08,3.6,7.27,0,9.35Z"/>
        <path class="cls-14" d="M2554.18,1393.2v119.97c0,4.16-4.5,6.75-8.1,4.68l-103.89-59.98c-3.6-2.08-3.6-7.27,0-9.35l103.89-59.98c3.6-2.08,8.1.52,8.1,4.68Z"/>
        <path class="cls-17" d="M1567.23,1646.61l103.89-59.98c3.6-2.08,8.1.52,8.1,4.68v119.97c0,4.16-4.5,6.76-8.1,4.68l-103.89-59.98c-3.6-2.08-3.6-7.27,0-9.35Z"/>
        <path class="cls-13" d="M1559.13,1612.22v-119.97c0-4.16,4.5-6.75,8.1-4.68l103.89,59.98c3.6,2.08,3.6,7.27,0,9.35l-103.89,59.98c-3.6,2.08-8.1-.52-8.1-4.68Z"/>
        <path class="cls-6" d="M1858.88,1685.68l103.89,59.98c3.6,2.08,3.6,7.27,0,9.35l-103.89,59.98c-3.6,2.08-8.1-.52-8.1-4.68v-119.97c0-4.16,4.5-6.76,8.1-4.68Z"/>
        <path class="cls-14" d="M1858.88,1646.61l103.89-59.98c3.6-2.08,8.1.52,8.1,4.68v119.97c0,4.16-4.5,6.76-8.1,4.68l-103.89-59.98c-3.6-2.08-3.6-7.27,0-9.35Z"/>
        <path class="cls-16" d="M1850.78,1612.22v-119.97c0-4.16,4.5-6.75,8.1-4.68l103.89,59.98c3.6,2.08,3.6,7.27,0,9.35l-103.89,59.98c-3.6,2.08-8.1-.52-8.1-4.68Z"/>
        <path class="cls-6" d="M1816.95,1616.9l-103.89-59.98c-3.6-2.08-3.6-7.27,0-9.35l103.89-59.98c3.6-2.08,8.1.52,8.1,4.68v119.97c0,4.16-4.5,6.75-8.1,4.68Z"/>
        <path class="cls-12" d="M1816.95,1655.97l-103.89,59.98c-3.6,2.08-8.1-.52-8.1-4.68v-119.97c0-4.16,4.5-6.76,8.1-4.68l103.9,59.98c3.6,2.08,3.6,7.27,0,9.35Z"/>
        <path class="cls-16" d="M1825.05,1690.36v119.97c0,4.16-4.5,6.76-8.1,4.68l-103.89-59.98c-3.6-2.08-3.6-7.27,0-9.35l103.89-59.98c3.6-2.08,8.1.52,8.1,4.68Z"/>
        <path class="cls-6" d="M2150.53,1685.68l103.89,59.98c3.6,2.08,3.6,7.27,0,9.35l-103.9,59.98c-3.6,2.08-8.1-.52-8.1-4.68v-119.97c0-4.16,4.5-6.76,8.1-4.68Z"/>
        <path class="cls-17" d="M2150.53,1646.61l103.89-59.98c3.6-2.08,8.1.52,8.1,4.68v119.97c0,4.16-4.5,6.76-8.1,4.68l-103.89-59.98c-3.6-2.08-3.6-7.27,0-9.35Z"/>
        <path class="cls-17" d="M2142.43,1612.22v-119.97c0-4.16,4.5-6.75,8.1-4.68l103.89,59.98c3.6,2.08,3.6,7.27,0,9.35l-103.9,59.98c-3.6,2.08-8.1-.52-8.1-4.68Z"/>
        <path class="cls-2" d="M2108.6,1616.9l-103.89-59.98c-3.6-2.08-3.6-7.27,0-9.35l103.89-59.98c3.6-2.08,8.1.52,8.1,4.68v119.97c0,4.16-4.5,6.75-8.1,4.68Z"/>
        <path class="cls-13" d="M2108.6,1655.97l-103.89,59.98c-3.6,2.08-8.1-.52-8.1-4.68v-119.97c0-4.16,4.5-6.76,8.1-4.68l103.89,59.98c3.6,2.08,3.6,7.27,0,9.35Z"/>
        <path class="cls-2" d="M2116.7,1690.36v119.97c0,4.16-4.5,6.76-8.1,4.68l-103.89-59.98c-3.6-2.08-3.6-7.27,0-9.35l103.89-59.98c3.6-2.08,8.1.52,8.1,4.68Z"/>
        <path class="cls-16" d="M2442.18,1685.68l103.89,59.98c3.6,2.08,3.6,7.27,0,9.35l-103.89,59.98c-3.6,2.08-8.1-.52-8.1-4.68v-119.97c0-4.16,4.5-6.76,8.1-4.68Z"/>
        <path class="cls-17" d="M2442.18,1646.61l103.89-59.98c3.6-2.08,8.1.52,8.1,4.68v119.97c0,4.16-4.5,6.76-8.1,4.68l-103.89-59.98c-3.6-2.08-3.6-7.27,0-9.35Z"/>
        <path class="cls-17" d="M2434.08,1612.22v-119.97c0-4.16,4.5-6.75,8.1-4.68l103.89,59.98c3.6,2.08,3.6,7.27,0,9.35l-103.89,59.98c-3.6,2.08-8.1-.52-8.1-4.68Z"/>
        <path class="cls-16" d="M2400.25,1616.9l-103.89-59.98c-3.6-2.08-3.6-7.27,0-9.35l103.89-59.98c3.6-2.08,8.1.52,8.1,4.68v119.97c0,4.16-4.5,6.75-8.1,4.68Z"/>
        <path class="cls-2" d="M2400.25,1655.97l-103.89,59.98c-3.6,2.08-8.1-.52-8.1-4.68v-119.97c0-4.16,4.5-6.76,8.1-4.68l103.89,59.98c3.6,2.08,3.6,7.27,0,9.35Z"/>
        <path class="cls-6" d="M2408.35,1690.36v119.97c0,4.16-4.5,6.76-8.1,4.68l-103.89-59.98c-3.6-2.08-3.6-7.27,0-9.35l103.89-59.98c3.6-2.08,8.1.52,8.1,4.68Z"/>
        <path class="cls-17" d="M2691.9,1616.9l-103.89-59.98c-3.6-2.08-3.6-7.27,0-9.35l103.89-59.98c3.6-2.08,8.1.52,8.1,4.68v119.97c0,4.16-4.5,6.75-8.1,4.68Z"/>
        <path class="cls-2" d="M2691.9,1655.97l-103.89,59.98c-3.6,2.08-8.1-.52-8.1-4.68v-119.97c0-4.16,4.5-6.76,8.1-4.68l103.89,59.98c3.6,2.08,3.6,7.27,0,9.35Z"/>
        <path class="cls-14" d="M2700,1690.36v119.97c0,4.16-4.5,6.76-8.1,4.68l-103.89-59.98c-3.6-2.08-3.6-7.27,0-9.35l103.89-59.98c3.6-2.08,8.1.52,8.1,4.68Z"/>
        <path class="cls-16" d="M1713.06,1982.82l103.89,59.98c3.6,2.08,3.6,7.27,0,9.35l-103.89,59.98c-3.6,2.08-8.1-.52-8.1-4.68v-119.97c0-4.16,4.5-6.76,8.1-4.68Z"/>
        <path class="cls-17" d="M1713.06,1943.75l103.89-59.98c3.6-2.08,8.1.52,8.1,4.68v119.97c0,4.16-4.5,6.76-8.1,4.68l-103.89-59.98c-3.6-2.08-3.6-7.27,0-9.35Z"/>
        <path class="cls-13" d="M1704.96,1909.36v-119.97c0-4.16,4.5-6.75,8.1-4.68l103.89,59.98c3.6,2.08,3.6,7.27,0,9.35l-103.89,59.98c-3.6,2.08-8.1-.52-8.1-4.68Z"/>
        <path class="cls-13" d="M1671.12,1914.04l-103.89-59.98c-3.6-2.08-3.6-7.27,0-9.35l103.89-59.98c3.6-2.08,8.1.52,8.1,4.68v119.97c0,4.16-4.5,6.75-8.1,4.68Z"/>
        <path class="cls-16" d="M1671.12,1953.1l-103.89,59.98c-3.6,2.08-8.1-.52-8.1-4.68v-119.97c0-4.16,4.5-6.75,8.1-4.68l103.89,59.98c3.6,2.08,3.6,7.27,0,9.35Z"/>
        <path class="cls-2" d="M1679.22,1987.5v119.97c0,4.16-4.5,6.76-8.1,4.68l-103.89-59.98c-3.6-2.08-3.6-7.27,0-9.35l103.89-59.98c3.6-2.08,8.1.52,8.1,4.68Z"/>
        <path class="cls-6" d="M2004.71,1982.82l103.89,59.98c3.6,2.08,3.6,7.27,0,9.35l-103.89,59.98c-3.6,2.08-8.1-.52-8.1-4.68v-119.97c0-4.16,4.5-6.76,8.1-4.68Z"/>
        <path class="cls-14" d="M2004.71,1943.75l103.89-59.98c3.6-2.08,8.1.52,8.1,4.68v119.97c0,4.16-4.5,6.76-8.1,4.68l-103.89-59.98c-3.6-2.08-3.6-7.27,0-9.35Z"/>
        <path class="cls-2" d="M1996.61,1909.36v-119.97c0-4.16,4.5-6.75,8.1-4.68l103.89,59.98c3.6,2.08,3.6,7.27,0,9.35l-103.89,59.98c-3.6,2.08-8.1-.52-8.1-4.68Z"/>
        <path class="cls-17" d="M1962.77,1914.04l-103.89-59.98c-3.6-2.08-3.6-7.27,0-9.35l103.89-59.98c3.6-2.08,8.1.52,8.1,4.68v119.97c0,4.16-4.5,6.75-8.1,4.68Z"/>
        <path class="cls-12" d="M1962.77,1953.1l-103.89,59.98c-3.6,2.08-8.1-.52-8.1-4.68v-119.97c0-4.16,4.5-6.75,8.1-4.68l103.89,59.98c3.6,2.08,3.6,7.27,0,9.35Z"/>
        <path class="cls-13" d="M1970.87,1987.5v119.97c0,4.16-4.5,6.76-8.1,4.68l-103.89-59.98c-3.6-2.08-3.6-7.27,0-9.35l103.89-59.98c3.6-2.08,8.1.52,8.1,4.68Z"/>
        <path class="cls-6" d="M2296.36,1982.82l103.89,59.98c3.6,2.08,3.6,7.27,0,9.35l-103.89,59.98c-3.6,2.08-8.1-.52-8.1-4.68v-119.97c0-4.16,4.5-6.76,8.1-4.68Z"/>
        <path class="cls-17" d="M2296.36,1943.75l103.89-59.98c3.6-2.08,8.1.52,8.1,4.68v119.97c0,4.16-4.5,6.76-8.1,4.68l-103.89-59.98c-3.6-2.08-3.6-7.27,0-9.35Z"/>
        <path class="cls-14" d="M2288.26,1909.36v-119.97c0-4.16,4.5-6.75,8.1-4.68l103.89,59.98c3.6,2.08,3.6,7.27,0,9.35l-103.89,59.98c-3.6,2.08-8.1-.52-8.1-4.68Z"/>
        <path class="cls-14" d="M2254.43,1914.04l-103.89-59.98c-3.6-2.08-3.6-7.27,0-9.35l103.89-59.98c3.6-2.08,8.1.52,8.1,4.68v119.97c0,4.16-4.5,6.75-8.1,4.68Z"/>
        <path class="cls-2" d="M2254.43,1953.1l-103.89,59.98c-3.6,2.08-8.1-.52-8.1-4.68v-119.97c0-4.16,4.5-6.75,8.1-4.68l103.89,59.98c3.6,2.08,3.6,7.27,0,9.35Z"/>
        <path class="cls-16" d="M2262.53,1987.5v119.97c0,4.16-4.5,6.76-8.1,4.68l-103.89-59.98c-3.6-2.08-3.6-7.27,0-9.35l103.89-59.98c3.6-2.08,8.1.52,8.1,4.68Z"/>
        <path class="cls-6" d="M2588.01,1982.82l103.89,59.98c3.6,2.08,3.6,7.27,0,9.35l-103.89,59.98c-3.6,2.08-8.1-.52-8.1-4.68v-119.97c0-4.16,4.5-6.76,8.1-4.68Z"/>
        <path class="cls-17" d="M2588.01,1943.75l103.89-59.98c3.6-2.08,8.1.52,8.1,4.68v119.97c0,4.16-4.5,6.76-8.1,4.68l-103.89-59.98c-3.6-2.08-3.6-7.27,0-9.35Z"/>
        <path class="cls-16" d="M2579.91,1909.36v-119.97c0-4.16,4.5-6.75,8.1-4.68l103.89,59.98c3.6,2.08,3.6,7.27,0,9.35l-103.89,59.98c-3.6,2.08-8.1-.52-8.1-4.68Z"/>
        <path class="cls-2" d="M2546.08,1914.04l-103.89-59.98c-3.6-2.08-3.6-7.27,0-9.35l103.89-59.98c3.6-2.08,8.1.52,8.1,4.68v119.97c0,4.16-4.5,6.75-8.1,4.68Z"/>
        <path class="cls-17" d="M2546.08,1953.1l-103.89,59.98c-3.6,2.08-8.1-.52-8.1-4.68v-119.97c0-4.16,4.5-6.75,8.1-4.68l103.89,59.98c3.6,2.08,3.6,7.27,0,9.35Z"/>
        <path class="cls-13" d="M2554.18,1987.5v119.97c0,4.16-4.5,6.76-8.1,4.68l-103.89-59.98c-3.6-2.08-3.6-7.27,0-9.35l103.89-59.98c3.6-2.08,8.1.52,8.1,4.68Z"/>
        <path class="cls-6" d="M1567.23,2279.98l103.89,59.98c3.6,2.08,3.6,7.27,0,9.35l-103.89,59.98c-3.6,2.08-8.1-.52-8.1-4.68v-119.97c0-4.16,4.5-6.76,8.1-4.68Z"/>
        <path class="cls-16" d="M1567.23,2240.91l103.89-59.98c3.6-2.08,8.1.52,8.1,4.68v119.97c0,4.16-4.5,6.75-8.1,4.68l-103.89-59.98c-3.6-2.08-3.6-7.27,0-9.35Z"/>
        <path class="cls-14" d="M1559.13,2206.52v-119.97c0-4.16,4.5-6.75,8.1-4.68l103.89,59.98c3.6,2.08,3.6,7.27,0,9.35l-103.89,59.98c-3.6,2.08-8.1-.52-8.1-4.68Z"/>
        <path class="cls-6" d="M1525.29,2211.19l-103.89-59.98c-3.6-2.08-3.6-7.27,0-9.35l103.89-59.98c3.6-2.08,8.1.52,8.1,4.68v119.97c0,4.16-4.5,6.75-8.1,4.68Z"/>
        <path class="cls-16" d="M1525.29,2250.26l-103.89,59.98c-3.6,2.08-8.1-.52-8.1-4.68v-119.97c0-4.16,4.5-6.75,8.1-4.68l103.9,59.98c3.6,2.08,3.6,7.27,0,9.35Z"/>
        <path class="cls-16" d="M1533.39,2284.65v119.97c0,4.16-4.5,6.75-8.1,4.68l-103.89-59.98c-3.6-2.08-3.6-7.27,0-9.35l103.89-59.98c3.6-2.08,8.1.52,8.1,4.68Z"/>
        <path class="cls-6" d="M1858.88,2279.98l103.89,59.98c3.6,2.08,3.6,7.27,0,9.35l-103.89,59.98c-3.6,2.08-8.1-.52-8.1-4.68v-119.97c0-4.16,4.5-6.76,8.1-4.68Z"/>
        <path class="cls-16" d="M1858.88,2240.91l103.89-59.98c3.6-2.08,8.1.52,8.1,4.68v119.97c0,4.16-4.5,6.75-8.1,4.68l-103.89-59.98c-3.6-2.08-3.6-7.27,0-9.35Z"/>
        <path class="cls-16" d="M1850.78,2206.52v-119.97c0-4.16,4.5-6.75,8.1-4.68l103.89,59.98c3.6,2.08,3.6,7.27,0,9.35l-103.89,59.98c-3.6,2.08-8.1-.52-8.1-4.68Z"/>
        <path class="cls-17" d="M1816.95,2211.19l-103.89-59.98c-3.6-2.08-3.6-7.27,0-9.35l103.89-59.98c3.6-2.08,8.1.52,8.1,4.68v119.97c0,4.16-4.5,6.75-8.1,4.68Z"/>
        <path class="cls-16" d="M1816.95,2250.26l-103.89,59.98c-3.6,2.08-8.1-.52-8.1-4.68v-119.97c0-4.16,4.5-6.75,8.1-4.68l103.9,59.98c3.6,2.08,3.6,7.27,0,9.35Z"/>
        <path class="cls-16" d="M1825.05,2284.65v119.97c0,4.16-4.5,6.75-8.1,4.68l-103.89-59.98c-3.6-2.08-3.6-7.27,0-9.35l103.89-59.98c3.6-2.08,8.1.52,8.1,4.68Z"/>
        <path class="cls-14" d="M1421.4,1586.61l103.9,59.98c3.6,2.08,3.6,7.27,0,9.35l-103.89,59.98c-3.6,2.08-8.1-.52-8.1-4.68v-119.97c0-4.16,4.5-6.76,8.1-4.68Z"/>
        <path class="cls-13" d="M1421.4,1547.54l103.89-59.98c3.6-2.08,8.1.52,8.1,4.68v119.97c0,4.16-4.5,6.75-8.1,4.68l-103.89-59.98c-3.6-2.08-3.6-7.27,0-9.35Z"/>
        <path class="cls-14" d="M1413.3,1513.15v-119.97c0-4.16,4.5-6.75,8.1-4.68l103.9,59.98c3.6,2.08,3.6,7.27,0,9.35l-103.89,59.98c-3.6,2.08-8.1-.52-8.1-4.68Z"/>
        <path class="cls-14" d="M1379.47,1517.82l-103.89-59.98c-3.6-2.08-3.6-7.27,0-9.35l103.89-59.98c3.6-2.08,8.1.52,8.1,4.68v119.97c0,4.16-4.5,6.76-8.1,4.68Z"/>
        <path class="cls-16" d="M1379.47,1556.89l-103.89,59.98c-3.6,2.08-8.1-.52-8.1-4.68v-119.97c0-4.16,4.5-6.75,8.1-4.68l103.89,59.98c3.6,2.08,3.6,7.27,0,9.35Z"/>
        <path class="cls-2" d="M1387.57,1591.29v119.97c0,4.16-4.5,6.76-8.1,4.68l-103.89-59.98c-3.6-2.08-3.6-7.27,0-9.35l103.89-59.98c3.6-2.08,8.1.52,8.1,4.68Z"/>
        <path class="cls-6" d="M1275.57,1883.77l103.89,59.98c3.6,2.08,3.6,7.27,0,9.35l-103.89,59.98c-3.6,2.08-8.1-.52-8.1-4.68v-119.97c0-4.16,4.5-6.75,8.1-4.68Z"/>
        <path class="cls-16" d="M1275.57,1844.7l103.89-59.98c3.6-2.08,8.1.52,8.1,4.68v119.97c0,4.16-4.5,6.75-8.1,4.68l-103.89-59.98c-3.6-2.08-3.6-7.27,0-9.35Z"/>
        <path class="cls-13" d="M1267.47,1810.31v-119.97c0-4.16,4.5-6.76,8.1-4.68l103.89,59.98c3.6,2.08,3.6,7.27,0,9.35l-103.89,59.98c-3.6,2.08-8.1-.52-8.1-4.68Z"/>
        <path class="cls-14" d="M1233.64,1815l-103.89-59.98c-3.6-2.08-3.6-7.27,0-9.35l103.89-59.98c3.6-2.08,8.1.52,8.1,4.68v119.97c0,4.16-4.5,6.76-8.1,4.68Z"/>
        <path class="cls-17" d="M1233.64,1854.07l-103.89,59.98c-3.6,2.08-8.1-.52-8.1-4.68v-119.97c0-4.16,4.5-6.75,8.1-4.68l103.89,59.98c3.6,2.08,3.6,7.27,0,9.35Z"/>
        <path class="cls-2" d="M1241.74,1888.46v119.97c0,4.16-4.5,6.76-8.1,4.68l-103.89-59.98c-3.6-2.08-3.6-7.27,0-9.35l103.89-59.98c3.6-2.08,8.1.52,8.1,4.68Z"/>
        <path class="cls-14" d="M1525.29,1814.98l-103.89-59.98c-3.6-2.08-3.6-7.27,0-9.35l103.89-59.98c3.6-2.08,8.1.52,8.1,4.68v119.97c0,4.16-4.5,6.75-8.1,4.68Z"/>
        <path class="cls-16" d="M1525.29,1854.05l-103.89,59.98c-3.6,2.08-8.1-.52-8.1-4.68v-119.97c0-4.16,4.5-6.76,8.1-4.68l103.89,59.98c3.6,2.08,3.6,7.27,0,9.35Z"/>
        <path class="cls-14" d="M1533.39,1888.44v119.97c0,4.16-4.5,6.76-8.1,4.68l-103.89-59.98c-3.6-2.08-3.6-7.27,0-9.35l103.89-59.98c3.6-2.08,8.1.52,8.1,4.68Z"/>
        <path class="cls-6" d="M2150.53,2279.98l103.89,59.98c3.6,2.08,3.6,7.27,0,9.35l-103.9,59.98c-3.6,2.08-8.1-.52-8.1-4.68v-119.97c0-4.16,4.5-6.76,8.1-4.68Z"/>
        <path class="cls-16" d="M2150.53,2240.91l103.89-59.98c3.6-2.08,8.1.52,8.1,4.68v119.97c0,4.16-4.5,6.75-8.1,4.68l-103.89-59.98c-3.6-2.08-3.6-7.27,0-9.35Z"/>
        <path class="cls-17" d="M2142.43,2206.52v-119.97c0-4.16,4.5-6.75,8.1-4.68l103.89,59.98c3.6,2.08,3.6,7.27,0,9.35l-103.9,59.98c-3.6,2.08-8.1-.52-8.1-4.68Z"/>
        <path class="cls-2" d="M2108.6,2211.19l-103.89-59.98c-3.6-2.08-3.6-7.27,0-9.35l103.89-59.98c3.6-2.08,8.1.52,8.1,4.68v119.97c0,4.16-4.5,6.75-8.1,4.68Z"/>
        <path class="cls-16" d="M2108.6,2250.26l-103.89,59.98c-3.6,2.08-8.1-.52-8.1-4.68v-119.97c0-4.16,4.5-6.75,8.1-4.68l103.89,59.98c3.6,2.08,3.6,7.27,0,9.35Z"/>
        <path class="cls-16" d="M2116.7,2284.65v119.97c0,4.16-4.5,6.75-8.1,4.68l-103.89-59.98c-3.6-2.08-3.6-7.27,0-9.35l103.89-59.98c3.6-2.08,8.1.52,8.1,4.68Z"/>
        <path class="cls-6" d="M2442.18,2279.98l103.89,59.98c3.6,2.08,3.6,7.27,0,9.35l-103.89,59.98c-3.6,2.08-8.1-.52-8.1-4.68v-119.97c0-4.16,4.5-6.76,8.1-4.68Z"/>
        <path class="cls-16" d="M2442.18,2240.91l103.89-59.98c3.6-2.08,8.1.52,8.1,4.68v119.97c0,4.16-4.5,6.75-8.1,4.68l-103.89-59.98c-3.6-2.08-3.6-7.27,0-9.35Z"/>
        <path class="cls-2" d="M2434.08,2206.52v-119.97c0-4.16,4.5-6.75,8.1-4.68l103.89,59.98c3.6,2.08,3.6,7.27,0,9.35l-103.89,59.98c-3.6,2.08-8.1-.52-8.1-4.68Z"/>
        <path class="cls-6" d="M2400.25,2211.19l-103.89-59.98c-3.6-2.08-3.6-7.27,0-9.35l103.89-59.98c3.6-2.08,8.1.52,8.1,4.68v119.97c0,4.16-4.5,6.75-8.1,4.68Z"/>
        <path class="cls-16" d="M2400.25,2250.26l-103.89,59.98c-3.6,2.08-8.1-.52-8.1-4.68v-119.97c0-4.16,4.5-6.75,8.1-4.68l103.89,59.98c3.6,2.08,3.6,7.27,0,9.35Z"/>
        <path class="cls-16" d="M2408.35,2284.65v119.97c0,4.16-4.5,6.75-8.1,4.68l-103.89-59.98c-3.6-2.08-3.6-7.27,0-9.35l103.89-59.98c3.6-2.08,8.1.52,8.1,4.68Z"/>
        <path class="cls-17" d="M2691.9,2211.19l-103.89-59.98c-3.6-2.08-3.6-7.27,0-9.35l103.89-59.98c3.6-2.08,8.1.52,8.1,4.68v119.97c0,4.16-4.5,6.75-8.1,4.68Z"/>
        <path class="cls-16" d="M2691.9,2250.26l-103.89,59.98c-3.6,2.08-8.1-.52-8.1-4.68v-119.97c0-4.16,4.5-6.75,8.1-4.68l103.89,59.98c3.6,2.08,3.6,7.27,0,9.35Z"/>
        <path class="cls-16" d="M2700,2284.65v119.97c0,4.16-4.5,6.75-8.1,4.68l-103.89-59.98c-3.6-2.08-3.6-7.27,0-9.35l103.89-59.98c3.6-2.08,8.1.52,8.1,4.68Z"/>
      </g>
    </g>
    <g id="Layer_4" data-name="Layer 4">
      <g class="cls-8">
        <path class="cls-5" d="M1777.36,160.85l103.89-59.98c3.6-2.08,8.1.52,8.1,4.68v119.97c0,4.16-4.5,6.76-8.1,4.68l-103.89-59.98c-3.6-2.08-3.6-7.27,0-9.35Z"/>
        <path class="cls-5" d="M2069.01,199.92l103.89,59.98c3.6,2.08,3.6,7.27,0,9.35l-103.89,59.98c-3.6,2.08-8.1-.52-8.1-4.68v-119.97c0-4.16,4.5-6.76,8.1-4.68Z"/>
        <path class="cls-5" d="M2069.01,160.85l103.89-59.98c3.6-2.08,8.1.52,8.1,4.68v119.97c0,4.16-4.5,6.76-8.1,4.68l-103.89-59.98c-3.6-2.08-3.6-7.27,0-9.35Z"/>
        <path class="cls-5" d="M2027.07,131.13l-103.89-59.98c-3.6-2.08-3.6-7.27,0-9.35L2027.07,1.81c3.6-2.08,8.1.52,8.1,4.68v119.97c0,4.16-4.5,6.76-8.1,4.68Z"/>
        <path class="cls-5" d="M2027.07,170.2l-103.89,59.98c-3.6,2.08-8.1-.52-8.1-4.68v-119.97c0-4.16,4.5-6.75,8.1-4.68l103.89,59.98c3.6,2.08,3.6,7.27,0,9.35Z"/>
        <path class="cls-5" d="M2035.17,204.59v119.97c0,4.16-4.5,6.76-8.1,4.68l-103.89-59.98c-3.6-2.08-3.6-7.27,0-9.35l103.89-59.98c3.6-2.08,8.1.52,8.1,4.68Z"/>
        <path class="cls-5" d="M2360.66,199.92l103.89,59.98c3.6,2.08,3.6,7.27,0,9.35l-103.89,59.98c-3.6,2.08-8.1-.52-8.1-4.68v-119.97c0-4.16,4.5-6.76,8.1-4.68Z"/>
        <path class="cls-5" d="M2360.66,160.85l103.89-59.98c3.6-2.08,8.1.52,8.1,4.68v119.97c0,4.16-4.5,6.76-8.1,4.68l-103.89-59.98c-3.6-2.08-3.6-7.27,0-9.35Z"/>
        <path class="cls-5" d="M2318.73,131.13l-103.89-59.98c-3.6-2.08-3.6-7.27,0-9.35l103.89-59.98c3.6-2.08,8.1.52,8.1,4.68v119.97c0,4.16-4.5,6.76-8.1,4.68Z"/>
        <path class="cls-5" d="M2610.38,170.2l-103.89,59.98c-3.6,2.08-8.1-.52-8.1-4.68v-119.97c0-4.16,4.5-6.75,8.1-4.68l103.89,59.98c3.6,2.08,3.6,7.27,0,9.35Z"/>
        <path class="cls-5" d="M1923.18,458.01l103.89-59.98c3.6-2.08,8.1.52,8.1,4.68v119.97c0,4.16-4.5,6.76-8.1,4.68l-103.89-59.98c-3.6-2.08-3.6-7.27,0-9.35Z"/>
        <path class="cls-5" d="M1915.08,423.61v-119.97c0-4.16,4.5-6.75,8.1-4.68l103.89,59.98c3.6,2.08,3.6,7.27,0,9.35l-103.89,59.98c-3.6,2.08-8.1-.52-8.1-4.68Z"/>
        <path class="cls-5" d="M1889.35,501.75v119.97c0,4.16-4.5,6.76-8.1,4.68l-103.89-59.98c-3.6-2.08-3.6-7.27,0-9.35l103.89-59.98c3.6-2.08,8.1.52,8.1,4.68Z"/>
        <path class="cls-5" d="M2214.83,458.01l103.89-59.98c3.6-2.08,8.1.52,8.1,4.68v119.97c0,4.16-4.5,6.76-8.1,4.68l-103.89-59.98c-3.6-2.08-3.6-7.27,0-9.35Z"/>
        <path class="cls-5" d="M2172.9,428.29l-103.89-59.98c-3.6-2.08-3.6-7.27,0-9.35l103.89-59.98c3.6-2.08,8.1.52,8.1,4.68v119.97c0,4.16-4.5,6.76-8.1,4.68Z"/>
        <path class="cls-5" d="M2181,501.75v119.97c0,4.16-4.5,6.76-8.1,4.68l-103.89-59.98c-3.6-2.08-3.6-7.27,0-9.35l103.89-59.98c3.6-2.08,8.1.52,8.1,4.68Z"/>
        <path class="cls-5" d="M2506.49,497.07l103.89,59.98c3.6,2.08,3.6,7.27,0,9.35l-103.89,59.98c-3.6,2.08-8.1-.52-8.1-4.68v-119.97c0-4.16,4.5-6.76,8.1-4.68Z"/>
        <path class="cls-5" d="M2506.49,458.01l103.89-59.98c3.6-2.08,8.1.52,8.1,4.68v119.97c0,4.16-4.5,6.76-8.1,4.68l-103.89-59.98c-3.6-2.08-3.6-7.27,0-9.35Z"/>
        <path class="cls-5" d="M2464.55,428.29l-103.89-59.98c-3.6-2.08-3.6-7.27,0-9.35l103.89-59.98c3.6-2.08,8.1.52,8.1,4.68v119.97c0,4.16-4.5,6.76-8.1,4.68Z"/>
        <path class="cls-5" d="M2464.55,467.36l-103.89,59.98c-3.6,2.08-8.1-.52-8.1-4.68v-119.97c0-4.16,4.5-6.76,8.1-4.68l103.89,59.98c3.6,2.08,3.6,7.27,0,9.35Z"/>
        <path class="cls-5" d="M2756.2,428.29l-103.89-59.98c-3.6-2.08-3.6-7.27,0-9.35l103.89-59.98c3.6-2.08,8.1.52,8.1,4.68v119.97c0,4.16-4.5,6.76-8.1,4.68Z"/>
        <path class="cls-5" d="M2756.2,467.36l-103.89,59.98c-3.6,2.08-8.1-.52-8.1-4.68v-119.97c0-4.16,4.5-6.76,8.1-4.68l103.89,59.98c3.6,2.08,3.6,7.27,0,9.35Z"/>
        <path class="cls-5" d="M1777.36,755.14l103.89-59.98c3.6-2.08,8.1.52,8.1,4.68v119.97c0,4.16-4.5,6.76-8.1,4.68l-103.89-59.98c-3.6-2.08-3.6-7.27,0-9.35Z"/>
        <path class="cls-5" d="M1769.26,720.75v-119.97c0-4.16,4.5-6.76,8.1-4.68l103.89,59.98c3.6,2.08,3.6,7.27,0,9.35l-103.89,59.98c-3.6,2.08-8.1-.52-8.1-4.68Z"/>
        <path class="cls-5" d="M1735.42,725.43l-103.89-59.98c-3.6-2.08-3.6-7.27,0-9.35l103.89-59.98c3.6-2.08,8.1.52,8.1,4.68v119.97c0,4.16-4.5,6.75-8.1,4.68Z"/>
        <path class="cls-5" d="M1743.52,798.89v119.97c0,4.16-4.5,6.76-8.1,4.68l-103.89-59.98c-3.6-2.08-3.6-7.27,0-9.35l103.89-59.98c3.6-2.08,8.1.52,8.1,4.68Z"/>
        <path class="cls-5" d="M2027.07,725.43l-103.89-59.98c-3.6-2.08-3.6-7.27,0-9.35l103.89-59.98c3.6-2.08,8.1.52,8.1,4.68v119.97c0,4.16-4.5,6.75-8.1,4.68Z"/>
        <path class="cls-5" d="M2027.07,764.49l-103.89,59.98c-3.6,2.08-8.1-.52-8.1-4.68v-119.97c0-4.16,4.5-6.76,8.1-4.68l103.89,59.98c3.6,2.08,3.6,7.27,0,9.35Z"/>
        <path class="cls-5" d="M2035.17,798.89v119.97c0,4.16-4.5,6.76-8.1,4.68l-103.89-59.98c-3.6-2.08-3.6-7.27,0-9.35l103.89-59.98c3.6-2.08,8.1.52,8.1,4.68Z"/>
        <path class="cls-5" d="M2318.73,725.43l-103.89-59.98c-3.6-2.08-3.6-7.27,0-9.35l103.89-59.98c3.6-2.08,8.1.52,8.1,4.68v119.97c0,4.16-4.5,6.75-8.1,4.68Z"/>
        <path class="cls-5" d="M2318.73,764.49l-103.89,59.98c-3.6,2.08-8.1-.52-8.1-4.68v-119.97c0-4.16,4.5-6.76,8.1-4.68l103.89,59.98c3.6,2.08,3.6,7.27,0,9.35Z"/>
        <path class="cls-5" d="M2326.83,798.89v119.97c0,4.16-4.5,6.76-8.1,4.68l-103.89-59.98c-3.6-2.08-3.6-7.27,0-9.35l103.89-59.98c3.6-2.08,8.1.52,8.1,4.68Z"/>
        <path class="cls-5" d="M2652.31,794.21l103.89,59.98c3.6,2.08,3.6,7.27,0,9.35l-103.89,59.98c-3.6,2.08-8.1-.52-8.1-4.68v-119.97c0-4.16,4.5-6.76,8.1-4.68Z"/>
        <path class="cls-5" d="M2610.38,764.49l-103.89,59.98c-3.6,2.08-8.1-.52-8.1-4.68v-119.97c0-4.16,4.5-6.76,8.1-4.68l103.89,59.98c3.6,2.08,3.6,7.27,0,9.35Z"/>
        <path class="cls-5" d="M1923.18,1091.37l103.89,59.98c3.6,2.08,3.6,7.27,0,9.35l-103.89,59.98c-3.6,2.08-8.1-.52-8.1-4.68v-119.97c0-4.16,4.5-6.76,8.1-4.68Z"/>
        <path class="cls-5" d="M1923.18,1052.3l103.89-59.98c3.6-2.08,8.1.52,8.1,4.68v119.97c0,4.16-4.5,6.76-8.1,4.68l-103.89-59.98c-3.6-2.08-3.6-7.27,0-9.35Z"/>
        <path class="cls-5" d="M1915.08,1017.91v-119.97c0-4.16,4.5-6.76,8.1-4.68l103.89,59.98c3.6,2.08,3.6,7.27,0,9.35l-103.89,59.98c-3.6,2.08-8.1-.52-8.1-4.68Z"/>
        <path class="cls-5" d="M1889.35,1096.04v119.97c0,4.16-4.5,6.75-8.1,4.68l-103.89-59.98c-3.6-2.08-3.6-7.27,0-9.35l103.89-59.98c3.6-2.08,8.1.52,8.1,4.68Z"/>
        <path class="cls-5" d="M2214.83,1052.3l103.89-59.98c3.6-2.08,8.1.52,8.1,4.68v119.97c0,4.16-4.5,6.76-8.1,4.68l-103.89-59.98c-3.6-2.08-3.6-7.27,0-9.35Z"/>
        <path class="cls-5" d="M2172.9,1022.58l-103.89-59.98c-3.6-2.08-3.6-7.27,0-9.35l103.89-59.98c3.6-2.08,8.1.52,8.1,4.68v119.97c0,4.16-4.5,6.76-8.1,4.68Z"/>
        <path class="cls-5" d="M2172.9,1061.65l-103.89,59.98c-3.6,2.08-8.1-.52-8.1-4.68v-119.97c0-4.16,4.5-6.76,8.1-4.68l103.89,59.98c3.6,2.08,3.6,7.27,0,9.35Z"/>
        <path class="cls-5" d="M2506.49,1091.37l103.89,59.98c3.6,2.08,3.6,7.27,0,9.35l-103.89,59.98c-3.6,2.08-8.1-.52-8.1-4.68v-119.97c0-4.16,4.5-6.76,8.1-4.68Z"/>
        <path class="cls-5" d="M2506.49,1052.3l103.89-59.98c3.6-2.08,8.1.52,8.1,4.68v119.97c0,4.16-4.5,6.76-8.1,4.68l-103.89-59.98c-3.6-2.08-3.6-7.27,0-9.35Z"/>
        <path class="cls-5" d="M2464.55,1061.65l-103.89,59.98c-3.6,2.08-8.1-.52-8.1-4.68v-119.97c0-4.16,4.5-6.76,8.1-4.68l103.89,59.98c3.6,2.08,3.6,7.27,0,9.35Z"/>
        <path class="cls-5" d="M2472.65,1096.04v119.97c0,4.16-4.5,6.75-8.1,4.68l-103.89-59.98c-3.6-2.08-3.6-7.27,0-9.35l103.89-59.98c3.6-2.08,8.1.52,8.1,4.68Z"/>
        <path class="cls-5" d="M2756.2,1022.58l-103.89-59.98c-3.6-2.08-3.6-7.27,0-9.35l103.89-59.98c3.6-2.08,8.1.52,8.1,4.68v119.97c0,4.16-4.5,6.76-8.1,4.68Z"/>
        <path class="cls-5" d="M1743.52,1393.2v119.97c0,4.16-4.5,6.75-8.1,4.68l-103.89-59.98c-3.6-2.08-3.6-7.27,0-9.35l103.89-59.98c3.6-2.08,8.1.52,8.1,4.68Z"/>
        <path class="cls-5" d="M2069.01,1388.53l103.89,59.98c3.6,2.08,3.6,7.27,0,9.35l-103.89,59.98c-3.6,2.08-8.1-.52-8.1-4.68v-119.97c0-4.16,4.5-6.75,8.1-4.68Z"/>
        <path class="cls-5" d="M2060.91,1315.06v-119.97c0-4.16,4.5-6.76,8.1-4.68l103.89,59.98c3.6,2.08,3.6,7.27,0,9.35l-103.89,59.98c-3.6,2.08-8.1-.52-8.1-4.68Z"/>
        <path class="cls-5" d="M2027.07,1319.74l-103.89-59.98c-3.6-2.08-3.6-7.27,0-9.35l103.89-59.98c3.6-2.08,8.1.52,8.1,4.68v119.97c0,4.16-4.5,6.75-8.1,4.68Z"/>
        <path class="cls-5" d="M2027.07,1358.81l-103.89,59.98c-3.6,2.08-8.1-.52-8.1-4.68v-119.97c0-4.16,4.5-6.75,8.1-4.68l103.89,59.98c3.6,2.08,3.6,7.27,0,9.35Z"/>
        <path class="cls-5" d="M2035.17,1393.2v119.97c0,4.16-4.5,6.75-8.1,4.68l-103.89-59.98c-3.6-2.08-3.6-7.27,0-9.35l103.89-59.98c3.6-2.08,8.1.52,8.1,4.68Z"/>
        <path class="cls-5" d="M2360.66,1349.46l103.89-59.98c3.6-2.08,8.1.52,8.1,4.68v119.97c0,4.16-4.5,6.75-8.1,4.68l-103.89-59.98c-3.6-2.08-3.6-7.27,0-9.35Z"/>
        <path class="cls-5" d="M2318.73,1319.74l-103.89-59.98c-3.6-2.08-3.6-7.27,0-9.35l103.89-59.98c3.6-2.08,8.1.52,8.1,4.68v119.97c0,4.16-4.5,6.75-8.1,4.68Z"/>
        <path class="cls-5" d="M2318.73,1358.81l-103.89,59.98c-3.6,2.08-8.1-.52-8.1-4.68v-119.97c0-4.16,4.5-6.75,8.1-4.68l103.89,59.98c3.6,2.08,3.6,7.27,0,9.35Z"/>
        <path class="cls-5" d="M2326.83,1393.2v119.97c0,4.16-4.5,6.75-8.1,4.68l-103.89-59.98c-3.6-2.08-3.6-7.27,0-9.35l103.89-59.98c3.6-2.08,8.1.52,8.1,4.68Z"/>
        <path class="cls-5" d="M2644.21,1315.06v-119.97c0-4.16,4.5-6.76,8.1-4.68l103.89,59.98c3.6,2.08,3.6,7.27,0,9.35l-103.89,59.98c-3.6,2.08-8.1-.52-8.1-4.68Z"/>
        <path class="cls-5" d="M2610.38,1319.74l-103.89-59.98c-3.6-2.08-3.6-7.27,0-9.35l103.89-59.98c3.6-2.08,8.1.52,8.1,4.68v119.97c0,4.16-4.5,6.75-8.1,4.68Z"/>
        <path class="cls-5" d="M2610.38,1358.81l-103.89,59.98c-3.6,2.08-8.1-.52-8.1-4.68v-119.97c0-4.16,4.5-6.75,8.1-4.68l103.89,59.98c3.6,2.08,3.6,7.27,0,9.35Z"/>
        <path class="cls-5" d="M2618.48,1393.2v119.97c0,4.16-4.5,6.75-8.1,4.68l-103.89-59.98c-3.6-2.08-3.6-7.27,0-9.35l103.89-59.98c3.6-2.08,8.1.52,8.1,4.68Z"/>
        <path class="cls-5" d="M1915.08,1612.22v-119.97c0-4.16,4.5-6.75,8.1-4.68l103.89,59.98c3.6,2.08,3.6,7.27,0,9.35l-103.89,59.98c-3.6,2.08-8.1-.52-8.1-4.68Z"/>
        <path class="cls-5" d="M1881.25,1616.9l-103.89-59.98c-3.6-2.08-3.6-7.27,0-9.35l103.89-59.98c3.6-2.08,8.1.52,8.1,4.68v119.97c0,4.16-4.5,6.75-8.1,4.68Z"/>
        <path class="cls-5" d="M2172.9,1616.9l-103.89-59.98c-3.6-2.08-3.6-7.27,0-9.35l103.89-59.98c3.6-2.08,8.1.52,8.1,4.68v119.97c0,4.16-4.5,6.75-8.1,4.68Z"/>
        <path class="cls-5" d="M2172.9,1655.97l-103.89,59.98c-3.6,2.08-8.1-.52-8.1-4.68v-119.97c0-4.16,4.5-6.76,8.1-4.68l103.89,59.98c3.6,2.08,3.6,7.27,0,9.35Z"/>
        <path class="cls-5" d="M2506.49,1646.61l103.89-59.98c3.6-2.08,8.1.52,8.1,4.68v119.97c0,4.16-4.5,6.76-8.1,4.68l-103.89-59.98c-3.6-2.08-3.6-7.27,0-9.35Z"/>
        <path class="cls-5" d="M2464.55,1655.97l-103.89,59.98c-3.6,2.08-8.1-.52-8.1-4.68v-119.97c0-4.16,4.5-6.76,8.1-4.68l103.89,59.98c3.6,2.08,3.6,7.27,0,9.35Z"/>
        <path class="cls-5" d="M2764.3,1690.36v119.97c0,4.16-4.5,6.76-8.1,4.68l-103.89-59.98c-3.6-2.08-3.6-7.27,0-9.35l103.89-59.98c3.6-2.08,8.1.52,8.1,4.68Z"/>
        <path class="cls-5" d="M1777.36,1982.82l103.89,59.98c3.6,2.08,3.6,7.27,0,9.35l-103.89,59.98c-3.6,2.08-8.1-.52-8.1-4.68v-119.97c0-4.16,4.5-6.76,8.1-4.68Z"/>
        <path class="cls-5" d="M1769.26,1909.36v-119.97c0-4.16,4.5-6.75,8.1-4.68l103.89,59.98c3.6,2.08,3.6,7.27,0,9.35l-103.89,59.98c-3.6,2.08-8.1-.52-8.1-4.68Z"/>
        <path class="cls-5" d="M2069.01,1943.75l103.89-59.98c3.6-2.08,8.1.52,8.1,4.68v119.97c0,4.16-4.5,6.76-8.1,4.68l-103.89-59.98c-3.6-2.08-3.6-7.27,0-9.35Z"/>
        <path class="cls-5" d="M2060.91,1909.36v-119.97c0-4.16,4.5-6.75,8.1-4.68l103.89,59.98c3.6,2.08,3.6,7.27,0,9.35l-103.89,59.98c-3.6,2.08-8.1-.52-8.1-4.68Z"/>
        <path class="cls-5" d="M2027.07,1953.1l-103.89,59.98c-3.6,2.08-8.1-.52-8.1-4.68v-119.97c0-4.16,4.5-6.75,8.1-4.68l103.89,59.98c3.6,2.08,3.6,7.27,0,9.35Z"/>
        <path class="cls-5" d="M2360.66,1982.82l103.89,59.98c3.6,2.08,3.6,7.27,0,9.35l-103.89,59.98c-3.6,2.08-8.1-.52-8.1-4.68v-119.97c0-4.16,4.5-6.76,8.1-4.68Z"/>
        <path class="cls-5" d="M2318.73,1914.04l-103.89-59.98c-3.6-2.08-3.6-7.27,0-9.35l103.89-59.98c3.6-2.08,8.1.52,8.1,4.68v119.97c0,4.16-4.5,6.75-8.1,4.68Z"/>
        <path class="cls-5" d="M2326.83,1987.5v119.97c0,4.16-4.5,6.76-8.1,4.68l-103.89-59.98c-3.6-2.08-3.6-7.27,0-9.35l103.89-59.98c3.6-2.08,8.1.52,8.1,4.68Z"/>
        <path class="cls-5" d="M2652.31,1982.82l103.89,59.98c3.6,2.08,3.6,7.27,0,9.35l-103.89,59.98c-3.6,2.08-8.1-.52-8.1-4.68v-119.97c0-4.16,4.5-6.76,8.1-4.68Z"/>
        <path class="cls-5" d="M2652.31,1943.75l103.89-59.98c3.6-2.08,8.1.52,8.1,4.68v119.97c0,4.16-4.5,6.76-8.1,4.68l-103.89-59.98c-3.6-2.08-3.6-7.27,0-9.35Z"/>
        <path class="cls-5" d="M2644.21,1909.36v-119.97c0-4.16,4.5-6.75,8.1-4.68l103.89,59.98c3.6,2.08,3.6,7.27,0,9.35l-103.89,59.98c-3.6,2.08-8.1-.52-8.1-4.68Z"/>
        <path class="cls-5" d="M2610.38,1914.04l-103.89-59.98c-3.6-2.08-3.6-7.27,0-9.35l103.89-59.98c3.6-2.08,8.1.52,8.1,4.68v119.97c0,4.16-4.5,6.75-8.1,4.68Z"/>
        <path class="cls-5" d="M1631.53,2240.91l103.89-59.98c3.6-2.08,8.1.52,8.1,4.68v119.97c0,4.16-4.5,6.75-8.1,4.68l-103.89-59.98c-3.6-2.08-3.6-7.27,0-9.35Z"/>
        <path class="cls-5" d="M1923.18,2279.98l103.89,59.98c3.6,2.08,3.6,7.27,0,9.35l-103.89,59.98c-3.6,2.08-8.1-.52-8.1-4.68v-119.97c0-4.16,4.5-6.76,8.1-4.68Z"/>
        <path class="cls-5" d="M1915.08,2206.52v-119.97c0-4.16,4.5-6.75,8.1-4.68l103.89,59.98c3.6,2.08,3.6,7.27,0,9.35l-103.89,59.98c-3.6,2.08-8.1-.52-8.1-4.68Z"/>
        <path class="cls-5" d="M1889.35,2284.65v119.97c0,4.16-4.5,6.75-8.1,4.68l-103.89-59.98c-3.6-2.08-3.6-7.27,0-9.35l103.89-59.98c3.6-2.08,8.1.52,8.1,4.68Z"/>
        <path class="cls-5" d="M1485.7,1586.61l103.89,59.98c3.6,2.08,3.6,7.27,0,9.35l-103.89,59.98c-3.6,2.08-8.1-.52-8.1-4.68v-119.97c0-4.16,4.5-6.76,8.1-4.68Z"/>
        <path class="cls-5" d="M1477.6,1513.15v-119.97c0-4.16,4.5-6.75,8.1-4.68l103.89,59.98c3.6,2.08,3.6,7.27,0,9.35l-103.89,59.98c-3.6,2.08-8.1-.52-8.1-4.68Z"/>
        <path class="cls-5" d="M1451.87,1591.29v119.97c0,4.16-4.5,6.76-8.1,4.68l-103.89-59.98c-3.6-2.08-3.6-7.27,0-9.35l103.89-59.98c3.6-2.08,8.1.52,8.1,4.68Z"/>
        <path class="cls-5" d="M1297.94,1815l-103.89-59.98c-3.6-2.08-3.6-7.27,0-9.35l103.89-59.98c3.6-2.08,8.1.52,8.1,4.68v119.97c0,4.16-4.5,6.76-8.1,4.68Z"/>
        <path class="cls-5" d="M1297.94,1854.07l-103.89,59.98c-3.6,2.08-8.1-.52-8.1-4.68v-119.97c0-4.16,4.5-6.75,8.1-4.68l103.89,59.98c3.6,2.08,3.6,7.27,0,9.35Z"/>
        <path class="cls-5" d="M1589.59,1814.98l-103.89-59.98c-3.6-2.08-3.6-7.27,0-9.35l103.89-59.98c3.6-2.08,8.1.52,8.1,4.68v119.97c0,4.16-4.5,6.75-8.1,4.68Z"/>
        <path class="cls-5" d="M1597.69,1888.44v119.97c0,4.16-4.5,6.76-8.1,4.68l-103.89-59.98c-3.6-2.08-3.6-7.27,0-9.35l103.89-59.98c3.6-2.08,8.1.52,8.1,4.68Z"/>
        <path class="cls-5" d="M2172.9,2211.19l-103.89-59.98c-3.6-2.08-3.6-7.27,0-9.35l103.89-59.98c3.6-2.08,8.1.52,8.1,4.68v119.97c0,4.16-4.5,6.75-8.1,4.68Z"/>
        <path class="cls-5" d="M2172.9,2250.26l-103.89,59.98c-3.6,2.08-8.1-.52-8.1-4.68v-119.97c0-4.16,4.5-6.75,8.1-4.68l103.89,59.98c3.6,2.08,3.6,7.27,0,9.35Z"/>
        <path class="cls-5" d="M2498.39,2206.52v-119.97c0-4.16,4.5-6.75,8.1-4.68l103.89,59.98c3.6,2.08,3.6,7.27,0,9.35l-103.89,59.98c-3.6,2.08-8.1-.52-8.1-4.68Z"/>
        <path class="cls-5" d="M2464.55,2211.19l-103.89-59.98c-3.6-2.08-3.6-7.27,0-9.35l103.89-59.98c3.6-2.08,8.1.52,8.1,4.68v119.97c0,4.16-4.5,6.75-8.1,4.68Z"/>
        <path class="cls-5" d="M2464.55,2250.26l-103.89,59.98c-3.6,2.08-8.1-.52-8.1-4.68v-119.97c0-4.16,4.5-6.75,8.1-4.68l103.89,59.98c3.6,2.08,3.6,7.27,0,9.35Z"/>
        <path class="cls-5" d="M2472.65,2284.65v119.97c0,4.16-4.5,6.75-8.1,4.68l-103.89-59.98c-3.6-2.08-3.6-7.27,0-9.35l103.89-59.98c3.6-2.08,8.1.52,8.1,4.68Z"/>
        <path class="cls-5" d="M2756.2,2250.26l-103.89,59.98c-3.6,2.08-8.1-.52-8.1-4.68v-119.97c0-4.16,4.5-6.75,8.1-4.68l103.89,59.98c3.6,2.08,3.6,7.27,0,9.35Z"/>
      </g>
    </g>
    <g id="Layer_5" data-name="Layer 5">
      <g class="cls-15">
        <path class="cls-10" d="M1650.31,126.46V6.49c0-4.16,4.5-6.76,8.1-4.68l103.89,59.98c3.6,2.08,3.6,7.27,0,9.35l-103.89,59.98c-3.6,2.08-8.1-.52-8.1-4.68Z"/>
        <path class="cls-10" d="M1941.96,126.46V6.49c0-4.16,4.5-6.76,8.1-4.68l103.89,59.98c3.6,2.08,3.6,7.27,0,9.35l-103.89,59.98c-3.6,2.08-8.1-.52-8.1-4.68Z"/>
        <path class="cls-10" d="M2199.78,170.2l-103.89,59.98c-3.6,2.08-8.1-.52-8.1-4.68v-119.97c0-4.16,4.5-6.75,8.1-4.68l103.89,59.98c3.6,2.08,3.6,7.27,0,9.35Z"/>
        <path class="cls-10" d="M2207.88,204.59v119.97c0,4.16-4.5,6.76-8.1,4.68l-103.89-59.98c-3.6-2.08-3.6-7.27,0-9.35l103.89-59.98c3.6-2.08,8.1.52,8.1,4.68Z"/>
        <path class="cls-10" d="M2053.96,467.36l-103.89,59.98c-3.6,2.08-8.1-.52-8.1-4.68v-119.97c0-4.16,4.5-6.76,8.1-4.68l103.89,59.98c3.6,2.08,3.6,7.27,0,9.35Z"/>
        <path class="cls-10" d="M2379.44,423.61v-119.97c0-4.16,4.5-6.75,8.1-4.68l103.89,59.98c3.6,2.08,3.6,7.27,0,9.35l-103.89,59.98c-3.6,2.08-8.1-.52-8.1-4.68Z"/>
        <path class="cls-10" d="M2353.71,501.75v119.97c0,4.16-4.5,6.76-8.1,4.68l-103.89-59.98c-3.6-2.08-3.6-7.27,0-9.35l103.89-59.98c3.6-2.08,8.1.52,8.1,4.68Z"/>
        <path class="cls-10" d="M1658.41,794.21l103.89,59.98c3.6,2.08,3.6,7.27,0,9.35l-103.89,59.98c-3.6,2.08-8.1-.52-8.1-4.68v-119.97c0-4.16,4.5-6.76,8.1-4.68Z"/>
        <path class="cls-10" d="M1941.96,720.75v-119.97c0-4.16,4.5-6.76,8.1-4.68l103.89,59.98c3.6,2.08,3.6,7.27,0,9.35l-103.89,59.98c-3.6,2.08-8.1-.52-8.1-4.68Z"/>
        <path class="cls-10" d="M2241.72,794.21l103.89,59.98c3.6,2.08,3.6,7.27,0,9.35l-103.89,59.98c-3.6,2.08-8.1-.52-8.1-4.68v-119.97c0-4.16,4.5-6.76,8.1-4.68Z"/>
        <path class="cls-10" d="M2241.72,755.14l103.89-59.98c3.6-2.08,8.1.52,8.1,4.68v119.97c0,4.16-4.5,6.76-8.1,4.68l-103.89-59.98c-3.6-2.08-3.6-7.27,0-9.35Z"/>
        <path class="cls-10" d="M2499.54,798.89v119.97c0,4.16-4.5,6.76-8.1,4.68l-103.89-59.98c-3.6-2.08-3.6-7.27,0-9.35l103.89-59.98c3.6-2.08,8.1.52,8.1,4.68Z"/>
        <path class="cls-10" d="M1512.58,1052.3l103.89-59.98c3.6-2.08,8.1.52,8.1,4.68v119.97c0,4.16-4.5,6.76-8.1,4.68l-103.89-59.98c-3.6-2.08-3.6-7.27,0-9.35Z"/>
        <path class="cls-10" d="M1762.31,1061.65l-103.89,59.98c-3.6,2.08-8.1-.52-8.1-4.68v-119.97c0-4.16,4.5-6.76,8.1-4.68l103.89,59.98c3.6,2.08,3.6,7.27,0,9.35Z"/>
        <path class="cls-10" d="M2095.89,1091.37l103.89,59.98c3.6,2.08,3.6,7.27,0,9.35l-103.89,59.98c-3.6,2.08-8.1-.52-8.1-4.68v-119.97c0-4.16,4.5-6.76,8.1-4.68Z"/>
        <path class="cls-10" d="M2087.79,1017.91v-119.97c0-4.16,4.5-6.76,8.1-4.68l103.89,59.98c3.6,2.08,3.6,7.27,0,9.35l-103.89,59.98c-3.6,2.08-8.1-.52-8.1-4.68Z"/>
        <path class="cls-10" d="M2379.44,1017.91v-119.97c0-4.16,4.5-6.76,8.1-4.68l103.89,59.98c3.6,2.08,3.6,7.27,0,9.35l-103.89,59.98c-3.6,2.08-8.1-.52-8.1-4.68Z"/>
        <path class="cls-10" d="M1658.41,1388.53l103.89,59.98c3.6,2.08,3.6,7.27,0,9.35l-103.89,59.98c-3.6,2.08-8.1-.52-8.1-4.68v-119.97c0-4.16,4.5-6.75,8.1-4.68Z"/>
        <path class="cls-10" d="M1950.06,1349.46l103.89-59.98c3.6-2.08,8.1.52,8.1,4.68v119.97c0,4.16-4.5,6.75-8.1,4.68l-103.89-59.98c-3.6-2.08-3.6-7.27,0-9.35Z"/>
        <path class="cls-10" d="M2233.62,1315.06v-119.97c0-4.16,4.5-6.76,8.1-4.68l103.89,59.98c3.6,2.08,3.6,7.27,0,9.35l-103.89,59.98c-3.6,2.08-8.1-.52-8.1-4.68Z"/>
        <path class="cls-10" d="M2533.36,1388.53l103.89,59.98c3.6,2.08,3.6,7.27,0,9.35l-103.89,59.98c-3.6,2.08-8.1-.52-8.1-4.68v-119.97c0-4.16,4.5-6.75,8.1-4.68Z"/>
        <path class="cls-10" d="M2533.36,1349.46l103.89-59.98c3.6-2.08,8.1.52,8.1,4.68v119.97c0,4.16-4.5,6.75-8.1,4.68l-103.89-59.98c-3.6-2.08-3.6-7.27,0-9.35Z"/>
        <path class="cls-10" d="M1512.58,1646.61l103.89-59.98c3.6-2.08,8.1.52,8.1,4.68v119.97c0,4.16-4.5,6.76-8.1,4.68l-103.89-59.98c-3.6-2.08-3.6-7.27,0-9.35Z"/>
        <path class="cls-10" d="M1504.48,1612.22v-119.97c0-4.16,4.5-6.75,8.1-4.68l103.89,59.98c3.6,2.08,3.6,7.27,0,9.35l-103.89,59.98c-3.6,2.08-8.1-.52-8.1-4.68Z"/>
        <path class="cls-10" d="M1804.24,1685.68l103.89,59.98c3.6,2.08,3.6,7.27,0,9.35l-103.89,59.98c-3.6,2.08-8.1-.52-8.1-4.68v-119.97c0-4.16,4.5-6.76,8.1-4.68Z"/>
        <path class="cls-10" d="M1762.31,1655.97l-103.89,59.98c-3.6,2.08-8.1-.52-8.1-4.68v-119.97c0-4.16,4.5-6.76,8.1-4.68l103.89,59.98c3.6,2.08,3.6,7.27,0,9.35Z"/>
        <path class="cls-10" d="M2095.89,1646.61l103.89-59.98c3.6-2.08,8.1.52,8.1,4.68v119.97c0,4.16-4.5,6.76-8.1,4.68l-103.89-59.98c-3.6-2.08-3.6-7.27,0-9.35Z"/>
        <path class="cls-10" d="M2387.54,1685.68l103.89,59.98c3.6,2.08,3.6,7.27,0,9.35l-103.89,59.98c-3.6,2.08-8.1-.52-8.1-4.68v-119.97c0-4.16,4.5-6.76,8.1-4.68Z"/>
        <path class="cls-10" d="M2379.44,1612.22v-119.97c0-4.16,4.5-6.75,8.1-4.68l103.89,59.98c3.6,2.08,3.6,7.27,0,9.35l-103.89,59.98c-3.6,2.08-8.1-.52-8.1-4.68Z"/>
        <path class="cls-10" d="M2353.71,1690.36v119.97c0,4.16-4.5,6.76-8.1,4.68l-103.89-59.98c-3.6-2.08-3.6-7.27,0-9.35l103.89-59.98c3.6-2.08,8.1.52,8.1,4.68Z"/>
        <path class="cls-10" d="M2637.26,1616.9l-103.89-59.98c-3.6-2.08-3.6-7.27,0-9.35l103.89-59.98c3.6-2.08,8.1.52,8.1,4.68v119.97c0,4.16-4.5,6.75-8.1,4.68Z"/>
        <path class="cls-10" d="M1658.41,1943.75l103.89-59.98c3.6-2.08,8.1.52,8.1,4.68v119.97c0,4.16-4.5,6.76-8.1,4.68l-103.89-59.98c-3.6-2.08-3.6-7.27,0-9.35Z"/>
        <path class="cls-10" d="M1616.48,1953.1l-103.89,59.98c-3.6,2.08-8.1-.52-8.1-4.68v-119.97c0-4.16,4.5-6.75,8.1-4.68l103.89,59.98c3.6,2.08,3.6,7.27,0,9.35Z"/>
        <path class="cls-10" d="M1624.58,1987.5v119.97c0,4.16-4.5,6.76-8.1,4.68l-103.89-59.98c-3.6-2.08-3.6-7.27,0-9.35l103.89-59.98c3.6-2.08,8.1.52,8.1,4.68Z"/>
        <path class="cls-10" d="M1950.06,1982.82l103.89,59.98c3.6,2.08,3.6,7.27,0,9.35l-103.89,59.98c-3.6,2.08-8.1-.52-8.1-4.68v-119.97c0-4.16,4.5-6.76,8.1-4.68Z"/>
        <path class="cls-10" d="M2241.72,1943.75l103.89-59.98c3.6-2.08,8.1.52,8.1,4.68v119.97c0,4.16-4.5,6.76-8.1,4.68l-103.89-59.98c-3.6-2.08-3.6-7.27,0-9.35Z"/>
        <path class="cls-10" d="M2233.62,1909.36v-119.97c0-4.16,4.5-6.75,8.1-4.68l103.89,59.98c3.6,2.08,3.6,7.27,0,9.35l-103.89,59.98c-3.6,2.08-8.1-.52-8.1-4.68Z"/>
        <path class="cls-10" d="M2491.44,1953.1l-103.89,59.98c-3.6,2.08-8.1-.52-8.1-4.68v-119.97c0-4.16,4.5-6.75,8.1-4.68l103.89,59.98c3.6,2.08,3.6,7.27,0,9.35Z"/>
        <path class="cls-10" d="M1504.48,2206.52v-119.97c0-4.16,4.5-6.75,8.1-4.68l103.89,59.98c3.6,2.08,3.6,7.27,0,9.35l-103.89,59.98c-3.6,2.08-8.1-.52-8.1-4.68Z"/>
        <path class="cls-10" d="M1470.65,2250.26l-103.89,59.98c-3.6,2.08-8.1-.52-8.1-4.68v-119.97c0-4.16,4.5-6.75,8.1-4.68l103.89,59.98c3.6,2.08,3.6,7.27,0,9.35Z"/>
        <path class="cls-10" d="M1804.24,2240.91l103.89-59.98c3.6-2.08,8.1.52,8.1,4.68v119.97c0,4.16-4.5,6.75-8.1,4.68l-103.89-59.98c-3.6-2.08-3.6-7.27,0-9.35Z"/>
        <path class="cls-10" d="M1762.31,2250.26l-103.89,59.98c-3.6,2.08-8.1-.52-8.1-4.68v-119.97c0-4.16,4.5-6.75,8.1-4.68l103.89,59.98c3.6,2.08,3.6,7.27,0,9.35Z"/>
        <path class="cls-10" d="M1324.82,1556.89l-103.89,59.98c-3.6,2.08-8.1-.52-8.1-4.68v-119.97c0-4.16,4.5-6.75,8.1-4.68l103.89,59.98c3.6,2.08,3.6,7.27,0,9.35Z"/>
        <path class="cls-10" d="M1187.09,1888.46v119.97c0,4.16-4.5,6.76-8.1,4.68l-103.89-59.98c-3.6-2.08-3.6-7.27,0-9.35l103.89-59.98c3.6-2.08,8.1.52,8.1,4.68Z"/>
        <path class="cls-10" d="M2095.89,2240.91l103.89-59.98c3.6-2.08,8.1.52,8.1,4.68v119.97c0,4.16-4.5,6.75-8.1,4.68l-103.89-59.98c-3.6-2.08-3.6-7.27,0-9.35Z"/>
        <path class="cls-10" d="M2087.79,2206.52v-119.97c0-4.16,4.5-6.75,8.1-4.68l103.89,59.98c3.6,2.08,3.6,7.27,0,9.35l-103.89,59.98c-3.6,2.08-8.1-.52-8.1-4.68Z"/>
        <path class="cls-10" d="M2637.26,2211.19l-103.89-59.98c-3.6-2.08-3.6-7.27,0-9.35l103.89-59.98c3.6-2.08,8.1.52,8.1,4.68v119.97c0,4.16-4.5,6.75-8.1,4.68Z"/>
        <path class="cls-10" d="M2645.36,2284.65v119.97c0,4.16-4.5,6.75-8.1,4.68l-103.89-59.98c-3.6-2.08-3.6-7.27,0-9.35l103.89-59.98c3.6-2.08,8.1.52,8.1,4.68Z"/>
      </g>
    </g>
    <g id="Layer_7" data-name="Layer 7">
      <g class="cls-11">
        <path class="cls-7" d="M2233.62,126.46V6.49c0-4.16,4.5-6.76,8.1-4.68l103.89,59.98c3.6,2.08,3.6,7.27,0,9.35l-103.89,59.98c-3.6,2.08-8.1-.52-8.1-4.68Z"/>
        <path class="cls-7" d="M2533.36,199.92l103.89,59.98c3.6,2.08,3.6,7.27,0,9.35l-103.89,59.98c-3.6,2.08-8.1-.52-8.1-4.68v-119.97c0-4.16,4.5-6.76,8.1-4.68Z"/>
        <path class="cls-7" d="M2533.36,160.85l103.89-59.98c3.6-2.08,8.1.52,8.1,4.68v119.97c0,4.16-4.5,6.76-8.1,4.68l-103.89-59.98c-3.6-2.08-3.6-7.27,0-9.35Z"/>
        <path class="cls-7" d="M2525.26,126.46V6.49c0-4.16,4.5-6.76,8.1-4.68l103.89,59.98c3.6,2.08,3.6,7.27,0,9.35l-103.89,59.98c-3.6,2.08-8.1-.52-8.1-4.68Z"/>
        <path class="cls-7" d="M2491.44,131.13l-103.89-59.98c-3.6-2.08-3.6-7.27,0-9.35l103.89-59.98c3.6-2.08,8.1.52,8.1,4.68v119.97c0,4.16-4.5,6.76-8.1,4.68Z"/>
        <path class="cls-7" d="M2499.54,204.59v119.97c0,4.16-4.5,6.76-8.1,4.68l-103.89-59.98c-3.6-2.08-3.6-7.27,0-9.35l103.89-59.98c3.6-2.08,8.1.52,8.1,4.68Z"/>
        <path class="cls-7" d="M1804.24,497.07l103.89,59.98c3.6,2.08,3.6,7.27,0,9.35l-103.89,59.98c-3.6,2.08-8.1-.52-8.1-4.68v-119.97c0-4.16,4.5-6.76,8.1-4.68Z"/>
        <path class="cls-7" d="M2095.89,497.07l103.89,59.98c3.6,2.08,3.6,7.27,0,9.35l-103.89,59.98c-3.6,2.08-8.1-.52-8.1-4.68v-119.97c0-4.16,4.5-6.76,8.1-4.68Z"/>
        <path class="cls-7" d="M2087.79,423.61v-119.97c0-4.16,4.5-6.75,8.1-4.68l103.89,59.98c3.6,2.08,3.6,7.27,0,9.35l-103.89,59.98c-3.6,2.08-8.1-.52-8.1-4.68Z"/>
        <path class="cls-7" d="M2645.36,501.75v119.97c0,4.16-4.5,6.76-8.1,4.68l-103.89-59.98c-3.6-2.08-3.6-7.27,0-9.35l103.89-59.98c3.6-2.08,8.1.52,8.1,4.68Z"/>
        <path class="cls-7" d="M1950.06,794.21l103.89,59.98c3.6,2.08,3.6,7.27,0,9.35l-103.89,59.98c-3.6,2.08-8.1-.52-8.1-4.68v-119.97c0-4.16,4.5-6.76,8.1-4.68Z"/>
        <path class="cls-7" d="M1950.06,755.14l103.89-59.98c3.6-2.08,8.1.52,8.1,4.68v119.97c0,4.16-4.5,6.76-8.1,4.68l-103.89-59.98c-3.6-2.08-3.6-7.27,0-9.35Z"/>
        <path class="cls-7" d="M2233.62,720.75v-119.97c0-4.16,4.5-6.76,8.1-4.68l103.89,59.98c3.6,2.08,3.6,7.27,0,9.35l-103.89,59.98c-3.6,2.08-8.1-.52-8.1-4.68Z"/>
        <path class="cls-7" d="M2533.36,755.14l103.89-59.98c3.6-2.08,8.1.52,8.1,4.68v119.97c0,4.16-4.5,6.76-8.1,4.68l-103.89-59.98c-3.6-2.08-3.6-7.27,0-9.35Z"/>
        <path class="cls-7" d="M2525.26,720.75v-119.97c0-4.16,4.5-6.76,8.1-4.68l103.89,59.98c3.6,2.08,3.6,7.27,0,9.35l-103.89,59.98c-3.6,2.08-8.1-.52-8.1-4.68Z"/>
        <path class="cls-7" d="M2491.44,725.43l-103.89-59.98c-3.6-2.08-3.6-7.27,0-9.35l103.89-59.98c3.6-2.08,8.1.52,8.1,4.68v119.97c0,4.16-4.5,6.75-8.1,4.68Z"/>
        <path class="cls-7" d="M1512.58,893.26l103.89,59.98c3.6,2.08,3.6,7.27,0,9.35l-103.89,59.98c-3.6,2.08-8.1-.52-8.1-4.68v-119.97c0-4.16,4.5-6.76,8.1-4.68Z"/>
        <path class="cls-7" d="M1762.31,1022.58l-103.89-59.98c-3.6-2.08-3.6-7.27,0-9.35l103.89-59.98c3.6-2.08,8.1.52,8.1,4.68v119.97c0,4.16-4.5,6.76-8.1,4.68Z"/>
        <path class="cls-7" d="M2062.06,1096.04v119.97c0,4.16-4.5,6.75-8.1,4.68l-103.89-59.98c-3.6-2.08-3.6-7.27,0-9.35l103.89-59.98c3.6-2.08,8.1.52,8.1,4.68Z"/>
        <path class="cls-7" d="M2345.61,1022.58l-103.89-59.98c-3.6-2.08-3.6-7.27,0-9.35l103.89-59.98c3.6-2.08,8.1.52,8.1,4.68v119.97c0,4.16-4.5,6.76-8.1,4.68Z"/>
        <path class="cls-7" d="M2637.26,1061.65l-103.89,59.98c-3.6,2.08-8.1-.52-8.1-4.68v-119.97c0-4.16,4.5-6.76,8.1-4.68l103.89,59.98c3.6,2.08,3.6,7.27,0,9.35Z"/>
        <path class="cls-7" d="M2645.36,1096.04v119.97c0,4.16-4.5,6.75-8.1,4.68l-103.89-59.98c-3.6-2.08-3.6-7.27,0-9.35l103.89-59.98c3.6-2.08,8.1.52,8.1,4.68Z"/>
        <path class="cls-7" d="M2241.72,1388.53l103.89,59.98c3.6,2.08,3.6,7.27,0,9.35l-103.89,59.98c-3.6,2.08-8.1-.52-8.1-4.68v-119.97c0-4.16,4.5-6.75,8.1-4.68Z"/>
        <path class="cls-7" d="M1804.24,1646.61l103.89-59.98c3.6-2.08,8.1.52,8.1,4.68v119.97c0,4.16-4.5,6.76-8.1,4.68l-103.89-59.98c-3.6-2.08-3.6-7.27,0-9.35Z"/>
        <path class="cls-7" d="M1770.41,1690.36v119.97c0,4.16-4.5,6.76-8.1,4.68l-103.89-59.98c-3.6-2.08-3.6-7.27,0-9.35l103.89-59.98c3.6-2.08,8.1.52,8.1,4.68Z"/>
        <path class="cls-7" d="M2095.89,1685.68l103.89,59.98c3.6,2.08,3.6,7.27,0,9.35l-103.89,59.98c-3.6,2.08-8.1-.52-8.1-4.68v-119.97c0-4.16,4.5-6.76,8.1-4.68Z"/>
        <path class="cls-7" d="M2087.79,1612.22v-119.97c0-4.16,4.5-6.75,8.1-4.68l103.89,59.98c3.6,2.08,3.6,7.27,0,9.35l-103.89,59.98c-3.6,2.08-8.1-.52-8.1-4.68Z"/>
        <path class="cls-7" d="M2062.06,1690.36v119.97c0,4.16-4.5,6.76-8.1,4.68l-103.89-59.98c-3.6-2.08-3.6-7.27,0-9.35l103.89-59.98c3.6-2.08,8.1.52,8.1,4.68Z"/>
        <path class="cls-7" d="M2345.61,1616.9l-103.89-59.98c-3.6-2.08-3.6-7.27,0-9.35l103.89-59.98c3.6-2.08,8.1.52,8.1,4.68v119.97c0,4.16-4.5,6.75-8.1,4.68Z"/>
        <path class="cls-7" d="M2637.26,1655.97l-103.89,59.98c-3.6,2.08-8.1-.52-8.1-4.68v-119.97c0-4.16,4.5-6.76,8.1-4.68l103.89,59.98c3.6,2.08,3.6,7.27,0,9.35Z"/>
        <path class="cls-7" d="M1616.48,1914.04l-103.89-59.98c-3.6-2.08-3.6-7.27,0-9.35l103.89-59.98c3.6-2.08,8.1.52,8.1,4.68v119.97c0,4.16-4.5,6.75-8.1,4.68Z"/>
        <path class="cls-7" d="M1908.13,1914.04l-103.89-59.98c-3.6-2.08-3.6-7.27,0-9.35l103.89-59.98c3.6-2.08,8.1.52,8.1,4.68v119.97c0,4.16-4.5,6.75-8.1,4.68Z"/>
        <path class="cls-7" d="M1916.23,1987.5v119.97c0,4.16-4.5,6.76-8.1,4.68l-103.89-59.98c-3.6-2.08-3.6-7.27,0-9.35l103.89-59.98c3.6-2.08,8.1.52,8.1,4.68Z"/>
        <path class="cls-7" d="M2199.78,1953.1l-103.89,59.98c-3.6,2.08-8.1-.52-8.1-4.68v-119.97c0-4.16,4.5-6.75,8.1-4.68l103.89,59.98c3.6,2.08,3.6,7.27,0,9.35Z"/>
        <path class="cls-7" d="M2499.54,1987.5v119.97c0,4.16-4.5,6.76-8.1,4.68l-103.89-59.98c-3.6-2.08-3.6-7.27,0-9.35l103.89-59.98c3.6-2.08,8.1.52,8.1,4.68Z"/>
        <path class="cls-7" d="M1512.58,2279.98l103.89,59.98c3.6,2.08,3.6,7.27,0,9.35l-103.89,59.98c-3.6,2.08-8.1-.52-8.1-4.68v-119.97c0-4.16,4.5-6.76,8.1-4.68Z"/>
        <path class="cls-7" d="M1470.65,2211.19l-103.89-59.98c-3.6-2.08-3.6-7.27,0-9.35l103.89-59.98c3.6-2.08,8.1.52,8.1,4.68v119.97c0,4.16-4.5,6.75-8.1,4.68Z"/>
        <path class="cls-7" d="M1478.75,2284.65v119.97c0,4.16-4.5,6.75-8.1,4.68l-103.89-59.98c-3.6-2.08-3.6-7.27,0-9.35l103.89-59.98c3.6-2.08,8.1.52,8.1,4.68Z"/>
        <path class="cls-7" d="M1762.31,2211.19l-103.89-59.98c-3.6-2.08-3.6-7.27,0-9.35l103.89-59.98c3.6-2.08,8.1.52,8.1,4.68v119.97c0,4.16-4.5,6.75-8.1,4.68Z"/>
        <path class="cls-7" d="M1366.76,1547.54l103.89-59.98c3.6-2.08,8.1.52,8.1,4.68v119.97c0,4.16-4.5,6.75-8.1,4.68l-103.89-59.98c-3.6-2.08-3.6-7.27,0-9.35Z"/>
        <path class="cls-7" d="M1324.82,1517.82l-103.89-59.98c-3.6-2.08-3.6-7.27,0-9.35l103.89-59.98c3.6-2.08,8.1.52,8.1,4.68v119.97c0,4.16-4.5,6.76-8.1,4.68Z"/>
        <path class="cls-7" d="M1220.93,1883.77l103.89,59.98c3.6,2.08,3.6,7.27,0,9.35l-103.89,59.98c-3.6,2.08-8.1-.52-8.1-4.68v-119.97c0-4.16,4.5-6.75,8.1-4.68Z"/>
        <path class="cls-7" d="M1220.93,1844.7l103.89-59.98c3.6-2.08,8.1.52,8.1,4.68v119.97c0,4.16-4.5,6.75-8.1,4.68l-103.89-59.98c-3.6-2.08-3.6-7.27,0-9.35Z"/>
        <path class="cls-7" d="M1212.83,1810.31v-119.97c0-4.16,4.5-6.76,8.1-4.68l103.89,59.98c3.6,2.08,3.6,7.27,0,9.35l-103.89,59.98c-3.6,2.08-8.1-.52-8.1-4.68Z"/>
        <path class="cls-7" d="M1470.65,1854.05l-103.89,59.98c-3.6,2.08-8.1-.52-8.1-4.68v-119.97c0-4.16,4.5-6.76,8.1-4.68l103.89,59.98c3.6,2.08,3.6,7.27,0,9.35Z"/>
        <path class="cls-7" d="M2095.89,2279.98l103.89,59.98c3.6,2.08,3.6,7.27,0,9.35l-103.89,59.98c-3.6,2.08-8.1-.52-8.1-4.68v-119.97c0-4.16,4.5-6.76,8.1-4.68Z"/>
        <path class="cls-7" d="M2062.06,2284.65v119.97c0,4.16-4.5,6.75-8.1,4.68l-103.89-59.98c-3.6-2.08-3.6-7.27,0-9.35l103.89-59.98c3.6-2.08,8.1.52,8.1,4.68Z"/>
        <path class="cls-7" d="M2387.54,2279.98l103.89,59.98c3.6,2.08,3.6,7.27,0,9.35l-103.89,59.98c-3.6,2.08-8.1-.52-8.1-4.68v-119.97c0-4.16,4.5-6.76,8.1-4.68Z"/>
        <path class="cls-7" d="M2387.54,2240.91l103.89-59.98c3.6-2.08,8.1.52,8.1,4.68v119.97c0,4.16-4.5,6.75-8.1,4.68l-103.89-59.98c-3.6-2.08-3.6-7.27,0-9.35Z"/>
      </g>
    </g>
    <g id="Layer_6" data-name="Layer 6">
      <g class="cls-1">
        <circle class="cls-3" cx="1743.52" cy="891.42" r="9.92" transform="translate(-208.41 735.07) rotate(-22.5)"/>
        <circle class="cls-3" cx="2252.52" cy="1311.24" r="9.92"/>
        <circle class="cls-3" cx="2526.85" cy="1103.14" r="9.92"/>
        <circle class="cls-3" cx="1889.35" cy="1530.12" r="9.92"/>
        <circle class="cls-3" cx="2618.55" cy="1631.16" r="9.92"/>
        <circle class="cls-3" cx="2644.22" cy="1242.36" r="9.92"/>
        <circle class="cls-3" cx="1985.17" cy="1184.91" r="9.92"/>
        <circle class="cls-3" cx="2206.73" cy="752.99" r="9.92"/>
        <circle class="cls-3" cx="2700" cy="425.55" r="9.92"/>
        <circle class="cls-3" cx="1413.3" cy="1604.21" r="9.92"/>
        <circle class="cls-3" cx="1597.69" cy="1742.24" r="9.92"/>
        <circle class="cls-3" cx="1236.39" cy="1809.18" r="9.92"/>
        <circle class="cls-3" cx="2116.7" cy="1980.62" r="9.92"/>
        <circle class="cls-3" cx="1769.34" cy="2054.09" r="9.92"/>
        <circle class="cls-3" cx="2498.39" cy="2146.55" r="9.92"/>
        <circle class="cls-3" cx="2091.26" cy="579.26" r="9.92" transform="translate(1184.5 2550.73) rotate(-80.78)"/>
        <circle class="cls-3" cx="2583.58" cy="779.98" r="9.92"/>
        <circle class="cls-3" cx="2472.65" cy="329.97" r="9.92"/>
        <circle class="cls-3" cx="2498.45" cy="166.55" r="9.92"/>
        <circle class="cls-3" cx="2060.91" cy="238.94" r="9.92"/>
      </g>
    </g>
  </g>
</svg>
