<?xml version="1.0" encoding="UTF-8"?>
<svg id="Layer_2" data-name="Layer 2" xmlns="http://www.w3.org/2000/svg" xmlns:xlink="http://www.w3.org/1999/xlink" viewBox="0 0 1800 1320">
  <defs>
    <style>
      .cls-1 {
        fill: #020202;
      }

      .cls-2 {
        fill: none;
      }

      .cls-3 {
        clip-path: url(#clippath);
      }
    </style>
    <clipPath id="clippath">
      <rect class="cls-2" width="1800" height="1320"/>
    </clipPath>
  </defs>
  <g class="cls-3">
    <g>
      <g>
        <rect x="1872.32" y="488.27" width=".72" height="500.88" transform="translate(296.6 1991.14) rotate(-60)"/>
        <rect x="1405.92" y="529.58" width="500.88" height=".72" transform="translate(-43.04 899.26) rotate(-30)"/>
        <rect x="766.35" y="721.4" width="393.91" height=".64" transform="translate(-231.77 578.06) rotate(-29.99)"/>
        <rect x="468.65" y="1360.23" width="500.88" height=".72" transform="translate(-583.99 541.89) rotate(-30)"/>
        <rect x="380.03" y="731.45" width=".62" height="367.55" transform="translate(-602.44 786.99) rotate(-60)"/>
        <rect x="243.01" y="735.49" width=".62" height="367.55" transform="translate(-674.44 670.35) rotate(-60)"/>
        <rect x="1314" y="481.95" width=".62" height="367.55" transform="translate(80.63 1471.09) rotate(-60)"/>
        <rect x="990.06" y="954.55" width=".55" height="292.45" transform="translate(-458.13 1408.04) rotate(-60)"/>
      </g>
      <g>
        <path d="M575.84,738.46l-.18-.1-72.17-41.67v-83.54l.18-.1,72.17-41.67,72.35,41.77v83.54l-.18.1-72.17,41.67ZM504.22,696.27l71.63,41.36,71.63-41.36v-82.71l-71.63-41.35-71.63,41.35v82.71Z"/>
        <path d="M863.8,821.58l-.18-.1-72.17-41.67v-83.54l.18-.1,72.17-41.67.18.1,72.17,41.67v83.54l-.18.1-72.17,41.67ZM792.17,779.4l71.63,41.36,71.63-41.36v-82.71l-71.63-41.36-71.63,41.36v82.71Z"/>
        <path d="M791.81,821.84l-.48-.28-72.47-41.84v-84.23l.48-.28,72.47-41.84,72.95,42.12v84.23l-.48.28-72.47,41.84ZM720.78,778.61l71.03,41.01,71.03-41.01v-82.02l-71.03-41.01-71.03,41.01v82.02Z"/>
        <path d="M1007.78,696.44l-.18-.1-72.17-41.67v-83.54l.18-.1,72.17-41.67,72.35,41.77v83.54l-.18.1-72.17,41.67ZM936.15,654.25l71.63,41.36,71.63-41.36v-82.71l-71.63-41.36-71.63,41.36v82.71Z"/>
        <path d="M935.79,738.02l-.18-.1-72.17-41.67v-83.54l.18-.1,72.17-41.67,72.35,41.77v83.54l-.18.1-72.17,41.67ZM864.16,695.83l71.63,41.36,71.63-41.36v-82.71l-71.63-41.36-71.63,41.36v82.71Z"/>
        <path d="M575.84,780.26l-.48-.28-72.47-41.84v-84.23l72.95-42.12,72.95,42.12v84.23l-.48.28-72.47,41.84ZM504.82,737.03l71.03,41.01,71.03-41.01v-82.02l-71.03-41.01-71.03,41.01v82.02Z"/>
        <path d="M503.86,821.14l-.18-.1-72.17-41.67v-83.54l.18-.1,72.17-41.67,72.35,41.77v83.54l-.18.1-72.17,41.67ZM432.23,778.96l71.63,41.35,71.63-41.35v-82.71l-71.63-41.35-71.63,41.35v82.71Z"/>
        <path d="M719.82,779.57l-.18-.1-72.17-41.67v-83.54l.18-.1,72.17-41.67,72.35,41.77v83.54l-.18.1-72.17,41.67ZM648.19,737.38l71.63,41.35,71.63-41.35v-82.71l-71.63-41.36-71.63,41.36v82.71Z"/>
        <path d="M719.82,696.44l-.18-.1-72.17-41.67v-83.54l.18-.1,72.17-41.67,72.35,41.77v83.54l-.18.1-72.17,41.67ZM648.19,654.25l71.63,41.36,71.63-41.36v-82.71l-71.63-41.36-71.63,41.36v82.71Z"/>
        <path d="M1079.77,1445.74l-.48-.28-72.47-41.84v-84.23l.48-.28,72.47-41.84.48.28,72.47,41.84v84.23l-.48.28-72.47,41.84ZM1008.74,1402.51l71.03,41.01,71.03-41.01v-82.02l-71.03-41.01-71.03,41.01v82.02Z"/>
        <path d="M1007.78,1486.62l-.18-.1-72.17-41.67v-83.54l.18-.1,72.17-41.67.18.1,72.17,41.67v83.54l-.18.1-72.17,41.67ZM936.15,1444.44l71.63,41.35,71.63-41.35v-82.71l-71.63-41.35-71.63,41.35v82.71Z"/>
        <path d="M935.79,1445.05l-.18-.1-72.17-41.67v-83.54l.18-.1,72.17-41.67.18.1,72.17,41.67v83.54l-.18.1-72.17,41.67ZM864.16,1402.86l71.63,41.36,71.63-41.36v-82.71l-71.63-41.36-71.63,41.36v82.71Z"/>
        <path d="M935.79,1362.61l-.48-.28-72.47-41.84v-84.23l.48-.28,72.47-41.84.48.28,72.47,41.84v84.23l-.48.28-72.47,41.84ZM864.76,1319.39l71.03,41.01,71.03-41.01v-82.02l-71.03-41.01-71.03,41.01v82.02Z"/>
        <path d="M503.86,1485.73l-.18-.1-72.17-41.67v-83.54l.18-.1,72.17-41.67.18.1,72.17,41.67v83.54l-.18.1-72.17,41.67ZM432.23,1443.55l71.63,41.36,71.63-41.36v-82.71l-71.63-41.35-71.63,41.35v82.71Z"/>
        <path d="M359.88,1485.73l-.18-.1-72.17-41.67v-83.54l.18-.1,72.17-41.67.18.1,72.17,41.67v83.54l-.18.1-72.17,41.67ZM288.25,1443.55l71.63,41.36,71.63-41.36v-82.71l-71.63-41.36-71.63,41.36v82.71Z"/>
        <path d="M359.88,1402.61l-.18-.1-72.17-41.67v-83.54l.18-.1,72.17-41.67.18.1,72.17,41.67v83.54l-.18.1-72.17,41.67ZM288.25,1360.42l71.63,41.36,71.63-41.36v-82.71l-71.63-41.36-71.63,41.36v82.71Z"/>
        <path d="M1223.75,1320.79l-.18-.1-72.17-41.67v-83.54l.18-.1,72.17-41.67.18.1,72.17,41.67v83.54l-.18.1-72.17,41.67ZM1152.12,1278.6l71.63,41.36,71.63-41.36v-82.71l-71.63-41.35-71.63,41.35v82.71Z"/>
        <path d="M1151.76,1320.35l-.18-.1-72.17-41.67v-83.54l.18-.1,72.17-41.67.18.1,72.17,41.67v83.54l-.18.1-72.17,41.67ZM1080.13,1278.16l71.63,41.35,71.63-41.35v-82.71l-71.63-41.36-71.63,41.36v82.71Z"/>
        <path d="M1367.72,1195.64l-.18-.1-72.17-41.67v-83.54l.18-.1,72.17-41.67.18.1,72.17,41.67v83.54l-.18.1-72.17,41.67ZM1296.09,1153.46l71.63,41.35,71.63-41.35v-82.71l-71.63-41.36-71.63,41.36v82.71Z"/>
        <path d="M1079.77,1278.77l-.18-.1-72.17-41.67v-83.54l.18-.1,72.17-41.67.18.1,72.17,41.67v83.54l-.18.1-72.17,41.67ZM1008.14,1236.58l71.63,41.36,71.63-41.36v-82.71l-71.63-41.35-71.63,41.35v82.71Z"/>
        <path d="M1655.68,1445.74l-.48-.28-72.47-41.84v-84.23l.48-.28,72.47-41.84.48.28,72.47,41.84v84.23l-.48.28-72.47,41.84ZM1584.65,1402.51l71.03,41.01,71.03-41.01v-82.02l-71.03-41.01-71.03,41.01v82.02Z"/>
        <path d="M1583.69,1486.62l-.18-.1-72.17-41.67v-83.54l.18-.1,72.17-41.67.18.1,72.17,41.67v83.54l-.18.1-72.17,41.67ZM1512.06,1444.44l71.63,41.35,71.63-41.35v-82.71l-71.63-41.35-71.63,41.35v82.71Z"/>
        <path d="M1799.66,1320.79l-.18-.1-72.17-41.67v-83.54l.18-.1,72.17-41.67.18.1,72.17,41.67v83.54l-.18.1-72.17,41.67ZM1728.03,1278.6l71.63,41.36,71.63-41.36v-82.71l-71.63-41.35-71.63,41.35v82.71Z"/>
        <path d="M1727.67,1320.35l-.18-.1-72.17-41.67v-83.54l.18-.1,72.17-41.67.18.1,72.17,41.67v83.54l-.18.1-72.17,41.67ZM1656.04,1278.16l71.63,41.35,71.63-41.35v-82.71l-71.63-41.36-71.63,41.36v82.71Z"/>
        <path d="M1655.68,1278.77l-.18-.1-72.17-41.67v-83.54l.18-.1,72.17-41.67.18.1,72.17,41.67v83.54l-.18.1-72.17,41.67ZM1584.05,1236.58l71.63,41.36,71.63-41.36v-82.71l-71.63-41.35-71.63,41.35v82.71Z"/>
        <path d="M1079.77,1195.64l-.18-.1-72.17-41.67v-83.54l.18-.1,72.17-41.67.18.1,72.17,41.67v83.54l-.18.1-72.17,41.67ZM1008.14,1153.46l71.63,41.35,71.63-41.35v-82.71l-71.63-41.36-71.63,41.36v82.71Z"/>
        <path d="M1223.75,1195.64l-.18-.1-72.17-41.67v-83.54l.18-.1,72.17-41.67.18.1,72.17,41.67v83.54l-.18.1-72.17,41.67ZM1152.12,1153.46l71.63,41.35,71.63-41.35v-82.71l-71.63-41.36-71.63,41.36v82.71Z"/>
        <path d="M1223.75,1113.21l-.48-.28-72.47-41.84v-84.23l.48-.28,72.47-41.84.48.28,72.47,41.84v84.23l-.48.28-72.47,41.84ZM1152.72,1069.99l71.03,41.01,71.03-41.01v-82.02l-71.03-41.01-71.03,41.01v82.02Z"/>
        <path d="M647.83,904.25l-.18-.1-72.17-41.67v-83.54l.18-.1,72.17-41.67.18.1,72.17,41.67v83.54l-.18.1-72.17,41.67ZM576.2,862.07l71.63,41.35,71.63-41.35v-82.71l-71.63-41.35-71.63,41.35v82.71Z"/>
        <path d="M935.79,987.38l-.18-.1-72.17-41.67v-83.54l.18-.1,72.17-41.67.18.1,72.17,41.67v83.54l-.18.1-72.17,41.67ZM864.16,945.19l71.63,41.35,71.63-41.35v-82.71l-71.63-41.35-71.63,41.35v82.71Z"/>
        <path d="M1007.78,904.69l-.18-.1-72.17-41.67v-83.54l.18-.1,72.17-41.67.18.1,72.17,41.67v83.54l-.18.1-72.17,41.67ZM936.15,862.5l71.63,41.36,71.63-41.36v-82.71l-71.63-41.35-71.63,41.35v82.71Z"/>
        <path d="M1079.77,946.98l-.48-.28-72.47-41.84v-84.23l.48-.28,72.47-41.84.48.28,72.47,41.84v84.23l-.48.28-72.47,41.84ZM1008.74,903.75l71.03,41.01,71.03-41.01v-82.02l-71.03-41.01-71.03,41.01v82.02Z"/>
        <path d="M1223.74,821.14l-.18-.1-72.17-41.67v-83.54l.18-.1,72.17-41.67,72.35,41.77v83.54l-.18.1-72.17,41.67ZM1152.12,778.96l71.63,41.35,71.63-41.35v-82.71l-71.63-41.36-71.63,41.36v82.71Z"/>
        <path d="M1151.76,862.72l-.18-.1-72.17-41.67v-83.54l.18-.1,72.17-41.67.18.1,72.17,41.67v83.54l-.18.1-72.17,41.67ZM1080.13,820.53l71.63,41.35,71.63-41.35v-82.71l-71.63-41.35-71.63,41.35v82.71Z"/>
        <path d="M1079.77,821.14l-.18-.1-72.17-41.67v-83.54l.18-.1,72.17-41.67,72.35,41.77v83.54l-.18.1-72.17,41.67ZM1008.14,778.96l71.63,41.35,71.63-41.35v-82.71l-71.63-41.36-71.63,41.36v82.71Z"/>
        <path d="M1151.76,1112.08l-.18-.1-72.17-41.67v-83.54l.18-.1,72.17-41.67.18.1,72.17,41.67v83.54l-.18.1-72.17,41.67ZM1080.13,1069.9l71.63,41.36,71.63-41.36v-82.71l-71.63-41.36-71.63,41.36v82.71Z"/>
        <path d="M1079.77,1112.54l-.18-.1-72.17-41.67v-83.54l.18-.1,72.17-41.67.18.1,72.17,41.67v83.54l-.18.1-72.17,41.67ZM1008.14,1070.35l71.63,41.35,71.63-41.35v-82.71l-71.63-41.35-71.63,41.35v82.71Z"/>
        <path d="M1295.73,987.82l-.18-.1-72.17-41.67v-83.54l.18-.1,72.17-41.67.18.1,72.17,41.67v83.54l-.18.1-72.17,41.67ZM1224.1,945.63l71.63,41.35,71.63-41.35v-82.71l-71.63-41.36-71.63,41.36v82.71Z"/>
        <path d="M1223.74,1029.39l-.18-.1-72.17-41.67v-83.54l.18-.1,72.17-41.67.18.1,72.17,41.67v83.54l-.18.1-72.17,41.67ZM1152.12,987.21l71.63,41.35,71.63-41.35v-82.71l-71.63-41.36-71.63,41.36v82.71Z"/>
        <path d="M503.86,1236.35l-.18-.1-72.17-41.67v-83.54l.18-.1,72.17-41.67.18.1,72.17,41.67v83.54l-.18.1-72.17,41.67ZM432.23,1194.16l71.63,41.35,71.63-41.35v-82.71l-71.63-41.36-71.63,41.36v82.71Z"/>
        <path d="M647.83,1111.21l-.18-.1-72.17-41.67v-83.54l.18-.1,72.17-41.67.18.1,72.17,41.67v83.54l-.18.1-72.17,41.67ZM576.21,1069.02l71.63,41.35,71.63-41.35v-82.71l-71.63-41.35-71.63,41.35v82.71Z"/>
        <path d="M575.85,1152.78l-.18-.1-72.17-41.67v-83.54l.18-.1,72.17-41.67.18.1,72.17,41.67v83.54l-.18.1-72.17,41.67ZM504.22,1110.6l71.63,41.36,71.63-41.36v-82.71l-71.63-41.35-71.63,41.35v82.71Z"/>
        <path d="M575.85,1402.15l-.18-.1-72.17-41.67v-83.54l.18-.1,72.17-41.67.18.1,72.17,41.67v83.54l-.18.1-72.17,41.67ZM504.22,1359.96l71.63,41.36,71.63-41.36v-82.71l-71.63-41.36-71.63,41.36v82.71Z"/>
        <path d="M503.86,1402.6l-.18-.1-72.17-41.67v-83.54l.18-.1,72.17-41.67.18.1,72.17,41.67v83.54l-.18.1-72.17,41.67ZM432.23,1360.41l71.63,41.35,71.63-41.35v-82.71l-71.63-41.36-71.63,41.36v82.71Z"/>
        <path d="M719.82,1278.57l-.48-.28-72.47-41.84v-84.23l.48-.28,72.47-41.84.48.28,72.47,41.84v84.23l-.48.28-72.47,41.84ZM648.79,1235.35l71.03,41.01,71.03-41.01v-82.02l-71.03-41.01-71.03,41.01v82.02Z"/>
        <path d="M647.83,1319.46l-.18-.1-72.17-41.67v-83.54l.18-.1,72.17-41.67.18.1,72.17,41.67v83.54l-.18.1-72.17,41.67ZM576.21,1277.27l71.63,41.35,71.63-41.35v-82.71l-71.63-41.35-71.63,41.35v82.71Z"/>
        <path d="M719.82,1070.05l-.18-.1-72.17-41.67v-83.54l.18-.1,72.17-41.67.18.1,72.17,41.67v83.54l-.18.1-72.17,41.67ZM648.19,1027.87l71.63,41.35,71.63-41.35v-82.71l-71.63-41.35-71.63,41.35v82.71Z"/>
        <path d="M863.8,1028.08l-.18-.1-72.17-41.67v-83.54l.18-.1,72.17-41.67.18.1,72.17,41.67v83.54l-.18.1-72.17,41.67ZM792.17,985.89l71.63,41.36,71.63-41.36v-82.71l-71.63-41.35-71.63,41.35v82.71Z"/>
        <path d="M863.8,1277.44l-.18-.1-72.17-41.67v-83.54l.18-.1,72.17-41.67.18.1,72.17,41.67v83.54l-.18.1-72.17,41.67ZM792.17,1235.26l71.63,41.35,71.63-41.35v-82.71l-71.63-41.35-71.63,41.35v82.71Z"/>
        <path d="M791.81,1278.79l-.18-.1-72.17-41.67v-83.54l.18-.1,72.17-41.67.18.1,72.17,41.67v83.54l-.18.1-72.17,41.67ZM720.18,1236.6l71.63,41.35,71.63-41.35v-82.71l-71.63-41.36-71.63,41.36v82.71Z"/>
        <path d="M791.81,1194.99l-.18-.1-72.17-41.67v-83.54l.18-.1,72.17-41.67.18.1,72.17,41.67v83.54l-.18.1-72.17,41.67ZM720.18,1152.8l71.63,41.35,71.63-41.35v-82.71l-71.63-41.36-71.63,41.36v82.71Z"/>
        <path d="M1583.69,1196.79l-.48-.28-72.47-41.84v-84.23l.48-.28,72.47-41.84.48.28,72.47,41.84v84.23l-.48.28-72.47,41.84ZM1512.66,1153.57l71.03,41.01,71.03-41.01v-82.02l-71.03-41.01-71.03,41.01v82.02Z"/>
        <path d="M1511.7,1195.66l-.18-.1-72.17-41.67v-83.54l.18-.1,72.17-41.67.18.1,72.17,41.67v83.54l-.18.1-72.17,41.67ZM1440.07,1153.48l71.63,41.35,71.63-41.35v-82.71l-71.63-41.36-71.63,41.36v82.71Z"/>
        <path d="M1727.67,1070.96l-.18-.1-72.17-41.67v-83.54l.18-.1,72.17-41.67.18.1,72.17,41.67v83.54l-.18.1-72.17,41.67ZM1656.04,1028.77l71.63,41.36,71.63-41.36v-82.71l-71.63-41.36-71.63,41.36v82.71Z"/>
        <path d="M1655.68,1113.23l-.48-.28-72.47-41.84v-84.23l.48-.28,72.47-41.84.48.28,72.47,41.84v84.23l-.48.28-72.47,41.84ZM1584.65,1070l71.03,41.01,71.03-41.01v-82.02l-71.03-41.01-71.03,41.01v82.02Z"/>
        <path d="M1439.71,1154.08l-.18-.1-72.17-41.67v-83.54l.18-.1,72.17-41.67.18.1,72.17,41.67v83.54l-.18.1-72.17,41.67ZM1368.08,1111.9l71.63,41.35,71.63-41.35v-82.71l-71.63-41.35-71.63,41.35v82.71Z"/>
        <path d="M1583.69,1070.96l-.18-.1-72.17-41.67v-83.54l.18-.1,72.17-41.67.18.1,72.17,41.67v83.54l-.18.1-72.17,41.67ZM1512.06,1028.77l71.63,41.36,71.63-41.36v-82.71l-71.63-41.36-71.63,41.36v82.71Z"/>
        <path d="M1583.69,987.83l-.18-.1-72.17-41.67v-83.54l.18-.1,72.17-41.67.18.1,72.17,41.67v83.54l-.18.1-72.17,41.67ZM1512.06,945.65l71.63,41.35,71.63-41.35v-82.71l-71.63-41.35-71.63,41.35v82.71Z"/>
        <path d="M1439.71,821.6l-.18-.1-72.17-41.67v-83.54l.18-.1,72.17-41.67.18.1,72.17,41.67v83.54l-.18.1-72.17,41.67ZM1368.08,779.41l71.63,41.35,71.63-41.35v-82.71l-71.63-41.36-71.63,41.36v82.71Z"/>
        <path d="M1439.71,987.85l-.18-.1-72.17-41.67v-83.54l.18-.1,72.17-41.67.18.1,72.17,41.67v83.54l-.18.1-72.17,41.67ZM1368.08,945.67l71.63,41.35,71.63-41.35v-82.71l-71.63-41.36-71.63,41.36v82.71Z"/>
        <path d="M1655.68,863.13l-.18-.1-72.17-41.67v-83.54l.18-.1,72.17-41.67.18.1,72.17,41.67v83.54l-.18.1-72.17,41.67ZM1584.05,820.94l71.63,41.36,71.63-41.36v-82.71l-71.63-41.36-71.63,41.36v82.71Z"/>
        <path d="M1583.69,905.4l-.48-.28-72.47-41.84v-84.23l.48-.28,72.47-41.84.48.28,72.47,41.84v84.23l-.48.28-72.47,41.84ZM1512.66,862.18l71.03,41.01,71.03-41.01v-82.02l-71.03-41.01-71.03,41.01v82.02Z"/>
        <path d="M1511.7,780.04l-.18-.1-72.17-41.67v-83.54l.18-.1,72.17-41.67,72.35,41.77v83.54l-.18.1-72.17,41.67ZM1440.07,737.85l71.63,41.35,71.63-41.35v-82.71l-71.63-41.36-71.63,41.36v82.71Z"/>
        <path d="M1583.69,655.34l-72.35-41.77v-83.54l.18-.1,72.17-41.67,72.35,41.77v83.54l-.18.1-72.17,41.67ZM1512.06,613.15l71.63,41.36,71.63-41.36v-82.71l-71.63-41.36-71.63,41.36v82.71Z"/>
        <path d="M1511.7,696.91l-.18-.1-72.17-41.67v-83.54l.18-.1,72.17-41.67,72.35,41.77v83.54l-.18.1-72.17,41.67ZM1440.07,654.73l71.63,41.35,71.63-41.35v-82.71l-71.63-41.36-71.63,41.36v82.71Z"/>
        <path d="M1367.72,1029.38l-.18-.1-72.17-41.67v-83.54l.18-.1,72.17-41.67.18.1,72.17,41.67v83.54l-.18.1-72.17,41.67ZM1296.09,987.2l71.63,41.36,71.63-41.36v-82.71l-71.63-41.36-71.63,41.36v82.71Z"/>
        <path d="M1367.72,904.73l-.18-.1-72.17-41.67v-83.54l.18-.1,72.17-41.67.18.1,72.17,41.67v83.54l-.18.1-72.17,41.67ZM1296.09,862.54l71.63,41.35,71.63-41.35v-82.71l-71.63-41.36-71.63,41.36v82.71Z"/>
        <path d="M215.9,1361.48l-.18-.1-72.17-41.67v-83.54l.18-.1,72.17-41.67.18.1,72.17,41.67v83.54l-.18.1-72.17,41.67ZM144.27,1319.29l71.63,41.36,71.63-41.36v-82.71l-71.63-41.35-71.63,41.35v82.71Z"/>
        <path d="M143.91,1361.73l-.48-.28-72.47-41.84v-84.23l.48-.28,72.47-41.84.48.28,72.47,41.84v84.23l-.48.28-72.47,41.84ZM72.88,1318.5l71.03,41.01,71.03-41.01v-82.02l-71.03-41.01-71.03,41.01v82.02Z"/>
        <path d="M359.88,1236.33l-.18-.1-72.17-41.67v-83.54l.18-.1,72.17-41.67.18.1,72.17,41.67v83.54l-.18.1-72.17,41.67ZM288.25,1194.15l71.63,41.35,71.63-41.35v-82.71l-71.63-41.35-71.63,41.35v82.71Z"/>
        <path d="M287.89,1277.91l-.18-.1-72.17-41.67v-83.54l.18-.1,72.17-41.67.18.1,72.17,41.67v83.54l-.18.1-72.17,41.67ZM216.26,1235.72l71.63,41.35,71.63-41.35v-82.71l-71.63-41.36-71.63,41.36v82.71Z"/>
        <path d="M71.92,1320.15l-.48-.28L-1.03,1278.03v-84.23l.48-.28,72.47-41.84.48.28,72.47,41.84v84.23l-.48.28-72.47,41.84ZM.89,1276.93l71.03,41.01,71.03-41.01v-82.02l-71.03-41.01L.89,1194.91v82.02Z"/>
        <path d="M71.92,1236.33l-.18-.1L-.43,1194.56v-83.54l.18-.1,72.17-41.67.18.1,72.17,41.67v83.54l-.18.1-72.17,41.67ZM.29,1194.15l71.63,41.35,71.63-41.35v-82.71l-71.63-41.35L.29,1111.44v82.71Z"/>
        <path d="M215.9,1236.33l-.18-.1-72.17-41.67v-83.54l.18-.1,72.17-41.67.18.1,72.17,41.67v83.54l-.18.1-72.17,41.67ZM144.27,1194.15l71.63,41.35,71.63-41.35v-82.71l-71.63-41.35-71.63,41.35v82.71Z"/>
        <path d="M215.9,1153.21l-.18-.1-72.17-41.67v-83.54l.18-.1,72.17-41.67.18.1,72.17,41.67v83.54l-.18.1-72.17,41.67ZM144.27,1111.02l71.63,41.35,71.63-41.35v-82.71l-71.63-41.35-71.63,41.35v82.71Z"/>
        <path d="M143.91,1152.77l-.18-.1-72.17-41.67v-83.54l.18-.1,72.17-41.67.18.1,72.17,41.67v83.54l-.18.1-72.17,41.67ZM72.28,1110.58l71.63,41.35,71.63-41.35v-82.71l-71.63-41.35-71.63,41.35v82.71Z"/>
        <path d="M71.92,1153.23l-.18-.1L-.43,1111.45v-83.54l.18-.1,72.17-41.67.18.1,72.17,41.67v83.54l-.18.1-72.17,41.67ZM.29,1111.04l71.63,41.36,71.63-41.36v-82.71l-71.63-41.35L.29,1028.33v82.71Z"/>
        <path d="M287.89,1028.5l-.18-.1-72.17-41.67v-83.54l.18-.1,72.17-41.67.18.1,72.17,41.67v83.54l-.18.1-72.17,41.67ZM216.26,986.32l71.63,41.35,71.63-41.35v-82.71l-71.63-41.36-71.63,41.36v82.71Z"/>
        <path d="M215.9,1070.77l-.48-.28-72.47-41.84v-84.23l.48-.28,72.47-41.84.48.28,72.47,41.84v84.23l-.48.28-72.47,41.84ZM144.87,1027.55l71.03,41.01,71.03-41.01v-82.02l-71.03-41.01-71.03,41.01v82.02Z"/>
        <path d="M503.86,1237.04l-.48-.28-72.47-41.84v-84.23l.48-.28,72.47-41.84.48.28,72.47,41.84v84.23l-.48.28-72.47,41.84ZM432.83,1193.82l71.03,41.01,71.03-41.01v-82.02l-71.03-41.01-71.03,41.01v82.02Z"/>
        <path d="M431.87,1194.77l-.18-.1-72.17-41.67v-83.54l.18-.1,72.17-41.67.18.1,72.17,41.67v83.54l-.18.1-72.17,41.67ZM360.24,1152.59l71.63,41.36,71.63-41.36v-82.71l-71.63-41.36-71.63,41.36v82.71Z"/>
        <path d="M431.87,1112.34l-.48-.28-72.47-41.84v-84.23l.48-.28,72.47-41.84.48.28,72.47,41.84v84.23l-.48.28-72.47,41.84ZM360.84,1069.12l71.03,41.01,71.03-41.01v-82.02l-71.03-41.01-71.03,41.01v82.02Z"/>
        <path d="M359.88,986.96l-.18-.1-72.17-41.67v-83.54l.18-.1,72.17-41.67.18.1,72.17,41.67v83.54l-.18.1-72.17,41.67ZM288.25,944.77l71.63,41.35,71.63-41.35v-82.71l-71.63-41.35-71.63,41.35v82.71Z"/>
        <path d="M431.87,1028.54l-.18-.1-72.17-41.67v-83.54l.18-.1,72.17-41.67.18.1,72.17,41.67v83.54l-.18.1-72.17,41.67ZM360.24,986.35l71.63,41.35,71.63-41.35v-82.71l-71.63-41.35-71.63,41.35v82.71Z"/>
        <path d="M1583.69,1486.59l-.18-.1-72.17-41.67v-83.54l.18-.1,72.17-41.67.18.1,72.17,41.67v83.54l-.18.1-72.17,41.67ZM1512.06,1444.4l71.63,41.35,71.63-41.35v-82.71l-71.63-41.35-71.63,41.35v82.71Z"/>
        <path d="M1295.73,1486.59l-.18-.1-72.17-41.67v-83.54l.18-.1,72.17-41.67.18.1,72.17,41.67v83.54l-.18.1-72.17,41.67ZM1224.1,1444.4l71.63,41.35,71.63-41.35v-82.71l-71.63-41.35-71.63,41.35v82.71Z"/>
        <path d="M1439.71,1486.59l-.18-.1-72.17-41.67v-83.54l.18-.1,72.17-41.67.18.1,72.17,41.67v83.54l-.18.1-72.17,41.67ZM1368.08,1444.4l71.63,41.35,71.63-41.35v-82.71l-71.63-41.35-71.63,41.35v82.71Z"/>
        <path d="M1439.71,1403.46l-.18-.1-72.17-41.67v-83.54l.18-.1,72.17-41.67.18.1,72.17,41.67v83.54l-.18.1-72.17,41.67ZM1368.08,1361.27l71.63,41.36,71.63-41.36v-82.71l-71.63-41.35-71.63,41.35v82.71Z"/>
        <path d="M1367.72,1403.91l-.18-.1-72.17-41.67v-83.54l.18-.1,72.17-41.67.18.1,72.17,41.67v83.54l-.18.1-72.17,41.67ZM1296.09,1361.73l71.63,41.35,71.63-41.35v-82.71l-71.63-41.35-71.63,41.35v82.71Z"/>
        <path d="M1295.73,1403.48l-.18-.1-72.17-41.67v-83.54l.18-.1,72.17-41.67.18.1,72.17,41.67v83.54l-.18.1-72.17,41.67ZM1224.1,1361.29l71.63,41.36,71.63-41.36v-82.71l-71.63-41.35-71.63,41.35v82.71Z"/>
        <path d="M1511.7,1278.76l-.18-.1-72.17-41.67v-83.54l.18-.1,72.17-41.67.18.1,72.17,41.67v83.54l-.18.1-72.17,41.67ZM1440.07,1236.57l71.63,41.35,71.63-41.35v-82.71l-71.63-41.35-71.63,41.35v82.71Z"/>
        <path d="M1439.71,1320.33l-.18-.1-72.17-41.67v-83.54l.18-.1,72.17-41.67.18.1,72.17,41.67v83.54l-.18.1-72.17,41.67ZM1368.08,1278.15l71.63,41.35,71.63-41.35v-82.71l-71.63-41.35-71.63,41.35v82.71Z"/>
        <path d="M1583.69,1320.32l-.18-.1-72.17-41.67v-83.54l.18-.1,72.17-41.67.18.1,72.17,41.67v83.54l-.18.1-72.17,41.67ZM1512.06,1278.14l71.63,41.36,71.63-41.36v-82.71l-71.63-41.36-71.63,41.36v82.71Z"/>
        <path d="M1799.66,863.87l-.48-.28-72.47-41.84v-84.23l.48-.28,72.47-41.84.48.28,72.47,41.84v84.23l-.48.28-72.47,41.84ZM1728.63,820.65l71.03,41.01,71.03-41.01v-82.02l-71.03-41.01-71.03,41.01v82.02Z"/>
        <path d="M1799.65,1195.68l-.18-.1-72.17-41.67v-83.54l.18-.1,72.17-41.67.18.1,72.17,41.67v83.54l-.18.1-72.17,41.67ZM1728.02,1153.49l71.63,41.36,71.63-41.36v-82.71l-71.63-41.36-71.63,41.36v82.71Z"/>
        <path d="M1799.65,946.28l-.18-.1-72.17-41.67v-83.54l.18-.1,72.17-41.67.18.1,72.17,41.67v83.54l-.18.1-72.17,41.67ZM1728.02,904.09l71.63,41.36,71.63-41.36v-82.71l-71.63-41.36-71.63,41.36v82.71Z"/>
        <path d="M935.79,1195.66l-.18-.1-72.17-41.67v-83.54l.18-.1,72.17-41.67.18.1,72.17,41.67v83.54l-.18.1-72.17,41.67ZM864.16,1153.48l71.63,41.35,71.63-41.35v-82.71l-71.63-41.36-71.63,41.36v82.71Z"/>
        <path d="M647.83,945.36l-.18-.1-72.17-41.67v-83.54l.18-.1,72.17-41.67.18.1,72.17,41.67v83.54l-.18.1-72.17,41.67ZM576.2,903.18l71.63,41.35,71.63-41.35v-82.71l-71.63-41.35-71.63,41.35v82.71Z"/>
        <path d="M575.84,986.94l-.18-.1-72.17-41.67v-83.54l.18-.1,72.17-41.67.18.1,72.17,41.67v83.54l-.18.1-72.17,41.67ZM504.22,944.75l71.63,41.36,71.63-41.36v-82.71l-71.63-41.36-71.63,41.36v82.71Z"/>
      </g>
      <g>
        <circle class="cls-1" cx="221.18" cy="823.33" r="5.39"/>
        <circle class="cls-1" cx="1133.87" cy="623.24" r="5.39"/>
        <circle class="cls-1" cx="1655.68" cy="696.46" r="5.39"/>
        <circle class="cls-1" cx="1295.73" cy="1070.76" r="5.39"/>
        <circle class="cls-1" cx="863.7" cy="1027.67" r="5.39"/>
        <path class="cls-1" d="M581.23,779.15c0,2.98-2.41,5.39-5.39,5.39s-5.39-2.41-5.39-5.39,2.41-5.39,5.39-5.39,5.39,2.41,5.39,5.39Z"/>
        <path class="cls-1" d="M5.32,1028.13c0,2.98-2.41,5.39-5.39,5.39s-5.39-2.41-5.39-5.39,2.41-5.39,5.39-5.39,5.39,2.41,5.39,5.39Z"/>
        <circle class="cls-1" cx="431.87" cy="1277.39" r="5.39"/>
        <circle class="cls-1" cx="215.9" cy="1152.79" r="5.39"/>
        <circle class="cls-1" cx="1367.72" cy="862.72" r="5.39"/>
      </g>
    </g>
  </g>
</svg>