<?xml version="1.0" encoding="UTF-8"?>
<svg xmlns="http://www.w3.org/2000/svg" xmlns:xlink="http://www.w3.org/1999/xlink" viewBox="251.99 82.44 1800 1320">
  <defs>
    <style>
      .cls-1 {
        fill: #777;
      }

      .cls-2 {
        fill: none;
      }

      .cls-3 {
        fill: #666;
        opacity: .1;
      }

      .cls-4 {
        clip-path: url(#clippath-1);
      }

      .cls-5 {
        clip-path: url(#clippath-2);
      }

      .cls-6 {
        clip-path: url(#clippath);
      }
    </style>
    <clipPath id="clippath">
      <rect class="cls-2" x="251.99" y="24.1" width="1800" height="1320"/>
    </clipPath>
    <clipPath id="clippath-1">
      <rect class="cls-2" x="251.99" y="82.44" width="1800" height="1320"/>
    </clipPath>
    <clipPath id="clippath-2">
      <rect class="cls-2" x="251.99" y="82.44" width="1800" height="1320"/>
    </clipPath>
  </defs>
  <g id="Layer_6" data-name="Layer 6">
    <g class="cls-6">
      <path class="cls-3" d="M1270.14,567.48v258.76l224.09,129.38,224.09-129.38v-258.76l-224.09-129.38-224.09,129.38ZM1710.13,572.2v249.3l-215.9,124.65-215.9-124.65v-249.3l215.9-124.65,215.9,124.65Z"/>
      <path class="cls-3" d="M405.05,815.45v172.01l148.97,86.01,148.97-86.01v-172.01l-148.97-86.01-148.97,86.01ZM697.54,818.6v165.72l-143.52,82.86-143.52-82.86v-165.72l143.52-82.86,143.52,82.86Z"/>
      <path class="cls-3" d="M1828.47,618.91v117.94l102.14,58.97,102.14-58.97v-117.94l-102.14-58.97-102.14,58.97ZM2029.02,621.06v113.63l-98.41,56.82-98.41-56.82v-113.63l98.41-56.82,98.41,56.82Z"/>
      <path class="cls-3" d="M1958.79,715.57v160.5l139,80.25,139-80.25v-160.5l-139-80.25-139,80.25ZM2231.71,718.5v154.64l-133.92,77.32-133.92-77.32v-154.64l133.92-77.32,133.92,77.32Z"/>
      <path class="cls-3" d="M1127.48,794.8v117.94l102.14,58.97,102.14-58.97v-117.94l-102.14-58.97-102.14,58.97ZM1328.03,796.95v113.63l-98.41,56.82-98.41-56.82v-113.63l98.41-56.82,98.41,56.82Z"/>
      <path class="cls-3" d="M354.02,469.56v95.64l82.82,47.82,82.82-47.82v-95.64l-82.82-47.82-82.82,47.82ZM516.64,471.31v92.14l-79.8,46.07-79.8-46.07v-92.14l79.8-46.07,79.8,46.07Z"/>
      <path class="cls-3" d="M0,588.14v191.78l166.09,95.89,166.09-95.89v-191.78l-166.09-95.89L0,588.14ZM326.11,591.65v184.77l-160.02,92.39L6.07,776.42v-184.77l160.02-92.39,160.02,92.39Z"/>
      <path class="cls-3" d="M696.7,473.28v56.41l48.85,28.2,48.85-28.2v-56.41l-48.85-28.2-48.85,28.2ZM792.61,474.31v54.35l-47.06,27.17-47.06-27.17v-54.35l47.06-27.17,47.06,27.17Z"/>
      <path class="cls-3" d="M939.64,586.47v45.89l39.75,22.95,39.75-22.95v-45.89l-39.75-22.95-39.75,22.95ZM1017.68,587.31v44.22l-38.29,22.11-38.29-22.11v-44.22l38.29-22.11,38.29,22.11Z"/>
      <path class="cls-3" d="M527.35,389.56v45.89l39.75,22.95,39.75-22.95v-45.89l-39.75-22.95-39.75,22.95ZM605.39,390.4v44.22l-38.29,22.11-38.29-22.11v-44.22l38.29-22.11,38.29,22.11Z"/>
      <path class="cls-3" d="M2035.22,446.48v45.89l39.75,22.95,39.75-22.95v-45.89l-39.75-22.95-39.75,22.95ZM2113.26,447.32v44.22l-38.29,22.11-38.29-22.11v-44.22l38.29-22.11,38.29,22.11Z"/>
      <path class="cls-3" d="M771.19,699.86v142.7l123.58,71.35,123.58-71.35v-142.7l-123.58-71.35-123.58,71.35ZM1013.84,702.47v137.49l-119.07,68.74-119.07-68.74v-137.49l119.07-68.74,119.07,68.74Z"/>
      <path class="cls-3" d="M960.41,619.89v115.46l99.99,57.73,99.99-57.73v-115.46l-99.99-57.73-99.99,57.73ZM1156.74,622v111.24l-96.34,55.62-96.34-55.62v-111.24l96.34-55.62,96.34,55.62Z"/>
      <path class="cls-3" d="M1059.39,731.79v78.59l68.06,39.29,68.06-39.29v-78.59l-68.06-39.29-68.06,39.29ZM1193.02,733.22v75.71l-65.57,37.86-65.57-37.86v-75.71l65.57-37.86,65.57,37.86Z"/>
      <path class="cls-3" d="M1530.14,874.6v78.59l68.06,39.29,68.06-39.29v-78.59l-68.06-39.29-68.06,39.29ZM1663.77,876.04v75.71l-65.57,37.86-65.57-37.86v-75.71l65.57-37.86,65.57,37.86Z"/>
      <path class="cls-3" d="M563.12,909.86v123.45l106.92,61.73,106.92-61.73v-123.45l-106.92-61.73-106.92,61.73ZM773.05,912.11v118.94l-103.01,59.47-103.01-59.47v-118.94l103.01-59.47,103.01,59.47Z"/>
      <path class="cls-3" d="M102.5,446v73.27l63.46,36.64,63.46-36.64v-73.27l-63.46-36.64-63.46,36.64ZM227.1,447.34v70.6l-61.14,35.3-61.14-35.3v-70.6l61.14-35.3,61.14,35.3Z"/>
      <path class="cls-3" d="M1793.19,739.33v63.5l55,31.75,55-31.75v-63.5l-55-31.75-55,31.75ZM1901.17,740.49v61.18l-52.99,30.59-52.99-30.59v-61.18l52.99-30.59,52.99,30.59Z"/>
      <path class="cls-3" d="M1636.53,932.59v47.22l40.9,23.61,40.9-23.61v-47.22l-40.9-23.61-40.9,23.61ZM1716.82,933.45v45.5l-39.4,22.75-39.4-22.75v-45.5l39.4-22.75,39.4,22.75Z"/>
      <path class="cls-3" d="M1561.43,616.92v65.25l56.51,32.63,56.51-32.63v-65.25l-56.51-32.63-56.51,32.63ZM1672.38,618.11v62.87l-54.45,31.43-54.45-31.43v-62.87l54.45-31.43,54.45,31.43Z"/>
      <path class="cls-3" d="M202.63,551.16v102.43l88.71,51.22,88.71-51.22v-102.43l-88.71-51.22-88.71,51.22ZM376.81,553.03v98.69l-85.47,49.34-85.47-49.34v-98.69l85.47-49.34,85.47,49.34Z"/>
      <path class="cls-3" d="M670.17,653.33v87.04l75.38,43.52,75.38-43.52v-87.04l-75.38-43.52-75.38,43.52ZM818.17,654.92v83.86l-72.63,41.93-72.63-41.93v-83.86l72.63-41.93,72.63,41.93Z"/>
      <path class="cls-3" d="M358.9,984.28v55.36l47.95,27.68,47.95-27.68v-55.36l-47.95-27.68-47.95,27.68ZM453.04,985.3v53.34l-46.19,26.67-46.19-26.67v-53.34l46.19-26.67,46.19,26.67Z"/>
      <path class="cls-3" d="M1612.54,476.22v173.07l149.88,86.53,149.88-86.53v-173.07l-149.88-86.53-149.88,86.53ZM1906.82,479.39v166.74l-144.4,83.37-144.4-83.37v-166.74l144.4-83.37,144.4,83.37Z"/>
      <path class="cls-3" d="M1241.68,480.03v103.92l90,51.96,90-51.96v-103.92l-90-51.96-90,51.96ZM1418.38,481.93v100.12l-86.71,50.06-86.71-50.06v-100.12l86.71-50.06,86.71,50.06Z"/>
      <path class="cls-3" d="M1478.59,328.9v161.06l139.48,80.53,139.48-80.53v-161.06l-139.48-80.53-139.48,80.53ZM1752.45,331.85v155.17l-134.38,77.59-134.38-77.59v-155.17l134.38-77.59,134.38,77.59Z"/>
      <path class="cls-3" d="M1936.51,848.02v106.88l92.56,53.44,92.56-53.44v-106.88l-92.56-53.44-92.56,53.44ZM2118.25,849.97v102.97l-89.18,51.49-89.18-51.49v-102.97l89.18-51.49,89.18,51.49Z"/>
      <path class="cls-3" d="M1917.8,337.73v103.92l90,51.96,90-51.96v-103.92l-90-51.96-90,51.96ZM2094.5,339.63v100.12l-86.71,50.06-86.71-50.06v-100.12l86.71-50.06,86.71,50.06Z"/>
      <path class="cls-3" d="M1867.61,422.67l-.11,72.82,63,36.51,63.12-36.31.11-72.82-63-36.51-63.12,36.31ZM1991.43,424.19l-.11,70.15-60.81,34.98-60.7-35.17.11-70.15,60.81-34.98,60.7,35.17Z"/>
      <path class="cls-3" d="M1638.02,407.01l-.08,49.84,43.12,24.99,43.2-24.85.08-49.84-43.12-24.99-43.2,24.85ZM1722.76,408.05l-.08,48.01-41.62,23.94-41.54-24.07.08-48.01,41.62-23.94,41.54,24.07Z"/>
      <path class="cls-3" d="M1887.49,942.37l-.08,49.84,43.12,24.99,43.2-24.85.08-49.84-43.12-24.99-43.2,24.85ZM1972.24,943.41l-.08,48.01-41.62,23.94-41.54-24.07.08-48.01,41.62-23.94,41.54,24.07Z"/>
      <path class="cls-3" d="M178.03,1027.31l-.09,59.4,51.4,29.78,51.49-29.62.09-59.4-51.4-29.78-51.49,29.62ZM279.03,1028.56l-.09,57.23-49.61,28.54-49.52-28.69.09-57.23,49.61-28.54,49.52,28.69Z"/>
      <path class="cls-3" d="M1849.74,292.97l-.11,59.4,51.39,29.8,51.5-29.6.11-59.4-51.39-29.8-51.5,29.6ZM1950.74,294.25l-.11,57.23-49.61,28.52-49.51-28.71.11-57.23,49.62-28.52,49.51,28.71Z"/>
      <path class="cls-3" d="M743.13,903.2l-.11,59.4,51.39,29.8,51.5-29.6.11-59.4-51.39-29.8-51.5,29.6ZM844.13,904.47l-.11,57.23-49.61,28.52-49.51-28.71.11-57.23,49.62-28.52,49.51,28.71Z"/>
      <path class="cls-3" d="M1109.01,588.6l-.11,59.4,51.39,29.8,51.5-29.6.11-59.4-51.39-29.8-51.5,29.6ZM1210.01,589.87l-.11,57.23-49.62,28.52-49.51-28.71.11-57.23,49.62-28.52,49.51,28.71Z"/>
      <path class="cls-3" d="M1181.4,629.85l-.13,69.68,60.28,34.95,60.41-34.73.13-69.68-60.28-34.95-60.41,34.73ZM1299.88,631.35l-.12,67.13-58.2,33.46-58.08-33.68.12-67.13,58.2-33.46,58.08,33.68Z"/>
      <path class="cls-3" d="M288.14,757.97v103.92l90,51.96,90-51.96v-103.92l-90-51.96-90,51.96ZM464.84,759.86v100.12l-86.71,50.06-86.71-50.06v-100.12l86.71-50.06,86.71,50.06Z"/>
      <path class="cls-3" d="M111.51,852.87v136.15l117.91,68.07,117.91-68.07v-136.15l-117.91-68.07-117.91,68.07ZM343.02,855.36v131.17l-113.6,65.58-113.6-65.58v-131.17l113.6-65.59,113.6,65.59Z"/>
      <path class="cls-3" d="M395.64,507.5v189.99l164.54,95,164.54-95v-189.99l-164.54-95-164.54,95ZM718.7,510.98v183.05l-158.52,91.52-158.52-91.52v-183.05l158.52-91.52,158.52,91.52Z"/>
      <circle class="cls-3" cx="466.46" cy="782.62" r="10.9" transform="translate(-380.77 1117.69) rotate(-80.78)"/>
      <circle class="cls-3" cx="508" cy="759.03" r="10.9"/>
      <circle class="cls-3" cx="233.65" cy="535.19" r="10.9"/>
      <circle class="cls-3" cx="398.51" cy="589.04" r="10.9"/>
      <circle class="cls-3" cx="492.36" cy="455.46" r="10.9"/>
      <circle class="cls-3" cx="406.98" cy="894.15" r="10.9" transform="translate(-311.2 223.81) rotate(-22.5)"/>
      <circle class="cls-3" cx="1274.37" cy="764.16" r="10.9" transform="translate(315.95 1899.66) rotate(-80.78)"/>
      <circle class="cls-3" cx="1274.37" cy="569.81" r="10.9" transform="translate(507.78 1736.45) rotate(-80.78)"/>
      <circle class="cls-3" cx="1274.37" cy="600.58" r="10.9"/>
      <circle class="cls-3" cx="1016.18" cy="765.44" r="10.9"/>
      <circle class="cls-3" cx="773.37" cy="766.21" r="10.9"/>
      <circle class="cls-3" cx="819.52" cy="674.42" r="10.9" transform="translate(-236.85 777.02) rotate(-45)"/>
      <circle class="cls-3" cx="962.33" cy="670.32" r="10.9"/>
      <circle class="cls-3" cx="605.43" cy="762.36" r="10.9" transform="translate(-275.64 1176.44) rotate(-76.72)"/>
      <circle class="cls-3" cx="671.58" cy="724.93" r="10.9"/>
      <circle class="cls-3" cx="722.09" cy="624.42" r="10.9"/>
      <circle class="cls-3" cx="700.29" cy="868" r="10.9" transform="translate(-278.86 334.06) rotate(-22.5)"/>
      <circle class="cls-3" cx="592.61" cy="1047.99" r="10.9" transform="translate(-536.78 1465.07) rotate(-80.78)"/>
      <circle class="cls-3" cx="345.44" cy="893.13" r="10.9"/>
      <circle class="cls-3" cx="271.6" cy="811.85" r="10.9"/>
      <circle class="cls-3" cx="329.29" cy="681.34" r="10.9"/>
      <circle class="cls-3" cx="329.29" cy="735.7" r="10.9" transform="translate(-462.38 887.15) rotate(-76.72)"/>
      <circle class="cls-3" cx="1330.01" cy="856.2" r="10.9"/>
      <circle class="cls-3" cx="1420.26" cy="484.43" r="10.9"/>
      <circle class="cls-3" cx="1481.02" cy="450.33" r="10.9"/>
      <circle class="cls-3" cx="1614.86" cy="512.12" r="10.9"/>
      <circle class="cls-3" cx="1614.86" cy="587.76" r="10.9" transform="translate(57.38 1314.03) rotate(-45)"/>
      <circle class="cls-3" cx="1714.34" cy="704.67" r="10.9"/>
      <circle class="cls-3" cx="1830.49" cy="693.39" r="10.9" transform="translate(852.84 2389.18) rotate(-80.78)"/>
      <circle class="cls-3" cx="1909.98" cy="573.91" r="10.9"/>
      <circle class="cls-3" cx="2030.74" cy="677.24" r="10.9"/>
      <circle class="cls-3" cx="1960.74" cy="775.95" r="10.9"/>
      <circle class="cls-3" cx="1960.74" cy="835.44" r="10.9" transform="translate(697.17 2551.78) rotate(-76.72)"/>
      <circle class="cls-3" cx="1645.63" cy="863.9" r="10.9"/>
      <circle class="cls-3" cx="1531.28" cy="929.28" r="10.9"/>
      <path class="cls-3" d="M1012.46,588.78c0-3.19,2.58-5.77,5.77-5.77s5.77,2.58,5.77,5.77-2.58,5.77-5.77,5.77-5.77-2.58-5.77-5.77Z"/>
      <path class="cls-3" d="M956.56,644.42c0-3.19,2.58-5.77,5.77-5.77s5.77,2.58,5.77,5.77-2.58,5.77-5.77,5.77-5.77-2.58-5.77-5.77Z"/>
      <path class="cls-3" d="M1152.71,711.85c0-3.19,2.58-5.77,5.77-5.77s5.77,2.58,5.77,5.77-2.58,5.77-5.77,5.77-5.77-2.58-5.77-5.77Z"/>
      <path class="cls-3" d="M1055.02,790.57c0-3.19,2.58-5.77,5.77-5.77s5.77,2.58,5.77,5.77-2.58,5.77-5.77,5.77-5.77-2.58-5.77-5.77Z"/>
      <path class="cls-3" d="M1123.22,847.23c0-3.19,2.58-5.77,5.77-5.77s5.77,2.58,5.77,5.77-2.58,5.77-5.77,5.77-5.77-2.58-5.77-5.77Z"/>
      <circle class="cls-3" cx="1194.37" cy="758.26" r="5.77"/>
      <path class="cls-3" d="M1176.81,663.65c0-3.19,2.58-5.77,5.77-5.77s5.77,2.58,5.77,5.77-2.58,5.77-5.77,5.77-5.77-2.58-5.77-5.77Z"/>
      <path class="cls-3" d="M1152.45,675.44c0-3.19,2.58-5.77,5.77-5.77s5.77,2.58,5.77,5.77-2.58,5.77-5.77,5.77-5.77-2.58-5.77-5.77Z"/>
      <path class="cls-3" d="M1104.25,592.37c0-3.19,2.58-5.77,5.77-5.77s5.77,2.58,5.77,5.77-2.58,5.77-5.77,5.77-5.77-2.58-5.77-5.77Z"/>
      <path class="cls-3" d="M1205.27,613.91c0-3.19,2.58-5.77,5.77-5.77s5.77,2.58,5.77,5.77-2.58,5.77-5.77,5.77-5.77-2.58-5.77-5.77Z"/>
      <path class="cls-3" d="M1667.04,681.34c0-3.19,2.58-5.77,5.77-5.77s5.77,2.58,5.77,5.77-2.58,5.77-5.77,5.77-5.77-2.58-5.77-5.77Z"/>
      <path class="cls-3" d="M1824.21,719.03c0-3.19,2.58-5.77,5.77-5.77s5.77,2.58,5.77,5.77-2.58,5.77-5.77,5.77-5.77-2.58-5.77-5.77Z"/>
      <circle class="cls-3" cx="1902.03" cy="777.23" r="5.77"/>
      <path class="cls-3" d="M1932.41,922.61c0-3.19,2.58-5.77,5.77-5.77s5.77,2.58,5.77,5.77-2.58,5.77-5.77,5.77-5.77-2.58-5.77-5.77Z"/>
      <path class="cls-3" d="M1659.09,916.46c0-3.19,2.58-5.77,5.77-5.77s5.77,2.58,5.77,5.77-2.58,5.77-5.77,5.77-5.77-2.58-5.77-5.77Z"/>
      <circle class="cls-3" cx="2035.87" cy="475.2" r="5.77"/>
      <path class="cls-3" d="M1631.4,968.25c0-3.19,2.58-5.77,5.77-5.77s5.77,2.58,5.77,5.77-2.58,5.77-5.77,5.77-5.77-2.58-5.77-5.77Z"/>
      <path class="cls-3" d="M1967.02,974.4c0-3.19,2.58-5.77,5.77-5.77s5.77,2.58,5.77,5.77-2.58,5.77-5.77,5.77-5.77-2.58-5.77-5.77Z"/>
      <circle class="cls-3" cx="1274.37" cy="714.67" r="9.1"/>
      <circle class="cls-3" cx="1274.37" cy="615.19" r="9.1"/>
      <path class="cls-3" d="M747.34,898.51c0-3.19,2.58-5.77,5.77-5.77s5.77,2.58,5.77,5.77-2.58,5.77-5.77,5.77-5.77-2.58-5.77-5.77Z"/>
      <path class="cls-3" d="M769.14,980.04c0-3.19,2.58-5.77,5.77-5.77s5.77,2.58,5.77,5.77-2.58,5.77-5.77,5.77-5.77-2.58-5.77-5.77Z"/>
      <path class="cls-3" d="M448.13,1012.35c0-3.19,2.58-5.77,5.77-5.77s5.77,2.58,5.77,5.77-2.58,5.77-5.77,5.77-5.77-2.58-5.77-5.77Z"/>
      <path class="cls-3" d="M402.49,958.51c0-3.19,2.58-5.77,5.77-5.77s5.77,2.58,5.77,5.77-2.58,5.77-5.77,5.77-5.77-2.58-5.77-5.77Z"/>
      <path class="cls-3" d="M272.24,1027.22c0-3.19,2.58-5.77,5.77-5.77s5.77,2.58,5.77,5.77-2.58,5.77-5.77,5.77-5.77-2.58-5.77-5.77Z"/>
      <path class="cls-3" d="M283.78,822.1c0-3.19,2.58-5.77,5.77-5.77s5.77,2.58,5.77,5.77-2.58,5.77-5.77,5.77-5.77-2.58-5.77-5.77Z"/>
      <path class="cls-3" d="M593.76,439.05c0-3.19,2.58-5.77,5.77-5.77s5.77,2.58,5.77,5.77-2.58,5.77-5.77,5.77-5.77-2.58-5.77-5.77Z"/>
      <path class="cls-3" d="M523,434.17c0-3.19,2.58-5.77,5.77-5.77s5.77,2.58,5.77,5.77-2.58,5.77-5.77,5.77-5.77-2.58-5.77-5.77Z"/>
      <path class="cls-3" d="M210.7,525.2c0-3.19,2.58-5.77,5.77-5.77s5.77,2.58,5.77,5.77-2.58,5.77-5.77,5.77-5.77-2.58-5.77-5.77Z"/>
      <path class="cls-3" d="M349.93,539.3c0-3.19,2.58-5.77,5.77-5.77s5.77,2.58,5.77,5.77-2.58,5.77-5.77,5.77-5.77-2.58-5.77-5.77Z"/>
      <path class="cls-3" d="M373.26,578.27c0-3.19,2.58-5.77,5.77-5.77s5.77,2.58,5.77,5.77-2.58,5.77-5.77,5.77-5.77-2.58-5.77-5.77Z"/>
      <path class="cls-3" d="M716.32,543.4c0-3.19,2.58-5.77,5.77-5.77s5.77,2.58,5.77,5.77-2.58,5.77-5.77,5.77-5.77-2.58-5.77-5.77Z"/>
      <path class="cls-3" d="M691.7,495.71c0-3.19,2.58-5.77,5.77-5.77s5.77,2.58,5.77,5.77-2.58,5.77-5.77,5.77-5.77-2.58-5.77-5.77Z"/>
      <path class="cls-3" d="M284.03,800.57c0-3.19,2.58-5.77,5.77-5.77s5.77,2.58,5.77,5.77-2.58,5.77-5.77,5.77-5.77-2.58-5.77-5.77Z"/>
      <path class="cls-3" d="M175.06,1027.22c0-3.19,2.58-5.77,5.77-5.77s5.77,2.58,5.77,5.77-2.58,5.77-5.77,5.77-5.77-2.58-5.77-5.77Z"/>
      <circle class="cls-3" cx="1992.28" cy="482.89" r="5.77"/>
      <path class="cls-3" d="M1913.44,394.18c0-3.19,2.58-5.77,5.77-5.77s5.77,2.58,5.77,5.77-2.58,5.77-5.77,5.77-5.77-2.58-5.77-5.77Z"/>
      <path class="cls-3" d="M1862.93,453.66c0-3.19,2.58-5.77,5.77-5.77s5.77,2.58,5.77,5.77-2.58,5.77-5.77,5.77-5.77-2.58-5.77-5.77Z"/>
      <path class="cls-3" d="M1903.69,518.53c0-3.19,2.58-5.77,5.77-5.77s5.77,2.58,5.77,5.77-2.58,5.77-5.77,5.77-5.77-2.58-5.77-5.77Z"/>
      <path class="cls-3" d="M1717.55,415.46c0-3.19,2.58-5.77,5.77-5.77s5.77,2.58,5.77,5.77-2.58,5.77-5.77,5.77-5.77-2.58-5.77-5.77Z"/>
      <path class="cls-3" d="M1640.12,460.84c0-3.19,2.58-5.77,5.77-5.77s5.77,2.58,5.77,5.77-2.58,5.77-5.77,5.77-5.77-2.58-5.77-5.77Z"/>
      <circle class="cls-3" cx="1919.46" cy="370.08" r="5.77"/>
      <path class="cls-3" d="M1945.74,320.08c0-3.19,2.58-5.77,5.77-5.77s5.77,2.58,5.77,5.77-2.58,5.77-5.77,5.77-5.77-2.58-5.77-5.77Z"/>
    </g>
  </g>
  <g id="Layer_2" data-name="Layer 2">
    <g class="cls-4">
      <path class="cls-1" d="M527.55,838.8v-214.79l-186.02-107.4-186.02,107.4v214.79l186.02,107.4,186.02-107.4ZM162.32,834.87v-206.94l179.22-103.47,179.22,103.47v206.94l-179.22,103.47-179.22-103.47Z"/>
      <path class="cls-1" d="M685.07,1196.24v-87.84l-76.07-43.92-76.07,43.92v87.84l76.07,43.92,76.07-43.92ZM535.7,1194.64v-84.63l73.29-42.31,73.29,42.31v84.63l-73.29,42.31-73.29-42.31Z"/>
      <path class="cls-1" d="M588.02,1124.25v-119.54l-103.52-59.77-103.52,59.77v119.54l103.52,59.77,103.52-59.77ZM384.75,1122.07v-115.17l99.74-57.58,99.74,57.58v115.17l-99.74,57.58-99.74-57.58Z"/>
      <path class="cls-1" d="M645.97,650.1v-97.9l-84.79-48.95-84.79,48.95v97.9l84.79,48.95,84.79-48.95ZM479.49,648.31v-94.32l81.69-47.16,81.69,47.16v94.32l-81.69,47.16-81.69-47.16Z"/>
      <path class="cls-1" d="M1288.01,920.08v-79.39l-68.75-39.69-68.75,39.69v79.39l68.75,39.69,68.75-39.69ZM1153.02,918.63v-76.48l66.24-38.24,66.24,38.24v76.48l-66.24,38.24-66.24-38.24Z"/>
      <path class="cls-1" d="M1581.88,821.64v-159.2l-137.87-79.6-137.87,79.6v159.2l137.87,79.6,137.87-79.6ZM1311.18,818.73v-153.38l132.83-76.69,132.83,76.69v153.38l-132.83,76.69-132.83-76.69Z"/>
      <path class="cls-1" d="M1003.56,916.99v-46.82l-40.55-23.41-40.55,23.41v46.82l40.55,23.41,40.55-23.41ZM923.94,916.13v-45.11l39.07-22.56,39.07,22.56v45.11l-39.07,22.56-39.07-22.56Z"/>
      <path class="cls-1" d="M801.9,823.02v-38.1l-32.99-19.05-32.99,19.05v38.1l32.99,19.05,32.99-19.05ZM737.12,822.33v-36.7l31.79-18.35,31.79,18.35v36.7l-31.79,18.35-31.79-18.35Z"/>
      <path class="cls-1" d="M1144.13,986.48v-38.1l-32.99-19.05-32.99,19.05v38.1l32.99,19.05,32.99-19.05ZM1079.35,985.78v-36.7l31.79-18.35,31.79,18.35v36.7l-31.79,18.35-31.79-18.35Z"/>
      <path class="cls-1" d="M531.09,1324.66v-34.18l-29.6-17.09-29.6,17.09v34.18l29.6,17.09,29.6-17.09ZM472.97,1324.04v-32.93l28.52-16.47,28.52,16.47v32.93l-28.52,16.47-28.52-16.47Z"/>
      <path class="cls-1" d="M941.72,728.91v-118.45l-102.59-59.23-102.58,59.23v118.45l102.58,59.23,102.59-59.23ZM740.3,726.74v-114.12l98.84-57.06,98.84,57.06v114.12l-98.84,57.06-98.84-57.06Z"/>
      <path class="cls-1" d="M784.65,795.29v-95.84l-83-47.92-83,47.92v95.84l83,47.92,83-47.92ZM621.68,793.53v-92.34l79.97-46.17,79.97,46.17v92.34l-79.97,46.17-79.97-46.17Z"/>
      <path class="cls-1" d="M702.49,702.4v-65.23l-56.49-32.62-56.49,32.62v65.23l56.49,32.62,56.49-32.62ZM591.57,701.21v-62.85l54.43-31.42,54.43,31.42v62.85l-54.43,31.42-54.43-31.42Z"/>
      <path class="cls-1" d="M311.73,583.85v-65.23l-56.49-32.62-56.49,32.62v65.23l56.49,32.62,56.49-32.62ZM200.81,582.66v-62.85l54.43-31.42,54.43,31.42v62.85l-54.43,31.42-54.43-31.42Z"/>
      <path class="cls-1" d="M1074,549.35v-102.48l-88.75-51.24-88.75,51.24v102.48l88.75,51.24,88.75-51.24ZM899.75,547.48v-98.73l85.5-49.37,85.51,49.37v98.73l-85.51,49.37-85.5-49.37Z"/>
      <path class="cls-1" d="M1496.79,939.63v-60.82l-52.68-30.41-52.68,30.41v60.82l52.68,30.41,52.68-30.41ZM1393.36,938.52v-58.6l50.75-29.3,50.75,29.3v58.6l-50.75,29.3-50.75-29.3Z"/>
      <path class="cls-1" d="M711.35,1106.56v-47.3l-40.96-23.65-40.96,23.65v47.3l40.96,23.65,40.96-23.65ZM630.93,1105.69v-45.57l39.46-22.78,39.46,22.78v45.57l-39.46,22.78-39.46-22.78Z"/>
      <path class="cls-1" d="M223.42,535.72v-39.2l-33.95-19.6-33.95,19.6v39.2l33.95,19.6,33.95-19.6ZM156.76,535v-37.77l32.71-18.88,32.71,18.88v37.77l-32.71,18.88-32.71-18.88Z"/>
      <path class="cls-1" d="M285.76,797.75v-54.17l-46.91-27.08-46.91,27.08v54.17l46.91,27.08,46.91-27.08ZM193.65,796.76v-52.19l45.19-26.09,45.19,26.09v52.19l-45.19,26.09-45.19-26.09Z"/>
      <path class="cls-1" d="M1413.67,852.34v-85.03l-73.63-42.51-73.63,42.51v85.03l73.63,42.51,73.63-42.51ZM1269.1,850.79v-81.92l70.94-40.96,70.94,40.96v81.92l-70.94,40.96-70.94-40.96Z"/>
      <path class="cls-1" d="M1025.58,767.53v-72.25l-62.57-36.13-62.57,36.13v72.25l62.57,36.13,62.57-36.13ZM902.72,766.21v-69.61l60.29-34.81,60.29,34.81v69.61l-60.29,34.81-60.29-34.81Z"/>
      <path class="cls-1" d="M1283.96,492.81v-45.96l-39.8-22.98-39.8,22.98v45.96l39.8,22.98,39.8-22.98ZM1205.81,491.97v-44.28l38.34-22.14,38.34,22.14v44.28l-38.34,22.14-38.34-22.14Z"/>
      <path class="cls-1" d="M845.89,1302.51v-128.9l-111.63-64.45-111.63,64.45v128.9l111.63,64.45,111.63-64.45ZM626.72,1300.15v-124.18l107.55-62.09,107.55,62.09v124.18l-107.55,62.09-107.55-62.09Z"/>
      <path class="cls-1" d="M551.18,911.38v-86.26l-74.7-43.13-74.7,43.13v86.26l74.7,43.13,74.7-43.13ZM404.5,909.81v-83.11l71.97-41.55,71.97,41.55v83.11l-71.97,41.55-71.97-41.55Z"/>
      <path class="cls-1" d="M354.52,1036.83v-133.69l-115.78-66.85-115.78,66.85v133.69l115.78,66.85,115.78-66.85ZM127.19,1034.39v-128.8l111.55-64.4,111.55,64.4v128.8l-111.55,64.4-111.55-64.4Z"/>
      <path class="cls-1" d="M604.6,1025.61v-79.6l-68.94-39.8-68.94,39.8v79.6l68.94,39.8,68.94-39.8ZM469.25,1024.15v-76.69l66.42-38.35,66.42,38.35v76.69l-66.42,38.35-66.42-38.35Z"/>
      <path class="cls-1" d="M618.54,1405.66v-77.39l-67.03-38.7-67.03,38.7v77.39l67.03,38.7,67.03-38.7ZM486.94,1404.24v-74.57l64.58-37.28,64.58,37.28v74.57l-64.58,37.28-64.58-37.28Z"/>
      <path class="cls-1" d="M655.92,1342.4l.09-54.23-46.92-27.19-47.01,27.04-.09,54.23,46.92,27.19,47.01-27.04ZM563.71,1341.26l.08-52.25,45.29-26.05,45.21,26.2-.08,52.25-45.29,26.05-45.21-26.2Z"/>
      <path class="cls-1" d="M222.18,972l.07-41.37-35.79-20.74-35.86,20.63-.07,41.37,35.79,20.74,35.86-20.63ZM151.84,971.13l.06-39.86,34.55-19.87,34.49,19.98-.06,39.86-34.55,19.87-34.49-19.98Z"/>
      <path class="cls-1" d="M641.11,955.34l.06-37.12-32.11-18.61-32.17,18.51-.06,37.12,32.11,18.61,32.17-18.51ZM578,954.56l.06-35.76,31-17.83,30.94,17.93-.06,35.76-31,17.83-30.94-17.93Z"/>
      <path class="cls-1" d="M1434.1,457.09l.08-49.31-42.66-24.72-42.74,24.59-.08,49.31,42.66,24.72,42.74-24.59ZM1350.26,456.06l.07-47.5,41.18-23.69,41.1,23.82-.07,47.5-41.18,23.69-41.1-23.82Z"/>
      <path class="cls-1" d="M669.23,1438.99l.08-44.24-38.27-22.19-38.35,22.05-.08,44.24,38.27,22.19,38.35-22.05ZM594,1438.04l.08-42.62,36.95-21.24,36.87,21.38-.08,42.62-36.95,21.24-36.87-21.38Z"/>
      <path class="cls-1" d="M924.58,554.88l.09-49.31-42.66-24.73-42.75,24.57-.09,49.31,42.66,24.73,42.75-24.57ZM840.74,553.82l.09-47.5,41.18-23.68,41.1,23.83-.09,47.5-41.18,23.68-41.1-23.83Z"/>
      <path class="cls-1" d="M661.3,821.26l.09-49.31-42.66-24.73-42.75,24.57-.09,49.31,42.66,24.73,42.75-24.57ZM577.46,820.2l.09-47.5,41.18-23.68,41.1,23.83-.09,47.5-41.18,23.68-41.1-23.83Z"/>
      <path class="cls-1" d="M601.22,787.02l.11-57.84-50.04-29.01-50.15,28.83-.11,57.84,50.04,29.01,50.15-28.83ZM502.87,785.78l.1-55.73,48.31-27.77,48.21,27.95-.1,55.73-48.31,27.77-48.21-27.95Z"/>
      <path class="cls-1" d="M1342.7,680.67v-86.26l-74.7-43.13-74.7,43.13v86.26l74.7,43.13,74.7-43.13ZM1196.02,679.1v-83.11l71.97-41.55,71.97,41.55v83.11l-71.97,41.55-71.97-41.55Z"/>
      <path class="cls-1" d="M1489.31,601.89v-113.01l-97.87-56.51-97.87,56.51v113.01l97.87,56.51,97.87-56.51ZM1297.14,599.83v-108.88l94.3-54.44,94.3,54.44v108.88l-94.3,54.44-94.3-54.44Z"/>
      <path class="cls-1" d="M1253.46,888.58v-157.71l-136.58-78.85-136.58,78.85v157.71l136.58,78.85,136.58-78.85ZM985.3,885.69v-151.94l131.59-75.97,131.59,75.97v151.94l-131.59,75.97-131.59-75.97Z"/>
      <path class="cls-1" d="M741.45,821.11c0,2.64-2.14,4.79-4.79,4.79s-4.79-2.14-4.79-4.79,2.14-4.79,4.79-4.79,4.79,2.14,4.79,4.79Z"/>
      <path class="cls-1" d="M787.85,774.92c0,2.64-2.14,4.79-4.79,4.79s-4.79-2.14-4.79-4.79,2.14-4.79,4.79-4.79,4.79,2.14,4.79,4.79Z"/>
      <circle class="cls-1" cx="620.24" cy="718.95" r="4.79"/>
      <circle class="cls-1" cx="701.33" cy="653.61" r="4.79"/>
      <path class="cls-1" d="M649.51,606.57c0,2.64-2.14,4.79-4.79,4.79s-4.79-2.14-4.79-4.79,2.14-4.79,4.79-4.79,4.79,2.14,4.79,4.79Z"/>
      <circle class="cls-1" cx="590.45" cy="680.43" r="4.79"/>
      <path class="cls-1" d="M605.02,758.96c0,2.64-2.14,4.79-4.79,4.79s-4.79-2.14-4.79-4.79,2.14-4.79,4.79-4.79,4.79,2.14,4.79,4.79Z"/>
      <circle class="cls-1" cx="620.46" cy="749.17" r="4.79"/>
      <circle class="cls-1" cx="660.47" cy="818.13" r="4.79"/>
      <path class="cls-1" d="M581.4,800.25c0,2.64-2.14,4.79-4.79,4.79s-4.79-2.14-4.79-4.79,2.14-4.79,4.79-4.79,4.79,2.14,4.79,4.79Z"/>
      <path class="cls-1" d="M198.09,744.28c0,2.64-2.14,4.79-4.79,4.79s-4.79-2.14-4.79-4.79,2.14-4.79,4.79-4.79,4.79,2.14,4.79,4.79Z"/>
      <path class="cls-1" d="M688.24,1121.67c0,2.37-1.92,4.3-4.3,4.3s-4.3-1.92-4.3-4.3,1.92-4.3,4.3-4.3,4.3,1.92,4.3,4.3Z"/>
      <path class="cls-1" d="M634.58,1078.33c0,2.37-1.92,4.3-4.3,4.3s-4.3-1.92-4.3-4.3,1.92-4.3,4.3-4.3,4.3,1.92,4.3,4.3Z"/>
      <path class="cls-1" d="M607.66,970.05c0,2.37-1.92,4.3-4.3,4.3s-4.3-1.92-4.3-4.3,1.92-4.3,4.3-4.3,4.3,1.92,4.3,4.3Z"/>
      <circle class="cls-1" cx="199.9" cy="549.11" r="4.79"/>
      <path class="cls-1" d="M534.9,1303.27c0,2.37-1.92,4.3-4.3,4.3s-4.3-1.92-4.3-4.3,1.92-4.3,4.3-4.3,4.3,1.92,4.3,4.3Z"/>
      <path class="cls-1" d="M227.67,506.12c0,2.64-2.14,4.79-4.79,4.79s-4.79-2.14-4.79-4.79,2.14-4.79,4.79-4.79,4.79,2.14,4.79,4.79Z"/>
      <path class="cls-1" d="M581.88,931.48c0,2.37-1.92,4.3-4.3,4.3s-4.3-1.92-4.3-4.3,1.92-4.3,4.3-4.3,4.3,1.92,4.3,4.3Z"/>
      <circle class="cls-1" cx="524.04" cy="716.61" r="7.56"/>
      <circle class="cls-1" cx="524.04" cy="799.19" r="7.56" transform="translate(-265.95 261.38) rotate(-22.5)"/>
      <path class="cls-1" d="M921.08,558.77c0,2.64-2.14,4.79-4.79,4.79s-4.79-2.14-4.79-4.79,2.14-4.79,4.79-4.79,4.79,2.14,4.79,4.79Z"/>
      <circle class="cls-1" cx="839.56" cy="554.02" r="4.79"/>
      <circle class="cls-1" cx="898.2" cy="491.09" r="4.79"/>
      <path class="cls-1" d="M887.85,578.41c0,2.64-2.14,4.79-4.79,4.79s-4.79-2.14-4.79-4.79,2.14-4.79,4.79-4.79,4.79,2.14,4.79,4.79Z"/>
      <path class="cls-1" d="M1209.89,469.51c0,2.64-2.14,4.79-4.79,4.79s-4.79-2.14-4.79-4.79,2.14-4.79,4.79-4.79,4.79,2.14,4.79,4.79Z"/>
      <path class="cls-1" d="M1247.78,514.21c0,2.64-2.14,4.79-4.79,4.79s-4.79-2.14-4.79-4.79,2.14-4.79,4.79-4.79,4.79,2.14,4.79,4.79Z"/>
      <circle class="cls-1" cx="1351.11" cy="457.17" r="4.79"/>
      <path class="cls-1" d="M1346.32,627.43c0,2.64-2.14,4.79-4.79,4.79s-4.79-2.14-4.79-4.79,2.14-4.79,4.79-4.79,4.79,2.14,4.79,4.79Z"/>
      <path class="cls-1" d="M1089,945.4c0,2.64-2.14,4.79-4.79,4.79s-4.79-2.14-4.79-4.79,2.14-4.79,4.79-4.79,4.79,2.14,4.79,4.79Z"/>
      <path class="cls-1" d="M1147.75,949.45c0,2.64-2.14,4.79-4.79,4.79s-4.79-2.14-4.79-4.79,2.14-4.79,4.79-4.79,4.79,2.14,4.79,4.79Z"/>
      <path class="cls-1" d="M1406.98,873.89c0,2.64-2.14,4.79-4.79,4.79s-4.79-2.14-4.79-4.79,2.14-4.79,4.79-4.79,4.79,2.14,4.79,4.79Z"/>
      <circle class="cls-1" cx="1286.62" cy="862.19" r="4.79"/>
      <path class="cls-1" d="M1272.04,829.84c0,2.64-2.14,4.79-4.79,4.79s-4.79-2.14-4.79-4.79,2.14-4.79,4.79-4.79,4.79,2.14,4.79,4.79Z"/>
      <path class="cls-1" d="M987.27,858.78c0,2.64-2.14,4.79-4.79,4.79s-4.79-2.14-4.79-4.79,2.14-4.79,4.79-4.79,4.79,2.14,4.79,4.79Z"/>
      <circle class="cls-1" cx="1002.91" cy="898.37" r="4.79"/>
      <path class="cls-1" d="M1346.11,645.31c0,2.64-2.14,4.79-4.79,4.79s-4.79-2.14-4.79-4.79,2.14-4.79,4.79-4.79,4.79,2.14,4.79,4.79Z"/>
      <circle class="cls-1" cx="1431.77" cy="457.17" r="4.79"/>
      <path class="cls-1" d="M567.37,1297.54c0,2.37-1.92,4.3-4.3,4.3s-4.3-1.92-4.3-4.3,1.92-4.3,4.3-4.3,4.3,1.92,4.3,4.3Z"/>
      <path class="cls-1" d="M621.79,1363.62c0,2.37-1.92,4.3-4.3,4.3s-4.3-1.92-4.3-4.3,1.92-4.3,4.3-4.3,4.3,1.92,4.3,4.3Z"/>
      <path class="cls-1" d="M659.41,1319.31c0,2.37-1.92,4.3-4.3,4.3s-4.3-1.92-4.3-4.3,1.92-4.3,4.3-4.3,4.3,1.92,4.3,4.3Z"/>
      <path class="cls-1" d="M629.05,1271c0,2.37-1.92,4.3-4.3,4.3s-4.3-1.92-4.3-4.3,1.92-4.3,4.3-4.3,4.3,1.92,4.3,4.3Z"/>
      <path class="cls-1" d="M156.16,964.98c0,2.64-2.14,4.79-4.79,4.79s-4.79-2.14-4.79-4.79,2.14-4.79,4.79-4.79,4.79,2.14,4.79,4.79Z"/>
      <circle class="cls-1" cx="215.65" cy="927.31" r="4.79"/>
      <path class="cls-1" d="M621.6,1381.57c0,2.37-1.92,4.3-4.3,4.3s-4.3-1.92-4.3-4.3,1.92-4.3,4.3-4.3,4.3,1.92,4.3,4.3Z"/>
      <path class="cls-1" d="M597.73,1418.8c0,2.37-1.92,4.3-4.3,4.3s-4.3-1.92-4.3-4.3,1.92-4.3,4.3-4.3,4.3,1.92,4.3,4.3Z"/>
      <circle class="cls-1" cx="1194.68" cy="660.21" r="9.05" transform="translate(277.65 1671.24) rotate(-76.72)"/>
      <circle class="cls-1" cx="1160.2" cy="679.79" r="9.05" transform="translate(232.04 1652.77) rotate(-76.72)"/>
      <circle class="cls-1" cx="1387.93" cy="865.59" r="9.05" transform="translate(226.61 2017.52) rotate(-76.72)"/>
      <circle class="cls-1" cx="1251.08" cy="820.9" r="9.05" transform="translate(164.7 1849.9) rotate(-76.72)"/>
      <circle class="cls-1" cx="1173.18" cy="931.78" r="9.05" transform="translate(-3.22 1859.5) rotate(-76.72)"/>
      <circle class="cls-1" cx="1244.05" cy="567.63" r="9.05" transform="translate(-37 1045.93) rotate(-45)"/>
      <circle class="cls-1" cx="524.04" cy="675.53" r="9.05" transform="translate(-253.82 1030.35) rotate(-76.72)"/>
      <circle class="cls-1" cx="524.04" cy="836.86" r="9.05"/>
      <circle class="cls-1" cx="524.04" cy="811.32" r="9.05" transform="translate(-385.97 1134.94) rotate(-76.72)"/>
      <circle class="cls-1" cx="738.36" cy="674.47" r="9.05" transform="translate(-87.7 1238.12) rotate(-76.72)"/>
      <circle class="cls-1" cx="939.92" cy="673.83" r="9.05" transform="translate(-201.17 861.98) rotate(-45)"/>
      <circle class="cls-1" cx="901.61" cy="750.02" r="9.05" transform="translate(-266.27 857.21) rotate(-45)"/>
      <circle class="cls-1" cx="783.06" cy="753.43" r="9.05" transform="translate(-130.12 1342.44) rotate(-76.72)"/>
      <circle class="cls-1" cx="1079.32" cy="677.02" r="9.05"/>
      <circle class="cls-1" cx="1024.41" cy="708.1" r="9.05" transform="translate(99.9 1542.42) rotate(-76.72)"/>
      <circle class="cls-1" cx="982.48" cy="791.53" r="9.05" transform="translate(-13.6 1565.87) rotate(-76.72)"/>
      <circle class="cls-1" cx="1295.13" cy="568.48" r="9.05" transform="translate(526.54 1755.83) rotate(-80.78)"/>
      <circle class="cls-1" cx="1356.43" cy="635.95" r="9.05" transform="translate(425.85 1809.98) rotate(-76.72)"/>
      <circle class="cls-1" cx="1308.54" cy="744.28" r="9.05" transform="translate(-143.02 1143.27) rotate(-45)"/>
      <circle class="cls-1" cx="1308.54" cy="699.16" r="9.05" transform="translate(327.45 1812.06) rotate(-76.72)"/>
      <circle class="cls-1" cx="477.86" cy="599.13" r="9.05" transform="translate(-215.03 926.55) rotate(-76.72)"/>
      <circle class="cls-1" cx="402.94" cy="907.73" r="9.05"/>
      <circle class="cls-1" cx="352.5" cy="936.04" r="9.05" transform="translate(-639.49 1064.05) rotate(-76.72)"/>
      <circle class="cls-1" cx="241.4" cy="884.75" r="9.05" transform="translate(-554.91 429.83) rotate(-45)"/>
      <circle class="cls-1" cx="241.4" cy="821.96" r="9.05" transform="translate(-510.51 411.44) rotate(-45)"/>
      <circle class="cls-1" cx="158.82" cy="724.91" r="9.05" transform="translate(-583.18 712.93) rotate(-76.72)"/>
      <circle class="cls-1" cx="683.57" cy="1140.77" r="8.12"/>
      <circle class="cls-1" cx="624.37" cy="1229.75" r="8.12" transform="translate(-423.08 332.54) rotate(-22.5)"/>
      <circle class="cls-1" cx="534.43" cy="1152.8" r="8.12"/>
      <circle class="cls-1" cx="586.56" cy="1079.28" r="8.12"/>
      <circle class="cls-1" cx="586.56" cy="1034.98" r="8.12"/>
      <circle class="cls-1" cx="215.86" cy="592.74" r="9.05" transform="translate(-355.91 326.25) rotate(-45)"/>
      <circle class="cls-1" cx="310.78" cy="538.47" r="9.05" transform="translate(-289.73 377.47) rotate(-45)"/>
    </g>
  </g>
  <g id="Layer_7" data-name="Layer 7">
    <g class="cls-5">
      <g>
        <path class="cls-1" d="M1924.14,380.38l147.19-84.98V125.43l-147.19-84.98-147.19,84.98v169.96l147.19,84.98ZM1924.14,374.17l-141.81-81.88v-163.75l141.81-81.88,141.81,81.88v163.75l-141.81,81.88Z"/>
        <path class="cls-1" d="M2210.78,300.35l67.09-38.74v-77.47l-67.09-38.74-67.09,38.74v77.47l67.09,38.74ZM2210.78,297.51l-64.64-37.32v-74.64l64.64-37.32,64.64,37.32v74.64l-64.64,37.32Z"/>
        <path class="cls-1" d="M2320.59,250.83l91.3-52.71v-105.43l-91.3-52.71-91.3,52.71v105.43l91.3,52.71ZM2320.59,246.98l-87.97-50.79v-101.57l87.97-50.79,87.97,50.79v101.57l-87.97,50.79Z"/>
        <path class="cls-1" d="M1750.34,184.81l67.09-38.74v-77.47l-67.09-38.74-67.09,38.74v77.47l67.09,38.74ZM1750.34,181.98l-64.64-37.32v-74.64l64.64-37.32,64.64,37.32v74.64l-64.64,37.32Z"/>
        <path class="cls-1" d="M1229.6,391.12l54.4-31.41v-62.82l-54.4-31.41-54.4,31.41v62.82l54.4,31.41ZM1229.6,388.83l-52.41-30.26v-60.52l52.41-30.26,52.41,30.26v60.52l-52.41,30.26Z"/>
        <path class="cls-1" d="M1432.37,375.8l32.09-18.53v-37.05l-32.09-18.53-32.09,18.53v37.05l32.09,18.53ZM1432.37,374.44l-30.91-17.85v-35.7l30.91-17.85,30.91,17.85v35.7l-30.91,17.85Z"/>
        <path class="cls-1" d="M1585.97,297.99l26.11-15.07v-30.15l-26.11-15.07-26.11,15.07v30.15l26.11,15.07ZM1585.97,296.89l-25.15-14.52v-29.04l25.15-14.52,25.15,14.52v29.04l-25.15,14.52Z"/>
        <path class="cls-1" d="M1315.16,427.33l26.11-15.07v-30.15l-26.11-15.07-26.11,15.07v30.15l26.11,15.07ZM1315.16,426.23l-25.15-14.52v-29.04l25.15-14.52,25.15,14.52v29.04l-25.15,14.52Z"/>
        <path class="cls-1" d="M2305.6,389.94l26.11-15.07v-30.15l-26.11-15.07-26.11,15.07v30.15l26.11,15.07ZM2305.6,388.84l-25.15-14.52v-29.04l25.15-14.52,25.15,14.52v29.04l-25.15,14.52Z"/>
        <path class="cls-1" d="M1530.39,255.31l81.18-46.87v-93.73l-81.18-46.87-81.18,46.87v93.73l81.18,46.87ZM1530.39,251.88l-78.21-45.15v-90.31l78.21-45.15,78.21,45.15v90.31l-78.21,45.15Z"/>
        <path class="cls-1" d="M1639.19,298.89l65.68-37.92v-75.84l-65.68-37.92-65.68,37.92v75.84l65.68,37.92ZM1639.19,296.11l-63.28-36.54v-73.07l63.28-36.54,63.28,36.54v73.07l-63.28,36.54Z"/>
        <path class="cls-1" d="M1683.23,213.28l44.7-25.81v-51.62l-44.7-25.81-44.7,25.81v51.62l44.7,25.81ZM1683.23,211.39l-43.07-24.87v-49.73l43.07-24.87,43.07,24.87v49.73l-43.07,24.87Z"/>
        <path class="cls-1" d="M1992.43,119.47l44.7-25.81v-51.62l-44.7-25.81-44.7,25.81v51.62l44.7,25.81ZM1992.43,117.58l-43.07-24.87v-49.73l43.07-24.87,43.07,24.87v49.73l-43.07,24.87Z"/>
        <path class="cls-1" d="M2156.64,203.37l36.12-20.86v-41.71l-36.12-20.86-36.12,20.86v41.71l36.12,20.86ZM2156.64,201.85l-34.8-20.09v-40.19l34.8-20.09,34.8,20.09v40.19l-34.8,20.09Z"/>
        <path class="cls-1" d="M2044.48,71.08l26.86-15.51v-31.02l-26.86-15.51-26.86,15.51v31.02l26.86,15.51ZM2044.48,69.95l-25.88-14.94v-29.88l25.88-14.94,25.88,14.94v29.88l-25.88,14.94Z"/>
        <path class="cls-1" d="M2005.4,284.35l37.12-21.43v-42.86l-37.12-21.43-37.12,21.43v42.86l37.12,21.43ZM2005.4,282.78l-35.76-20.65v-41.29l35.76-20.65,35.76,20.65v41.29l-35.76,20.65Z"/>
        <path class="cls-1" d="M1432.37,267.59l49.51-28.59v-57.17l-49.51-28.59-49.51,28.59v57.17l49.51,28.59ZM1432.37,265.5l-47.7-27.54v-55.08l47.7-27.54,47.7,27.54v55.08l-47.7,27.54Z"/>
        <path class="cls-1" d="M2100.3,412.17l98.45-56.84v-113.68l-98.45-56.84-98.45,56.84v113.68l98.45,56.84ZM2100.3,408.02l-94.85-54.76v-109.52l94.85-54.76,94.85,54.76v109.52l-94.85,54.76Z"/>
        <path class="cls-1" d="M1817.37,386.96l59.11-34.13v-68.26l-59.11-34.13-59.11,34.13v68.26l59.11,34.13ZM1817.37,384.47l-56.95-32.88v-65.76l56.95-32.88,56.95,32.88v65.76l-56.95,32.88Z"/>
        <path class="cls-1" d="M2005.49,505l91.62-52.9v-105.79l-91.62-52.9-91.62,52.9v105.79l91.62,52.9ZM2005.49,501.13l-88.27-50.96v-101.92l88.27-50.96,88.27,50.96v101.92l-88.27,50.96Z"/>
        <path class="cls-1" d="M2275.46,146.22l60.8-35.1V40.92l-60.8-35.1-60.8,35.1v70.2l60.8,35.1ZM2275.46,143.65l-58.58-33.82V42.2l58.58-33.82,58.58,33.82v67.64l-58.58,33.82Z"/>
        <path class="cls-1" d="M2261.48,480.43l59.11-34.13v-68.26l-59.11-34.13-59.11,34.13v68.26l59.11,34.13ZM2261.48,477.94l-56.95-32.88v-65.76l56.95-32.88,56.95,32.88v65.76l-56.95,32.88Z"/>
        <path class="cls-1" d="M2210.86,414.36l41.38-23.98-.08-47.83-41.46-23.85-41.38,23.98.08,47.83,41.46,23.85ZM2210.86,412.61l-39.94-22.98-.07-46.08,39.87-23.1,39.94,22.98.07,46.08-39.87,23.1Z"/>
        <path class="cls-1" d="M2046.97,417.12l28.32-16.41-.05-32.74-28.38-16.32-28.32,16.41.05,32.73,28.38,16.32ZM2046.97,415.92l-27.34-15.73-.05-31.54,27.29-15.81,27.34,15.73.05,31.54-27.29,15.81Z"/>
        <path class="cls-1" d="M2210.84,65.47l28.32-16.41-.05-32.73-28.38-16.32-28.32,16.41.05,32.73,28.38,16.32ZM2210.83,64.27l-27.34-15.73-.05-31.54,27.29-15.81,27.34,15.73.05,31.54-27.29,15.81Z"/>
        <path class="cls-1" d="M2191.49,495.15l33.75-19.57-.07-39.02-33.83-19.45-33.75,19.57.07,39.02,33.83,19.45ZM2191.49,493.72l-32.59-18.73-.07-37.59,32.52-18.86,32.59,18.73.07,37.59-32.52,18.86Z"/>
        <path class="cls-1" d="M1704.94,300.96l33.75-19.57-.07-39.02-33.83-19.45-33.75,19.57.07,39.02,33.83,19.45ZM1704.94,299.54l-32.59-18.73-.07-37.59,32.52-18.86,32.59,18.73.07,37.59-32.52,18.86Z"/>
        <path class="cls-1" d="M1758.34,277.23l39.6-22.96-.09-45.77-39.68-22.81-39.6,22.96.09,45.77,39.68,22.81ZM1758.34,275.56l-38.23-21.98-.08-44.1,38.15-22.12,38.23,21.98.08,44.1-38.15,22.12Z"/>
        <path class="cls-1" d="M1310.61,397.18l108.08-62.4v-124.79l-108.08-62.4-108.08,62.4v124.79l108.08,62.4ZM1310.61,392.62l-104.13-60.12v-120.23l104.13-60.12,104.13,60.12v120.23l-104.13,60.12Z"/>
        <circle class="cls-1" cx="1204.42" cy="281.23" r="7.16"/>
        <circle class="cls-1" cx="1266.06" cy="368.98" r="7.16"/>
        <circle class="cls-1" cx="1779.73" cy="166.2" r="7.16"/>
        <path class="cls-1" d="M1772.57,293.86c0,3.95,3.2,7.16,7.16,7.16s7.16-3.2,7.16-7.16-3.2-7.16-7.16-7.16-7.16,3.2-7.16,7.16Z"/>
        <circle class="cls-1" cx="1779.73" cy="273.65" r="7.16"/>
        <circle class="cls-1" cx="1610.13" cy="165.36" r="7.16"/>
        <path class="cls-1" d="M1443.49,164.86c0,3.95,3.2,7.16,7.16,7.16s7.16-3.2,7.16-7.16-3.2-7.16-7.16-7.16-7.16,3.2-7.16,7.16Z"/>
        <circle class="cls-1" cx="1480.96" cy="225.15" r="7.16"/>
        <path class="cls-1" d="M1567.61,227.84c0,3.95,3.2,7.16,7.16,7.16s7.16-3.2,7.16-7.16-3.2-7.16-7.16-7.16-7.16,3.2-7.16,7.16Z"/>
        <circle class="cls-1" cx="1383.78" cy="191.97" r="7.16"/>
        <path class="cls-1" d="M1409.8,257.99c0,3.95,3.2,7.16,7.16,7.16s7.16-3.2,7.16-7.16-3.2-7.16-7.16-7.16-7.16,3.2-7.16,7.16Z"/>
        <path class="cls-1" d="M1809.12,105.74c0,3.95,3.2,7.16,7.16,7.16s7.16-3.2,7.16-7.16-3.2-7.16-7.16-7.16-7.16,3.2-7.16,7.16Z"/>
        <path class="cls-1" d="M1868.4,349.94c0,3.95,3.2,7.16,7.16,7.16s7.16-3.2,7.16-7.16-3.2-7.16-7.16-7.16-7.16,3.2-7.16,7.16Z"/>
        <circle class="cls-1" cx="1915.47" cy="372.34" r="7.16"/>
        <path class="cls-1" d="M1996.22,331.76c0,3.95,3.2,7.16,7.16,7.16s7.16-3.2,7.16-7.16-3.2-7.16-7.16-7.16-7.16,3.2-7.16,7.16Z"/>
        <path class="cls-1" d="M1996.22,282.07c0,3.95,3.2,7.16,7.16,7.16s7.16-3.2,7.16-7.16-3.2-7.16-7.16-7.16-7.16,3.2-7.16,7.16Z"/>
        <circle class="cls-1" cx="2068.73" cy="205.28" r="7.16"/>
        <circle class="cls-1" cx="2145.02" cy="212.69" r="7.16"/>
        <path class="cls-1" d="M2190.07,291.17c0,3.95,3.2,7.16,7.16,7.16s7.16-3.2,7.16-7.16-3.2-7.16-7.16-7.16-7.16,3.2-7.16,7.16Z"/>
        <path class="cls-1" d="M2269.39,223.3c0,3.95,3.2,7.16,7.16,7.16s7.16-3.2,7.16-7.16-3.2-7.16-7.16-7.16-7.16,3.2-7.16,7.16Z"/>
        <circle class="cls-1" cx="2230.57" cy="158.46" r="7.16"/>
        <circle class="cls-1" cx="2230.57" cy="119.38" r="7.16"/>
        <circle class="cls-1" cx="2023.59" cy="100.69" r="7.16"/>
        <path class="cls-1" d="M1941.32,57.74c0,3.95,3.2,7.16,7.16,7.16s7.16-3.2,7.16-7.16-3.2-7.16-7.16-7.16-7.16,3.2-7.16,7.16Z"/>
        <circle class="cls-1" cx="1611.48" cy="281.4" r="3.79"/>
        <circle class="cls-1" cx="1574.77" cy="244.85" r="3.79"/>
        <path class="cls-1" d="M1699.81,200.56c0,2.09,1.7,3.79,3.79,3.79s3.79-1.7,3.79-3.79-1.7-3.79-3.79-3.79-3.79,1.7-3.79,3.79Z"/>
        <path class="cls-1" d="M1635.65,148.86c0,2.09,1.7,3.79,3.79,3.79s3.79-1.7,3.79-3.79-1.7-3.79-3.79-3.79-3.79,1.7-3.79,3.79Z"/>
        <path class="cls-1" d="M1680.45,111.64c0,2.09,1.7,3.79,3.79,3.79s3.79-1.7,3.79-3.79-1.7-3.79-3.79-3.79-3.79,1.7-3.79,3.79Z"/>
        <path class="cls-1" d="M1723.39,170.08c0,2.09,1.7,3.79,3.79,3.79s3.79-1.7,3.79-3.79-1.7-3.79-3.79-3.79-3.79,1.7-3.79,3.79Z"/>
        <path class="cls-1" d="M1715.65,232.22c0,2.09,1.7,3.79,3.79,3.79s3.79-1.7,3.79-3.79-1.7-3.79-3.79-3.79-3.79,1.7-3.79,3.79Z"/>
        <path class="cls-1" d="M1699.65,224.48c0,2.09,1.7,3.79,3.79,3.79s3.79-1.7,3.79-3.79-1.7-3.79-3.79-3.79-3.79,1.7-3.79,3.79Z"/>
        <circle class="cls-1" cx="1671.77" cy="279.04" r="3.79"/>
        <path class="cls-1" d="M1734.34,264.89c0,2.09,1.7,3.79,3.79,3.79s3.79-1.7,3.79-3.79-1.7-3.79-3.79-3.79-3.79,1.7-3.79,3.79Z"/>
        <circle class="cls-1" cx="2041.44" cy="220.6" r="3.79"/>
        <path class="cls-1" d="M2140.89,195.84c0,2.09,1.7,3.79,3.79,3.79s3.79-1.7,3.79-3.79-1.7-3.79-3.79-3.79-3.79,1.7-3.79,3.79Z"/>
        <path class="cls-1" d="M2188.22,157.61c0,2.09,1.7,3.79,3.79,3.79s3.79-1.7,3.79-3.79-1.7-3.79-3.79-3.79-3.79,1.7-3.79,3.79Z"/>
        <path class="cls-1" d="M2211.96,62.12c0,2.09,1.7,3.79,3.79,3.79s3.79-1.7,3.79-3.79-1.7-3.79-3.79-3.79-3.79,1.7-3.79,3.79Z"/>
        <path class="cls-1" d="M2032.43,66.17c0,2.09,1.7,3.79,3.79,3.79s3.79-1.7,3.79-3.79-1.7-3.79-3.79-3.79-3.79,1.7-3.79,3.79Z"/>
        <path class="cls-1" d="M2276.13,356.01c0,2.09,1.7,3.79,3.79,3.79s3.79-1.7,3.79-3.79-1.7-3.79-3.79-3.79-3.79,1.7-3.79,3.79Z"/>
        <path class="cls-1" d="M2014.24,32.15c0,2.09,1.7,3.79,3.79,3.79s3.79-1.7,3.79-3.79-1.7-3.79-3.79-3.79-3.79,1.7-3.79,3.79Z"/>
        <path class="cls-1" d="M2234.7,28.1c0,2.09,1.7,3.79,3.79,3.79s3.79-1.7,3.79-3.79-1.7-3.79-3.79-3.79-3.79,1.7-3.79,3.79Z"/>
        <circle class="cls-1" cx="1779.73" cy="198.71" r="5.98"/>
        <circle class="cls-1" cx="1779.73" cy="264.05" r="5.98"/>
        <path class="cls-1" d="M1332.67,379.75c0,2.09,1.7,3.79,3.79,3.79s3.79-1.7,3.79-3.79-1.7-3.79-3.79-3.79-3.79,1.7-3.79,3.79Z"/>
        <path class="cls-1" d="M1286.19,382.95c0,2.09,1.7,3.79,3.79,3.79s3.79-1.7,3.79-3.79-1.7-3.79-3.79-3.79-3.79,1.7-3.79,3.79Z"/>
        <path class="cls-1" d="M1413.17,311.21c0,2.09,1.7,3.79,3.79,3.79s3.79-1.7,3.79-3.79-1.7-3.79-3.79-3.79-3.79,1.7-3.79,3.79Z"/>
        <circle class="cls-1" cx="1400.79" cy="342.53" r="3.79"/>
        <path class="cls-1" d="M2247.5,350.95c0,2.09,1.7,3.79,3.79,3.79s3.79-1.7,3.79-3.79-1.7-3.79-3.79-3.79-3.79,1.7-3.79,3.79Z"/>
        <path class="cls-1" d="M2199.5,409.23c0,2.09,1.7,3.79,3.79,3.79s3.79-1.7,3.79-3.79-1.7-3.79-3.79-3.79-3.79,1.7-3.79,3.79Z"/>
        <circle class="cls-1" cx="2170.11" cy="370.15" r="3.79"/>
        <circle class="cls-1" cx="2196.89" cy="327.55" r="3.79"/>
        <path class="cls-1" d="M2070.83,395.25c0,2.09,1.7,3.79,3.79,3.79s3.79-1.7,3.79-3.79-1.7-3.79-3.79-3.79-3.79,1.7-3.79,3.79Z"/>
        <circle class="cls-1" cx="2023.76" cy="365.44" r="3.79"/>
        <path class="cls-1" d="M2199.67,425.06c0,2.09,1.7,3.79,3.79,3.79s3.79-1.7,3.79-3.79-1.7-3.79-3.79-3.79-3.79,1.7-3.79,3.79Z"/>
        <circle class="cls-1" cx="2224.51" cy="457.9" r="3.79"/>
      </g>
      <g>
        <path class="cls-1" d="M2133.71,879.03v169.96l147.19,84.98,147.19-84.98v-169.96l-147.19-84.98-147.19,84.98ZM2422.71,882.13v163.75l-141.81,81.88-141.81-81.88v-163.75l141.81-81.88,141.81,81.88Z"/>
        <path class="cls-1" d="M2500.45,912.81v77.47l67.09,38.74,67.09-38.74v-77.47l-67.09-38.74-67.09,38.74ZM2632.18,914.23v74.64l-64.64,37.32-64.64-37.32v-74.64l64.64-37.32,64.64,37.32Z"/>
        <path class="cls-1" d="M2586.05,976.31v105.43l91.3,52.71,91.3-52.71v-105.43l-91.3-52.71-91.3,52.71ZM2765.31,978.23v101.57l-87.97,50.79-87.97-50.79v-101.57l87.97-50.79,87.97,50.79Z"/>
        <path class="cls-1" d="M2040,1028.35v77.47l67.09,38.74,67.09-38.74v-77.47l-67.09-38.74-67.09,38.74ZM2171.74,1029.76v74.64l-64.64,37.32-64.64-37.32v-74.64l64.64-37.32,64.64,37.32Z"/>
        <path class="cls-1" d="M1531.96,814.71v62.82l54.4,31.41,54.4-31.41v-62.82l-54.4-31.41-54.4,31.41ZM1638.77,815.86v60.52l-52.41,30.26-52.41-30.26v-60.52l52.41-30.26,52.41,30.26Z"/>
        <path class="cls-1" d="M1757.04,817.15v37.05l32.09,18.53,32.09-18.53v-37.05l-32.09-18.53-32.09,18.53ZM1820.04,817.83v35.7l-30.91,17.85-30.91-17.85v-35.7l30.91-17.85,30.91,17.85Z"/>
        <path class="cls-1" d="M1916.62,891.51v30.15l26.11,15.07,26.11-15.07v-30.15l-26.11-15.07-26.11,15.07ZM1967.88,892.06v29.04l-25.15,14.52-25.15-14.52v-29.04l25.15-14.52,25.15,14.52Z"/>
        <path class="cls-1" d="M1645.81,762.17v30.15l26.11,15.07,26.11-15.07v-30.15l-26.11-15.07-26.11,15.07ZM1697.07,762.72v29.04l-25.15,14.52-25.15-14.52v-29.04l25.15-14.52,25.15,14.52Z"/>
        <path class="cls-1" d="M2636.25,799.55v30.15l26.11,15.07,26.11-15.07v-30.15l-26.11-15.07-26.11,15.07ZM2687.51,800.11v29.04l-25.15,14.52-25.15-14.52v-29.04l25.15-14.52,25.15,14.52Z"/>
        <path class="cls-1" d="M1805.97,965.98v93.73l81.18,46.87,81.18-46.87v-93.73l-81.18-46.87-81.18,46.87ZM1965.36,967.7v90.31l-78.21,45.15-78.21-45.15v-90.31l78.21-45.15,78.21,45.15Z"/>
        <path class="cls-1" d="M1930.26,913.46v75.84l65.68,37.92,65.68-37.92v-75.84l-65.68-37.92-65.68,37.92ZM2059.22,914.84v73.07l-63.28,36.54-63.28-36.54v-73.07l63.28-36.54,63.28,36.54Z"/>
        <path class="cls-1" d="M1995.28,986.96v51.62l44.7,25.81,44.7-25.81v-51.62l-44.7-25.81-44.7,25.81ZM2083.05,987.9v49.73l-43.07,24.87-43.07-24.87v-49.73l43.07-24.87,43.07,24.87Z"/>
        <path class="cls-1" d="M2304.49,1080.76v51.62l44.7,25.81,44.7-25.81v-51.62l-44.7-25.81-44.7,25.81ZM2392.26,1081.71v49.73l-43.07,24.87-43.07-24.87v-49.73l43.07-24.87,43.07,24.87Z"/>
        <path class="cls-1" d="M2477.27,991.91v41.71l36.12,20.86,36.12-20.86v-41.71l-36.12-20.86-36.12,20.86ZM2548.2,992.67v40.19l-34.8,20.09-34.8-20.09v-40.19l34.8-20.09,34.8,20.09Z"/>
        <path class="cls-1" d="M2374.37,1118.85v31.02l26.86,15.51,26.86-15.51v-31.02l-26.86-15.51-26.86,15.51ZM2427.11,1119.42v29.88l-25.88,14.94-25.88-14.94v-29.88l25.88-14.94,25.88,14.94Z"/>
        <path class="cls-1" d="M2325.04,911.51v42.86l37.12,21.43,37.12-21.43v-42.86l-37.12-21.43-37.12,21.43ZM2397.92,912.29v41.29l-35.76,20.65-35.76-20.65v-41.29l35.76-20.65,35.76,20.65Z"/>
        <path class="cls-1" d="M1739.62,935.42v57.17l49.51,28.59,49.51-28.59v-57.17l-49.51-28.59-49.51,28.59ZM1836.83,936.47v55.08l-47.7,27.54-47.7-27.54v-55.08l47.7-27.54,47.7,27.54Z"/>
        <path class="cls-1" d="M2358.61,819.09v113.68l98.45,56.84,98.45-56.84v-113.68l-98.45-56.84-98.45,56.84ZM2551.91,821.17v109.52l-94.85,54.76-94.85-54.76v-109.52l94.85-54.76,94.85,54.76Z"/>
        <path class="cls-1" d="M2115.01,821.59v68.26l59.11,34.13,59.11-34.13v-68.26l-59.11-34.13-59.11,34.13ZM2231.08,822.84v65.76l-56.95,32.88-56.95-32.88v-65.76l56.95-32.88,56.95,32.88Z"/>
        <path class="cls-1" d="M2270.63,722.32v105.79l91.62,52.9,91.62-52.9v-105.79l-91.62-52.9-91.62,52.9ZM2450.51,724.26v101.92l-88.27,50.96-88.27-50.96v-101.92l88.27-50.96,88.27,50.96Z"/>
        <path class="cls-1" d="M2571.41,1063.3v70.2l60.8,35.1,60.8-35.1v-70.2l-60.8-35.1-60.8,35.1ZM2690.79,1064.59v67.64l-58.58,33.82-58.58-33.82v-67.64l58.58-33.82,58.58,33.82Z"/>
        <path class="cls-1" d="M2559.12,728.12v68.26l59.11,34.13,59.11-34.13v-68.26l-59.11-34.13-59.11,34.13ZM2675.19,729.37v65.76l-56.95,32.88-56.95-32.88v-65.76l56.95-32.88,56.95,32.88Z"/>
        <path class="cls-1" d="M2526.16,783.91l-.08,47.83,41.38,23.98,41.46-23.85.08-47.83-41.38-23.98-41.46,23.85ZM2607.49,784.91l-.07,46.08-39.94,22.98-39.87-23.1.07-46.08,39.94-22.98,39.87,23.1Z"/>
        <path class="cls-1" d="M2375.35,773.63l-.05,32.74,28.32,16.41,28.38-16.32.05-32.74-28.32-16.41-28.38,16.32ZM2431.01,774.31l-.05,31.54-27.34,15.73-27.29-15.81.05-31.54,27.34-15.73,27.29,15.81Z"/>
        <path class="cls-1" d="M2539.22,1125.28l-.05,32.73,28.32,16.41,28.38-16.32.05-32.74-28.32-16.41-28.38,16.32ZM2594.88,1125.96l-.05,31.54-27.34,15.73-27.29-15.81.05-31.54,27.34-15.73,27.29,15.81Z"/>
        <path class="cls-1" d="M2514.42,698.72l-.07,39.02,33.75,19.57,33.83-19.45.07-39.02-33.75-19.57-33.83,19.45ZM2580.76,699.56l-.07,37.59-32.59,18.73-32.52-18.86.07-37.59,32.59-18.73,32.52,18.86Z"/>
        <path class="cls-1" d="M2027.87,892.9l-.07,39.02,33.75,19.57,33.83-19.45.07-39.02-33.75-19.57-33.83,19.45ZM2094.21,893.74l-.07,37.59-32.59,18.73-32.52-18.86.07-37.59,32.59-18.73,32.52,18.86Z"/>
        <path class="cls-1" d="M2075.42,920l-.09,45.77,39.6,22.96,39.68-22.81.09-45.77-39.6-22.96-39.68,22.81ZM2153.24,920.98l-.08,44.1-38.23,21.98-38.15-22.12.08-44.1,38.23-21.98,38.15,22.12Z"/>
        <path class="cls-1" d="M1559.29,839.64v124.79l108.08,62.4,108.08-62.4v-124.79l-108.08-62.4-108.08,62.4ZM1771.49,841.92v120.23l-104.13,60.12-104.13-60.12v-120.23l104.13-60.12,104.13,60.12Z"/>
        <path class="cls-1" d="M1554.02,893.19c0-3.95,3.2-7.16,7.16-7.16s7.16,3.2,7.16,7.16-3.2,7.16-7.16,7.16-7.16-3.2-7.16-7.16Z"/>
        <circle class="cls-1" cx="1622.82" cy="805.45" r="7.16"/>
        <path class="cls-1" d="M2129.33,1008.22c0-3.95,3.2-7.16,7.16-7.16s7.16,3.2,7.16,7.16-3.2,7.16-7.16,7.16-7.16-3.2-7.16-7.16Z"/>
        <path class="cls-1" d="M2129.33,880.56c0-3.95,3.2-7.16,7.16-7.16s7.16,3.2,7.16,7.16-3.2,7.16-7.16,7.16-7.16-3.2-7.16-7.16Z"/>
        <circle class="cls-1" cx="2136.48" cy="900.77" r="7.16"/>
        <circle class="cls-1" cx="1966.89" cy="1009.06" r="7.16"/>
        <path class="cls-1" d="M1800.24,1009.57c0-3.95,3.2-7.16,7.16-7.16s7.16,3.2,7.16,7.16-3.2,7.16-7.16,7.16-7.16-3.2-7.16-7.16Z"/>
        <circle class="cls-1" cx="1837.72" cy="949.27" r="7.16"/>
        <circle class="cls-1" cx="1931.52" cy="946.58" r="7.16"/>
        <circle class="cls-1" cx="1740.54" cy="982.45" r="7.16"/>
        <path class="cls-1" d="M1766.56,916.43c0-3.95,3.2-7.16,7.16-7.16s7.16,3.2,7.16,7.16-3.2,7.16-7.16,7.16-7.16-3.2-7.16-7.16Z"/>
        <circle class="cls-1" cx="2173.03" cy="1068.68" r="7.16"/>
        <circle class="cls-1" cx="2232.31" cy="824.48" r="7.16"/>
        <circle class="cls-1" cx="2272.23" cy="802.08" r="7.16"/>
        <path class="cls-1" d="M2352.98,842.67c0-3.95,3.2-7.16,7.16-7.16s7.16,3.2,7.16,7.16-3.2,7.16-7.16,7.16-7.16-3.2-7.16-7.16Z"/>
        <path class="cls-1" d="M2352.98,892.35c0-3.95,3.2-7.16,7.16-7.16s7.16,3.2,7.16,7.16-3.2,7.16-7.16,7.16-7.16-3.2-7.16-7.16Z"/>
        <path class="cls-1" d="M2418.33,969.15c0-3.95,3.2-7.16,7.16-7.16s7.16,3.2,7.16,7.16-3.2,7.16-7.16,7.16-7.16-3.2-7.16-7.16Z"/>
        <circle class="cls-1" cx="2501.78" cy="961.74" r="7.16"/>
        <circle class="cls-1" cx="2553.98" cy="883.26" r="7.16"/>
        <circle class="cls-1" cx="2633.31" cy="951.13" r="7.16"/>
        <circle class="cls-1" cx="2587.33" cy="1015.97" r="7.16"/>
        <circle class="cls-1" cx="2587.33" cy="1055.04" r="7.16"/>
        <circle class="cls-1" cx="2380.35" cy="1073.73" r="7.16"/>
        <path class="cls-1" d="M2298.08,1116.68c0-3.95,3.2-7.16,7.16-7.16s7.16,3.2,7.16,7.16-3.2,7.16-7.16,7.16-7.16-3.2-7.16-7.16Z"/>
        <path class="cls-1" d="M1964.45,893.02c0-2.09,1.7-3.79,3.79-3.79s3.79,1.7,3.79,3.79-1.7,3.79-3.79,3.79-3.79-1.7-3.79-3.79Z"/>
        <circle class="cls-1" cx="1931.52" cy="929.57" r="3.79"/>
        <path class="cls-1" d="M2056.57,973.86c0-2.09,1.7-3.79,3.79-3.79s3.79,1.7,3.79,3.79-1.7,3.79-3.79,3.79-3.79-1.7-3.79-3.79Z"/>
        <path class="cls-1" d="M1992.41,1025.57c0-2.09,1.7-3.79,3.79-3.79s3.79,1.7,3.79,3.79-1.7,3.79-3.79,3.79-3.79-1.7-3.79-3.79Z"/>
        <path class="cls-1" d="M2037.2,1062.79c0-2.09,1.7-3.79,3.79-3.79s3.79,1.7,3.79,3.79-1.7,3.79-3.79,3.79-3.79-1.7-3.79-3.79Z"/>
        <path class="cls-1" d="M2080.15,1004.35c0-2.09,1.7-3.79,3.79-3.79s3.79,1.7,3.79,3.79-1.7,3.79-3.79,3.79-3.79-1.7-3.79-3.79Z"/>
        <path class="cls-1" d="M2072.4,942.2c0-2.09,1.7-3.79,3.79-3.79s3.79,1.7,3.79,3.79-1.7,3.79-3.79,3.79-3.79-1.7-3.79-3.79Z"/>
        <path class="cls-1" d="M2056.4,949.95c0-2.09,1.7-3.79,3.79-3.79s3.79,1.7,3.79,3.79-1.7,3.79-3.79,3.79-3.79-1.7-3.79-3.79Z"/>
        <path class="cls-1" d="M2024.74,895.38c0-2.09,1.7-3.79,3.79-3.79s3.79,1.7,3.79,3.79-1.7,3.79-3.79,3.79-3.79-1.7-3.79-3.79Z"/>
        <path class="cls-1" d="M2091.1,909.53c0-2.09,1.7-3.79,3.79-3.79s3.79,1.7,3.79,3.79-1.7,3.79-3.79,3.79-3.79-1.7-3.79-3.79Z"/>
        <circle class="cls-1" cx="2398.2" cy="953.82" r="3.79"/>
        <path class="cls-1" d="M2497.65,978.58c0-2.09,1.7-3.79,3.79-3.79s3.79,1.7,3.79,3.79-1.7,3.79-3.79,3.79-3.79-1.7-3.79-3.79Z"/>
        <path class="cls-1" d="M2544.97,1016.81c0-2.09,1.7-3.79,3.79-3.79s3.79,1.7,3.79,3.79-1.7,3.79-3.79,3.79-3.79-1.7-3.79-3.79Z"/>
        <path class="cls-1" d="M2568.72,1112.3c0-2.09,1.7-3.79,3.79-3.79s3.79,1.7,3.79,3.79-1.7,3.79-3.79,3.79-3.79-1.7-3.79-3.79Z"/>
        <path class="cls-1" d="M2389.19,1108.26c0-2.09,1.7-3.79,3.79-3.79s3.79,1.7,3.79,3.79-1.7,3.79-3.79,3.79-3.79-1.7-3.79-3.79Z"/>
        <path class="cls-1" d="M2632.89,818.42c0-2.09,1.7-3.79,3.79-3.79s3.79,1.7,3.79,3.79-1.7,3.79-3.79,3.79-3.79-1.7-3.79-3.79Z"/>
        <path class="cls-1" d="M2371,1142.28c0-2.09,1.7-3.79,3.79-3.79s3.79,1.7,3.79,3.79-1.7,3.79-3.79,3.79-3.79-1.7-3.79-3.79Z"/>
        <path class="cls-1" d="M2591.46,1146.32c0-2.09,1.7-3.79,3.79-3.79s3.79,1.7,3.79,3.79-1.7,3.79-3.79,3.79-3.79-1.7-3.79-3.79Z"/>
        <circle class="cls-1" cx="2136.48" cy="975.72" r="5.98"/>
        <path class="cls-1" d="M2130.51,910.37c0-3.3,2.68-5.98,5.98-5.98s5.98,2.68,5.98,5.98-2.68,5.98-5.98,5.98-5.98-2.68-5.98-5.98Z"/>
        <circle class="cls-1" cx="1693.22" cy="794.67" r="3.79"/>
        <path class="cls-1" d="M1642.95,791.47c0-2.09,1.7-3.79,3.79-3.79s3.79,1.7,3.79,3.79-1.7,3.79-3.79,3.79-3.79-1.7-3.79-3.79Z"/>
        <path class="cls-1" d="M1769.93,863.21c0-2.09,1.7-3.79,3.79-3.79s3.79,1.7,3.79,3.79-1.7,3.79-3.79,3.79-3.79-1.7-3.79-3.79Z"/>
        <circle class="cls-1" cx="1757.55" cy="831.89" r="3.79"/>
        <path class="cls-1" d="M2604.26,823.47c0-2.09,1.7-3.79,3.79-3.79s3.79,1.7,3.79,3.79-1.7,3.79-3.79,3.79-3.79-1.7-3.79-3.79Z"/>
        <path class="cls-1" d="M2556.26,765.2c0-2.09,1.7-3.79,3.79-3.79s3.79,1.7,3.79,3.79-1.7,3.79-3.79,3.79-3.79-1.7-3.79-3.79Z"/>
        <circle class="cls-1" cx="2526.87" cy="804.27" r="3.79"/>
        <circle class="cls-1" cx="2553.65" cy="846.88" r="3.79"/>
        <path class="cls-1" d="M2427.59,779.18c0-2.09,1.7-3.79,3.79-3.79s3.79,1.7,3.79,3.79-1.7,3.79-3.79,3.79-3.79-1.7-3.79-3.79Z"/>
        <path class="cls-1" d="M2376.73,808.99c0-2.09,1.7-3.79,3.79-3.79s3.79,1.7,3.79,3.79-1.7,3.79-3.79,3.79-3.79-1.7-3.79-3.79Z"/>
        <path class="cls-1" d="M2556.43,749.37c0-2.09,1.7-3.79,3.79-3.79s3.79,1.7,3.79,3.79-1.7,3.79-3.79,3.79-3.79-1.7-3.79-3.79Z"/>
        <circle class="cls-1" cx="2581.27" cy="716.53" r="3.79"/>
      </g>
    </g>
  </g>
</svg>
