<?xml version="1.0" encoding="UTF-8"?>
<svg xmlns="http://www.w3.org/2000/svg" xmlns:xlink="http://www.w3.org/1999/xlink" viewBox="0 242.13 1800 1320">
  <defs>
    <style>
      .cls-1 {
        fill: #898989;
      }

      .cls-2 {
        fill: none;
      }

      .cls-3 {
        clip-path: url(#clippath-1);
      }

      .cls-4 {
        fill: #c1c1c1;
      }

      .cls-5 {
        clip-path: url(#clippath);
      }
    </style>
    <clipPath id="clippath">
      <rect class="cls-2" y="242.13" width="1800" height="1320"/>
    </clipPath>
    <clipPath id="clippath-1">
      <rect class="cls-2" y="242.13" width="1800" height="1320"/>
    </clipPath>
  </defs>
  <g id="Layer_3" data-name="Layer 3">
    <g class="cls-5">
      <path class="cls-1" d="M579.4,807.13l-15.86.72-.02-.3-2.9-47.85,12.26-50.58,16.21-4.41,3.63,49.85-13.32,52.57ZM563.84,806.63l15.47-.75,12.98-51.25-3.53-48.61-15.81,4.26-11.97,49.36,2.86,46.99Z"/>
      <path class="cls-1" d="M600.13,859.49l-17.54-1.23-.02-.32-3.42-51.43,13.3-52.54,17.93-2.9,4.28,53.77-14.53,54.65ZM582.92,857l17.11,1.15,14.16-53.28-4.16-52.42-17.49,2.77-12.99,51.27,3.36,50.51Z"/>
      <path class="cls-1" d="M610.26,752.41l-17.93,2.84-3.62-49.83,13.49-54.46,18.32-6.97.03.31,4.45,51.3-14.74,56.81ZM592.67,753.94l17.49-2.82,14.36-55.39-4.36-50.32-17.86,6.75-13.17,53.15,3.54,48.63Z"/>
      <path class="cls-1" d="M634.21,804.63l-19.96.91-4.27-53.74,14.72-56.78,20.4-5.55.03.34,5.26,55.53-16.19,59.3ZM614.61,804.17l19.48-.94,15.77-57.81-5.15-54.46-19.89,5.36-14.37,55.41,4.17,52.45Z"/>
      <path class="cls-1" d="M623.45,918.38l-19.53-3.67-4.06-55.9,14.52-54.62,19.97-.97.03.35,5.03,57.95-15.96,56.86ZM604.28,913.39l19.05,3.53,15.54-55.44-4.93-56.84-19.47.89-14.17,53.31,3.97,54.55Z"/>
      <path class="cls-1" d="M649.86,985.07l-21.9-6.76-.03-.38-4.79-60.32,15.94-56.83,22.4,1.5,6.03,63.61-17.64,59.19ZM628.36,976.94l21.37,6.54,17.19-57.71-5.86-62.01-21.84-1.53-15.56,55.46,4.71,59.25Z"/>
      <path class="cls-1" d="M661.34,863.78l-22.39-1.57-.03-.37-5.02-57.9,16.17-59.27,22.89-3.7.04.37,6.25,60.47-17.91,61.97ZM639.34,860.78l21.85,1.47,17.44-60.41-6.12-59.31-22.32,3.54-15.79,57.84,4.94,56.87Z"/>
      <path class="cls-1" d="M692.31,931.33l-25.33-4.76-6.01-63.57,17.88-61.93,25.9-1.25.05.4,7.48,66.3-19.97,64.82ZM667.43,925.08l24.71,4.57,19.45-63.19-7.32-65.03-25.25,1.15-17.47,60.45,5.88,62.05Z"/>
      <path class="cls-1" d="M644.97,690.88l-20.4,5.49-.03-.32-4.44-51.26,14.92-58.94,20.83-10.13,5.52,53.42-16.42,61.74ZM624.94,694.95l19.9-5.41,15.99-60.19-5.37-52.09-20.32,9.83-14.57,57.52,4.37,50.34Z"/>
      <path class="cls-1" d="M684.28,621.19l-23.37,8.83-5.51-53.4,16.63-64.14,23.87-14.09.04.33,6.78,54.94-18.43,67.52ZM661.32,628.47l22.81-8.68,17.95-65.82-6.63-53.9-23.28,13.68-16.24,62.6,5.39,52.11Z"/>
      <path class="cls-1" d="M716.89,671.51l-26.45,7.13-6.54-58.03,18.41-67.48,27.02-13.14.05.36,8.08,59.96-20.57,71.2ZM690.89,677.01l25.81-7.02,20.04-69.41-7.91-58.81-26.35,12.75-17.98,65.87,6.39,56.63Z"/>
      <path class="cls-1" d="M741.26,869.37l-29.57-2.07-7.51-66.66,20.24-67.97,30.23-4.88.06.42,9.39,69.61-.14.45-22.69,71.1ZM712.19,865.67l28.85,1.93,22.24-69.75-9.18-68.27-29.48,4.68-19.77,66.34,7.34,65.07Z"/>
      <path class="cls-1" d="M754.49,729.52l-30.22,4.8-.05-.4-7.76-63.08,20.54-71.16,30.88-11.75.06.4,9.73,65.93-.15.47-23.04,74.78ZM724.78,732.61l29.49-4.76,22.58-73.36-9.53-64.66-30.11,11.37-20.07,69.45,7.64,61.95Z"/>
      <path class="cls-1" d="M798.31,797.14l-34.91,1.59-.06-.44-9.36-69.55,23.15-75.2,35.68-9.71.07.44,11.85,73.15-.17.5-26.25,79.22ZM763.98,796.93l34.06-1.65,25.73-77.71-11.59-71.73-34.79,9.37-22.62,73.41,9.21,68.31Z"/>
      <path class="cls-1" d="M680.03,1061.24l-24.77-10.71-5.75-66.34,17.62-59.16,25.33,4.69.04.42,7.18,69.48-19.67,61.63ZM655.7,1049.11l24.16,10.37,19.16-60.08-7.03-68.13-24.7-4.65-17.21,57.74,5.62,64.76Z"/>
      <path class="cls-1" d="M714.81,1149.06l-28.27-15.8-.04-.46-6.86-72.58,19.64-61.6,28.93,8.85.05.46,8.69,76.98-.14.4-21.99,63.74ZM687.02,1131.79l27.59,15.33,21.56-62.53-8.5-75.49-28.21-8.71-19.18,60.12,6.76,71.29Z"/>
      <path class="cls-1" d="M728.03,1009.21l-28.92-8.93-7.21-69.85,19.94-64.78,29.58,1.98.05.44,9.04,73.3-.14.43-22.34,67.42ZM699.6,998.73l28.22,8.63,21.9-66.14-8.84-71.88-28.85-2.02-19.48,63.23,7.05,68.18Z"/>
      <path class="cls-1" d="M769.67,1100l-33.4-14.44-.06-.49-8.66-76.9,22.45-67.81,34.16,6.32.07.49,11.03,81.8-.16.45-25.43,70.57ZM736.83,1083.94l32.58,13.99,24.93-69.23-10.79-80.21-33.31-6.27-21.93,66.18,8.53,75.54Z"/>
      <path class="cls-1" d="M755.34,1251.43l-32.64-22.46-.05-.51-8.31-80.57,22.1-64.11,33.4,14.34.06.52,10.62,86.13-.16.42-25.03,66.24ZM723.26,1227.45l31.84,21.81,24.52-64.99-10.39-84.45-32.57-14.09-21.59,62.56,8.19,79.16Z"/>
      <path class="cls-1" d="M803.2,1372.28l-38.16-31.31-.06-.57-10.18-90.35.15-.4,24.99-66.23,39.07,21.71.08.58,13.15,97.5-.18.44-28.85,68.63ZM765.67,1339.4l37.24,30.43,28.27-67.35-12.86-95.58-38.1-21.29-24.57,65.02,10.02,88.77Z"/>
      <path class="cls-1" d="M877.73,1335.64l-46.39-31.92-.08-.62-13.1-97.37.18-.44,29.29-73.78,47.48,20.39.1.63,17.12,105.68-.22.49-34.38,76.94ZM832.07,1301.97l45.27,31,33.68-75.5-16.74-103.59-46.3-20.02-28.8,72.44,12.9,95.67Z"/>
      <path class="cls-1" d="M783.99,948.57l-34.15-6.42-.06-.46-9.01-73.22,22.8-71.51,34.92-1.69.07.47,11.44,77.47-.16.48-25.84,74.89ZM750.4,940.44l33.32,6.17,25.33-73.47-11.19-75.97-34.05,1.55-22.27,69.79,8.87,71.93Z"/>
      <path class="cls-1" d="M834.44,1042.08l-39.96-12.34-.07-.52-10.99-81.71.15-.45,25.81-74.87,40.87,2.74.08.52,14.12,87.18-.19.5-29.83,78.95ZM795.12,1027.94l38.99,11.92,29.22-77.45-13.81-85.48-39.85-2.79-25.37,73.52,10.82,80.27Z"/>
      <path class="cls-1" d="M912.06,972.66l-48.55-9.13-.09-.55-14.07-87.08.18-.5,30.27-84.07,49.64-2.4.11.56,18.3,93.17-.23.57-35.56,89.44ZM864.27,961.52l47.37,8.77,34.84-87.74-17.9-91.35-48.41,2.21-29.76,82.56,13.86,85.55Z"/>
      <path class="cls-1" d="M860.56,1517.13l-45.32-43.32-.08-.65-12.61-102.51.17-.41,28.81-68.63,46.41,31.78.1.67,16.53,111.93-.22.45-33.79,70.69ZM815.97,1472.19l44.21,42.11,33.1-69.38-16.16-109.71-45.25-31.14-28.32,67.37,12.42,100.73Z"/>
      <path class="cls-1" d="M930.57,1693.9l-54.81-60-.1-.75-15.87-117.99.2-.42,33.73-70.7,56.15,45.88.13.78,21.18,130.75-.26.46-40.34,72ZM876.6,1632.25l53.48,58.35,39.51-70.67-20.71-128.13-54.75-44.92-33.17,69.4,15.64,115.97Z"/>
      <path class="cls-1" d="M1039.33,1688.01l-69.46-66.4-.14-.84-21.09-130.52.24-.47,41-79.74,71.14,48.72.17.87,28.74,146.31-.32.53-50.27,81.56ZM970.9,1619.76l67.77,64.55,49.22-80.05-28.09-143.34-69.36-47.73-40.32,78.27,20.78,128.3Z"/>
      <path class="cls-1" d="M688.35,1428.75l-26.97-29.53-6.3-79.41,19.04-55.23,27.63,22.58.05.51,7.99,84.35-.14.36-21.3,56.37ZM661.85,1397.91l26.32,28.72,20.87-55.32-7.82-82.7-26.94-22.11-18.6,53.89,6.17,77.52Z"/>
      <path class="cls-1" d="M741.02,1402.85l-31.88-30.47-.05-.53-7.97-84.25,21.75-60.41,32.65,22.36.06.54,10.21,90.46-.16.39-24.62,61.91ZM709.68,1370.95l31.1,29.63,24.12-60.76-9.99-88.69-31.83-21.9-21.25,58.95,7.84,82.77Z"/>
      <path class="cls-1" d="M726.7,1554.28l-31.12-38.49-.05-.56-7.62-87.92,21.4-56.71,31.89,30.37.06.57,9.8,94.79-.15.37-24.21,57.59ZM696.11,1514.46l30.36,37.45,23.72-56.52-9.59-92.92-31.09-29.72-20.91,55.34,7.5,86.38Z"/>
      <path class="cls-1" d="M843.4,1698.61l-44.24-54.71-.08-.69-12.13-107.65.17-.38,28.32-63.49,45.33,43.18.1.71,15.94,118.18-.21.41-33.2,64.44ZM799.87,1642.42l43.16,53.23,32.52-63.26-15.58-115.83-44.2-42.25-27.84,62.31,11.94,105.79Z"/>
      <path class="cls-1" d="M603.97,1470.24l-19.93-27.56-3.9-70.45,15.01-47.09,20.43,22.29.03.45,4.95,74.27-16.59,48.08ZM584.41,1441.56l19.45,26.82,16.16-46.89-4.84-72.83-19.92-21.81-14.66,45.95,3.81,68.76Z"/>
      <path class="cls-1" d="M630.88,1580.88l-22.52-34.49-.03-.49-4.67-76.95,16.57-48.07,23.09,28.47,6.02,82.66-18.46,48.86ZM608.77,1545.25l21.97,33.57,17.98-47.66-5.85-80.56-22.51-27.84-16.18,46.9,4.6,75.59Z"/>
      <path class="cls-1" d="M643.17,1450.97l-23.08-28.54-4.96-74.66,16.83-50.84,23.65,22.52.04.48,6.28,78.99-18.76,52.05ZM620.5,1421.22l22.52,27.77,18.28-50.76-6.15-77.46-23.06-22.04-16.44,49.61,4.85,72.88Z"/>
      <path class="cls-1" d="M675.12,1568.6l-26.33-36.39-6-82.59,18.74-52.04,26.98,29.44.05.53,7.64,88.03-.13.33-20.95,52.69ZM649.26,1530.97l25.69,35.42,20.53-51.71-7.48-86.31-26.31-28.8-18.3,50.78,5.87,80.63Z"/>
      <path class="cls-1" d="M580.42,1373.36l-17.79-22.01-.02-.4-3.23-64.12,13.7-46,18.23,17.37,4.14,68.06-15.03,47.1ZM562.96,1350.26l17.36,21.41,14.65-45.93-4.03-66.34-17.78-17-13.38,44.88,3.18,62.98Z"/>
      <path class="cls-1" d="M591.18,1259.62l-18.23-17.42-.02-.39-3.43-61.97,13.9-48.16,18.67,12.78.03.39,4.34,65.22-15.26,49.54ZM573.29,1241.04l17.79,16.94,14.87-48.31-4.25-63.97-18.2-12.52-13.58,46.99,3.38,60.87Z"/>
      <path class="cls-1" d="M615.45,1348.95l-20.43-22.36-4.13-68.01,15.24-49.53,20.92,17.1.03.43,5.21,71.51-16.85,50.86ZM595.4,1325.41l19.93,21.75,16.42-49.59-5.1-70.12-20.4-16.74-14.89,48.33,4.04,66.39Z"/>
      <path class="cls-1" d="M524.57,1143.68l-13.18-10.82v-.32s-1.9-50.89-1.9-50.89l10.77-42.52,13.5,7.5,2.44,53.35-11.62,43.7ZM511.65,1131.84l12.86,10.51,11.32-42.61-2.37-52.01-13.16-7.35-10.51,41.49,1.86,49.98Z"/>
      <path class="cls-1" d="M541.12,1211.77l-14.48-13.84v-.34s-2.27-54.7-2.27-54.7l11.61-43.68,14.83,10.16.02.35,2.89,57.2-12.59,44.87ZM526.93,1196.88l14.13,13.46,12.27-43.75-2.82-56.11-14.46-9.95-11.33,42.63,2.22,53.72Z"/>
      <path class="cls-1" d="M550.69,1110.61l-14.83-10.2-.02-.33-2.42-52.99,11.77-45.41,15.17,6.51,3.08,55.63-12.77,46.79ZM536.16,1099.32l14.47,9.91,12.45-45.63-3-54.23-14.8-6.4-11.49,44.31,2.38,52.04Z"/>
      <path class="cls-1" d="M569.75,1180.75l-16.39-13.44-.02-.36-2.88-57.16,12.76-46.77,16.78,9.32,3.66,60.24-13.92,48.17ZM553.68,1166.18l15.99,13.06,13.56-46.97-3.56-58.73-16.36-9.14-12.46,45.64,2.83,56.14Z"/>
      <path class="cls-1" d="M509.66,1082.38l-12.06-8.3v-.3s-1.59-47.55-1.59-47.55l10.03-41.37,12.35,5.3,2.05,49.68-10.78,42.53ZM497.85,1073.08l11.77,8.06,10.5-41.47-2-48.44-12.04-5.21-9.79,40.37,1.56,46.69Z"/>
      <path class="cls-1" d="M601.93,1145.87l-18.66-12.84-.02-.38-3.63-59.83,14.11-50.31,19.1,8.2,4.6,63.18-15.49,51.98ZM583.62,1131.82l18.21,12.47,15.1-50.68-4.48-61.59-18.63-8.05-13.78,49.1,3.57,58.76Z"/>
      <path class="cls-1" d="M638.39,1106.36l-21.41-11.96-.03-.4-4.56-62.74,15.71-54.4,21.91,6.7.03.4,5.73,65.99-17.38,56.41ZM617.37,1093.09l20.89,11.61,16.93-55-5.61-64.71-21.36-6.6-15.34,53.08,4.49,61.63Z"/>
      <path class="cls-1" d="M579.88,1073.67l-16.77-9.37-3.08-55.6,12.94-48.7,17.16,5.25.02.35,3.85,57.73-14.12,50.33ZM563.43,1063.13l16.36,9.09,13.76-49.08-3.76-56.63-16.73-5.17-12.64,47.52,3.01,54.26Z"/>
      <path class="cls-1" d="M560.26,1009.45l-15.17-6.56-2.6-51.6,11.93-47.13,15.52,2.87.02.32,3.25,53.38-12.95,48.72ZM545.38,1001.76l14.8,6.35,12.62-47.5-3.18-52.36-15.13-2.85-11.65,45.99,2.54,50.36Z"/>
      <path class="cls-1" d="M590.01,966.59l-17.16-5.3-.02-.34-3.24-53.34,13.12-50.62,17.55,1.18.02.34,4.05,55.59-14.33,52.49ZM573.17,960.07l16.74,5.12,13.96-51.18-3.96-54.52-17.11-1.2-12.81,49.4,3.19,52.38Z"/>
      <path class="cls-1" d="M542.7,951.97l-13.8-4.26-2.2-48.1,11.06-45.63,14.12.95.02.3,2.75,49.6-11.95,47.15ZM529.17,946.6l13.47,4.12,11.64-45.97-2.69-48.65-13.77-.96-10.8,44.53,2.15,46.94Z"/>
      <path class="cls-1" d="M569.83,908.29l-15.51-2.92-.02-.31-2.74-49.56,12.1-48.86,15.86-.77.02.31,3.43,51.47-13.14,50.64ZM554.61,904.19l15.14,2.8,12.8-49.38-3.36-50.48-15.47.71-11.81,47.68,2.7,48.67Z"/>
      <path class="cls-1" d="M626.92,1227.65l-20.92-17.16-.03-.41-4.33-65.16,15.48-51.96,21.41,11.9,5.5,69.16-17.12,53.64ZM606.38,1209.25l20.41,16.68,16.68-52.3-5.35-67.42-20.88-11.67-15.11,50.71,4.26,64.01Z"/>
      <path class="cls-1" d="M655.45,1321.06l-23.64-22.6-.03-.45-5.19-71.44,17.09-53.62,24.21,16.58.04.46,6.58,75.82-19.06,55.25ZM632.24,1297.18l23.07,21.97,18.57-53.87-6.44-74.35-23.61-16.24-16.7,52.32,5.11,70.17Z"/>
      <path class="cls-1" d="M667.74,1191.15l-24.2-16.65-5.49-69.12,17.36-56.39,24.77,10.63.04.44,6.88,72.65-19.37,58.44ZM643.97,1173.15l23.61,16.17,18.86-56.98-6.74-71.24-24.16-10.45-16.95,55.03,5.37,67.46Z"/>
      <path class="cls-1" d="M701.58,1288.91l-27.62-22.66-.04-.48-6.56-75.74,19.34-58.41,28.28,15.71,8.39,81.15-.14.38-21.65,60.05ZM674.43,1264.85l26.95,22.02,21.22-58.93-8.16-79.09-27.58-15.41-18.89,57,6.46,74.4Z"/>
      <path class="cls-1" d="M1178.83,1680.45l-90.58-74.31-.18-.94-28.61-146.01.3-.54,51.08-91.37,92.73,51.52.24.98,40.1,166.04-.42.61-64.67,94.03ZM1089.55,1604.04l88.37,72.21,63.29-92.3-39.18-162.64-90.42-50.53-50.26,89.7,28.2,143.56Z"/>
      <path class="cls-1" d="M1203.27,1422l-92.71-51.8-.19-.88-29.53-136.23.31-.6,52.01-101.16,94.86,29.01.24.9,41.32,153.17-.43.69-65.89,106.9ZM1111.89,1367.85l90.45,50.25,64.48-104.88-40.37-150.05-92.5-28.57-51.17,99.33,29.11,133.92Z"/>
      <path class="cls-1" d="M1364.26,1670.41l-122.54-84.32-.26-1.07-39.91-165.66.39-.63,65.72-106.9,125.42,53.84.34,1.12,58.18,191.88-.57.73-86.77,111ZM1243.4,1583.65l119.55,81.87,84.87-108.95-56.8-187.89-122.29-52.88-64.68,104.94,39.35,162.91Z"/>
      <path class="cls-1" d="M1392.73,1369.42l-125.39-54.22-.27-.99-41.12-152.85.39-.7,66.93-119.72,128.27,23.75.35,1.02,59.84,174.28-.58.84-88.44,128.59ZM1269.05,1312.43l122.33,52.52,86.5-126.15-58.43-170.69-125.07-23.52-65.88,117.57,40.54,150.28Z"/>
      <path class="cls-1" d="M1622.77,1656.41l-174.2-97.34-.38-1.25-57.85-191.38.51-.75,88.17-128.58,178.25,54.52.51,1.31,89.18,227.16-.82.9-123.38,135.42ZM1450.84,1556.17l169.94,94.42,120.58-132.91-86.98-222.34-173.79-53.68-86.83,126.25,57.08,188.25Z"/>
      <path class="cls-1" d="M1656.86,1296.11l-178.2-55.04-.39-1.14-59.51-173.86.52-.85,89.83-146.11,182.25,12.22.53,1.16,91.59,201.64-.83,1.06-125.79,160.92ZM1480.97,1237.7l173.84,53.17,122.94-157.82-89.34-197.43-177.69-12.43-88.46,143.52,58.71,170.99Z"/>
      <path class="cls-1" d="M2008.18,1635.54l-265.64-114.87-.59-1.5-88.59-226.45.72-.93,125.32-160.87,271.75,50.31.84,1.58,148.41,278.06-1.29,1.17-190.94,173.5ZM1745.79,1517.09l259.12,111.24,186.39-170.26-144.56-271.99-264.93-49.83-123.5,157.99,87.48,222.84Z"/>
      <path class="cls-1" d="M987.74,1089.43l-58.77-18.15-.11-.63-17.64-99.29.21-.53,35.5-89.41,60.1,4.03.14.64,23.38,107.54-.27.61-42.54,95.2ZM929.87,1069.15l57.34,17.54,41.66-93.38-22.85-105.42-58.61-4.1-34.91,87.8,17.38,97.56Z"/>
      <path class="cls-1" d="M1082.16,1235.12l-72.77-31.47-.14-.74-22.55-115.1.25-.57,42.45-95.17,74.44,13.78.18.75,30.59,126.67-.34.65-52.12,101.18ZM1010.47,1201.42l71,30.48,51.03-99.26-29.9-124.14-72.59-13.65-41.76,93.45,22.22,113.12Z"/>
      <path class="cls-1" d="M729.18,541.6l-27.01,13.07-.04-.35-6.76-54.91,18.67-70.25,27.58-19.09.05.34,8.38,56.79-20.88,74.39ZM702.63,552.97l26.36-12.82,20.33-72.52-8.21-55.7-26.9,18.55-18.23,68.57,6.65,53.92Z"/>
      <path class="cls-1" d="M767.71,589.68l-30.87,11.66-8.11-60.29,20.85-74.34,31.53-18.61.06.37,10.08,62.25-.15.5-23.39,78.46ZM737.36,599.55l30.12-11.46,22.92-76.96-9.87-61.06-30.75,18.07-20.36,72.57,7.93,58.84Z"/>
      <path class="cls-1" d="M780.94,449.83l-31.52,18.53-.05-.36-8.36-56.75,21.15-77.53,32.18-25.48,10.49,58.92-.15.52-23.74,82.15ZM749.95,466.48l30.75-18.15,23.26-80.57-10.21-57.45-31.38,24.77-20.66,75.68,8.23,55.73Z"/>
      <path class="cls-1" d="M865.67,711.88l-41.75,6.63-.08-.46-11.81-73.08.16-.5,26.63-83.51,42.66-16.23.09.46,15.1,76.86-.2.57-30.8,89.26ZM824.58,716.49l40.74-6.58,30.18-87.55-14.77-75.38-41.6,15.71-26.17,82.01,11.63,71.78Z"/>
      <path class="cls-1" d="M881.28,546.78l-42.65,16.11-.08-.44-12.22-68.76.16-.53,27.03-87.83,43.56-25.71.09.43,15.59,71.71-.2.6-31.29,94.42ZM839.31,560.76l41.61-15.83,30.66-92.6-15.25-70.33-42.48,24.96-26.57,86.26,12.03,67.53Z"/>
      <path class="cls-1" d="M946.39,609.68l-50.7,13.66-.1-.49-15.05-76.79.19-.57,31.24-94.37,51.8-25.2.12.48,19.48,80.67-.23.65-36.74,101.94ZM896.47,621.07l49.47-13.46,35.99-99.98-19.06-79.11-50.51,24.44-30.72,92.68,14.82,75.42Z"/>
      <path class="cls-1" d="M980.73,246.7l-52.86,36.45-.1-.42-16.02-66.5.19-.63,32.22-104.66,53.95-47.99.12.41,20.67,68.16-.24.73-37.93,114.44ZM928.68,280.62l51.57-35.69,37.15-112.22-20.21-66.87-52.61,46.67-31.67,102.81,15.77,65.3Z"/>
      <path class="cls-1" d="M963.56,428.19l-51.78,25.05-.1-.46-15.53-71.64.19-.6,31.73-99.51,52.87-36.59.12.44,20.08,74.41-.24.69-37.34,108.19ZM912.58,450.84l50.52-24.58,36.57-106.1-19.64-72.99-51.56,35.55-31.19,97.75,15.29,70.36Z"/>
      <path class="cls-1" d="M1044.91,484.97l-62.73,23.69-.12-.51-19.41-80.59.22-.65,37.27-108.12,64.06-37.82.15.5,25.57,84.34-.29.76-44.73,118.4ZM983.13,506.06l61.2-23.28,43.81-116.09-25-82.71-62.47,36.72-36.65,106.21,19.12,79.16Z"/>
      <path class="cls-1" d="M1063.97,283.48l-64.05,37.64-.13-.48-20-74.35.23-.68,37.86-114.36,65.38-51.76.16.46,26.3,76.6-.29.81-45.46,126.13ZM1000.88,318.36l62.48-36.88,44.52-123.66-25.72-75.14-63.76,50.32-37.23,112.35,19.7,73.02Z"/>
      <path class="cls-1" d="M1167.83,329.36l-79.38,38.41-.16-.54-25.47-84.25.27-.75,45.37-126.03,81.05-56.09.2.52,34.31,87.4-.36.91-55.84,140.44ZM1089.6,364.73l77.44-37.67,54.67-137.68-33.54-85.72-79.03,54.5-44.63,123.82,25.09,82.75Z"/>
      <path class="cls-1" d="M929.23,791.17l-49.63,2.26-.09-.52-14.56-81.93.18-.53,30.76-89.22,50.72-13.8.11.52,18.89,86.92-.23.61-36.15,95.69ZM880.37,791.29l48.42-2.35,35.42-93.86-18.48-85.23-49.46,13.32-30.24,87.62,14.34,80.49Z"/>
      <path class="cls-1" d="M1006.8,887.94l-60.09-4.2-.12-.59-18.23-93.05.22-.57,36.09-95.65,61.42-9.92.14.59,24.11,99.81-.28.66-43.27,102.93ZM947.62,881.46l58.62,3.93,42.37-100.95-23.57-97.85-59.89,9.5-35.49,93.94,17.96,91.43Z"/>
      <path class="cls-1" d="M1025.85,686.46l-61.41,9.74-.12-.55-18.82-86.82.22-.61,36.68-101.89,62.74-23.87.15.55,24.84,92.07-.28.71-44,110.66ZM965.37,693.76l59.91-9.67,43.09-108.52-24.29-90.28-61.18,23.11-36.07,100.08,18.54,85.29Z"/>
      <path class="cls-1" d="M1125,782.24l-76.07,3.47-.15-.64-24.01-99.68.26-.66,43.91-110.6,77.74-21.15.19.63,32.45,107.03-.35.78-53.98,120.81ZM1050.03,783.07l74.22-3.6,52.85-118.47-31.72-104.93-75.81,20.42-43.19,108.64,23.65,97.93Z"/>
      <path class="cls-1" d="M1227.72,1163.56l-94.83-29.29-.2-.82-30.46-126.45.31-.66,52.94-110.95,96.99,6.5.25.83,42.54,140.3-.44.78-67.1,119.76ZM1134.23,1131.66l92.52,28.3,65.67-117.46-41.56-137.47-94.57-6.62-52.08,108.97,30.02,124.29Z"/>
      <path class="cls-1" d="M1421.2,1068.43l-128.23-24.12-.27-.91-42.33-140.03.4-.78,68.14-132.54,131.11-6.35.36.91,61.51,156.68-.59.96-90.1,146.18ZM1294.71,1041.2l125.1,23.16,88.13-143.35-60.05-153.5-127.84,5.83-67.07,130.2,41.74,137.65Z"/>
      <path class="cls-1" d="M1146.42,555.8l-77.72,20.94-.16-.59-24.74-91.96.27-.7,44.64-118.31,79.4-38.62.2.58,33.38,97.21-.35.84-54.91,130.62ZM1069.82,573.9l75.83-20.63,53.76-128.07-32.63-95.33-77.42,37.46-43.91,116.23,24.37,90.34Z"/>
      <path class="cls-1" d="M1276.61,646.66l-99.09,15.73-.21-.69-32.31-106.88.32-.77,54.79-130.53,101.25-38.51.26.67,44.97,114.56-.45.94-69.54,145.48ZM1178.91,659.27l96.68-15.61,68.05-142.63-43.94-112.31-98.73,37.29-53.9,128.23,31.84,105.02Z"/>
      <path class="cls-1" d="M1301.06,388.21l-101.22,38.23-.21-.63-33.24-97.1.33-.83,55.71-140.31,103.38-61.02.27.6,46.19,101.69-.46,1.03-70.75,158.35ZM1201.25,423.08l98.75-37.57,69.24-155.21-45.13-99.73-100.8,59.25-54.82,137.87,32.75,95.39Z"/>
      <path class="cls-1" d="M1478.14,466.44l-133.93,36.08-.29-.74-44.75-114.4.41-.93,70.57-158.19,136.81-66.55.38.71,64.84,121.47-.61,1.19-93.43,181.36ZM1346.02,498.75l130.66-35.55,91.38-177.74-63.31-119.1-133.4,64.54-69.46,155.46,44.13,112.4Z"/>
      <path class="cls-1" d="M1449.67,767.43l-131.08,5.98-.28-.83-43.54-127.21.41-.86,69.36-145.37,133.96-36.45.37.81,63.17,139.08-.6,1.07-91.76,163.77ZM1320.36,769.97l127.88-6.2,89.75-160.54-61.68-136.3-130.62,35.19-68.27,142.83,42.93,125.03Z"/>
      <path class="cls-1" d="M1690.94,935.8l-182.2-12.75-.4-1.02-61.17-156.35.53-.95,91.48-163.64,186.25-30.07.54,1.02,94,176.12-.85,1.23-128.2,186.42ZM1511.09,919.24l177.74,11.92,125.3-182.73-91.7-172.52-181.59,28.82-90.09,160.79,60.35,153.72Z"/>
      <path class="cls-1" d="M1725.02,575.5l-186.2,29.55-.41-.91-62.82-138.83.54-1.06,93.14-181.17,190.25-72.37.56.87,96.42,150.6-.86,1.4-130.61,211.91ZM1541.21,600.77l181.64-29.33,127.65-207.63-94.05-147.61-185.5,70.07-91.73,178.06,61.98,136.45Z"/>
      <path class="cls-1" d="M2093.07,738.09l-277.7,12.67-.62-1.16-93.39-175.71.75-1.22,130.12-211.65,283.81-77.22.88,1.12,156.04,197.47-1.34,1.71-198.56,254ZM1818.75,745.83l270.88-13.12,193.82-248.8-151.99-193.44-276.69,74.53-128.24,208.07,92.22,172.77Z"/>
    </g>
  </g>
  <g id="Layer_4" data-name="Layer 4">
    <g class="cls-3">
      <path class="cls-4" d="M596.26,806.17l-17.01.78-3.3-49.71,12.95-52.31,17.39-4.72,4.1,51.52-14.12,54.44ZM579.47,806.05l16.72-.8,13.86-53.46-4.02-50.6-17.08,4.61-12.74,51.41,3.25,48.85Z"/>
      <path class="cls-4" d="M618.86,860.6l-18.9-1.31-3.89-53.57,14.11-54.42,19.32-3.11,4.84,55.73-15.47,56.69ZM600.21,858.35l18.57,1.25,15.19-55.67-4.74-54.73-18.98,3.02-13.87,53.48,3.83,52.65Z"/>
      <path class="cls-4" d="M629.4,749.18l-19.32,3.07-4.09-51.51,14.3-56.49,19.73-7.5,5.06,53.4-15.69,59.02ZM610.34,751.27l18.98-3.06,15.4-57.96-4.96-52.44-19.38,7.33-14.06,55.51,4.03,50.61Z"/>
      <path class="cls-4" d="M655.62,803.44l-21.61.99-4.83-55.71,15.68-58.99,22.09-6,5.99,57.99-17.32,61.72ZM634.29,803.42l21.24-1.02,17-60.61-5.88-56.95-21.69,5.85-15.42,57.98,4.75,54.75Z"/>
      <path class="cls-4" d="M673.49,992.13l-23.84-7.35-5.48-63.26,17.05-59.05,24.38,1.65,6.87,66.42-18.98,61.6ZM649.95,983.76l23.43,7.18,18.62-60.49-6.73-65.22-23.95-1.67-16.77,58.03,5.4,62.17Z"/>
      <path class="cls-4" d="M666.85,684.78l-22.08,5.96-5.05-53.38,15.9-61.32,22.56-10.96,6.25,55.34-17.57,64.37ZM645.05,689.68l21.7-5.9,17.24-63.21-6.12-54.35-22.15,10.73-15.63,60.27,4.97,52.46Z"/>
      <path class="cls-4" d="M697.49,738.34l-24.91,3.96-5.98-57.97,17.55-64.34,25.45-9.67,7.44,60.36-19.55,67.66ZM672.89,741.2l24.48-3.94,19.19-66.44-7.3-59.27-25,9.45-17.26,63.24,5.89,56.97Z"/>
      <path class="cls-4" d="M709.49,611.45l-25.45,9.62-6.23-55.33,17.8-66.99,25.99-15.33,7.73,57.32-19.84,70.7ZM684.36,619.91l25.01-9.5,19.47-69.42-7.58-56.3-25.53,15.01-17.5,65.84,6.14,54.37Z"/>
      <path class="cls-4" d="M732.7,799.89l-28.36,1.31-7.14-63.36,19.53-67.63,28.99-7.88,8.94,66.31-21.95,71.26ZM704.69,800.03l27.87-1.34,21.54-69.97-8.76-65.12-28.47,7.68-19.2,66.47,7.03,62.27Z"/>
      <path class="cls-4" d="M787.53,724.02l-33.35,5.31-8.92-66.28,22.26-74.73,34.07-12.95,11.24,69.38-25.3,79.27ZM754.57,728.04l32.77-5.28,24.82-77.83-11.01-68.13-33.47,12.65-21.89,73.45,8.78,65.14Z"/>
      <path class="cls-4" d="M836.81,795.1l-38.86,1.79-10.82-73.45,25.27-79.23,39.71-10.79,13.78,77.41-29.08,84.27ZM798.4,795.53l38.18-1.83,28.53-82.74-13.51-76.01-39,10.52-24.85,77.88,10.66,72.19Z"/>
      <path class="cls-4" d="M759.66,1018.71l-31.92-9.85-8.26-73.29,21.59-67.72,32.64,2.2,10.46,77.59-24.52,71.06ZM728.12,1007.71l31.36,9.61,24.06-69.78-10.25-76.19-32.06-2.23-21.24,66.56,8.13,72.04Z"/>
      <path class="cls-4" d="M806.49,1115.62l-37.17-16.06-10.05-81.65,24.49-71.03,38.02,7.05,12.86,87.15-28.16,74.54ZM769.76,1098.36l36.52,15.69,27.62-73.19-12.61-85.56-37.34-7.01-24.09,69.81,9.89,80.26Z"/>
      <path class="cls-4" d="M791.33,1275.88l-36.32-24.98-9.66-85.75,24.1-66.93,37.18,15.98,12.4,92.01-27.7,69.67ZM755.44,1249.77l35.69,24.46,27.17-68.42-12.16-90.33-36.51-15.77-23.71,65.78,9.51,84.29Z"/>
      <path class="cls-4" d="M845.71,1406.81l-42.9-35.18-11.92-96.81,27.66-69.65,43.92,24.42,15.5,105-32.26,72.22ZM803.3,1370.46l42.15,34.46,31.65-70.92-15.19-103.07-43.14-24.08-27.21,68.44,11.73,95.17Z"/>
      <path class="cls-4" d="M862.32,1231.16l-43.91-24.52-12.38-91.95,28.12-74.51,44.93,13.76,16.05,99.14-32.81,78.08ZM818.91,1205.38l43.14,23.99,32.19-76.67-15.73-97.32-44.13-13.61-27.66,73.23,12.18,90.39Z"/>
      <path class="cls-4" d="M930.02,1371.25l-52.78-36.29-15.46-104.92,32.77-78.05,54.02,23.21,20.4,114.56-38.94,81.49ZM877.83,1333.64l51.86,35.54,38.19-80.03-19.99-112.45-53.06-22.92-32.24,76.7,15.23,103.15Z"/>
      <path class="cls-4" d="M821.65,955.36l-38.01-7.13-10.44-77.55,24.88-75.13,38.86-1.87,13.32,82.28-28.62,79.41ZM784.08,946.94l37.35,6.93,28.08-77.97-13.06-80.79-38.17,1.76-24.47,73.84,10.27,76.22Z"/>
      <path class="cls-4" d="M895.55,879.84l-45.93-3.19-13.29-82.23,29.04-84.23,46.94-7.56,17.16,87.41-33.92,89.81ZM850.14,875.21l45.13,3.04,33.28-88.18-16.82-85.82-46.11,7.34-28.56,82.79,13.09,80.83Z"/>
      <path class="cls-4" d="M966.78,982.6l-55.23-10.37-16.57-93.21,33.87-89.76,56.47-2.71,21.76,100.15-40.3,95.9ZM912.16,970.71l54.27,10.07,39.53-94.15-21.32-98.32-55.46,2.55-33.33,88.23,16.32,91.63Z"/>
      <path class="cls-4" d="M948.41,1176.92l-54.01-23.33-16.02-99.07,33.32-83.9,55.25,10.25,21.08,107.35-39.62,88.7ZM894.99,1152.18l53.07,22.81,38.86-87.09-20.66-105.39-54.26-10.18-32.78,82.47,15.77,97.39Z"/>
      <path class="cls-4" d="M1034.39,1327.23l-66.32-37.03-20.35-114.46,39.56-88.65,67.86,20.78,27.36,125.94-48.11,93.42ZM968.78,1288.71l65.17,36.24,47.18-91.74-26.81-123.61-66.65-20.56-38.92,87.13,20.04,112.54Z"/>
      <path class="cls-4" d="M911.64,1565.58l-51.56-49.26-14.91-110.78,32.21-72.19,52.79,36.18,19.72,121.76-38.26,74.29ZM860.66,1515.11l50.66,48.28,37.53-72.97-19.32-119.51-51.85-35.65-31.69,70.94,14.68,108.91Z"/>
      <path class="cls-4" d="M993.26,1762.09l-63.28-69.23-18.99-128.84,38.2-74.28,64.81,52.99,25.65,144.06-46.4,75.31ZM930.67,1691.64l62.17,67.87,45.5-73.98-25.13-141.37-63.66-52.19-37.59,72.98,18.7,126.69Z"/>
      <path class="cls-4" d="M1013.83,1544.66l-64.8-53.13-19.67-121.65,38.88-81.46,66.34,36.89,26.51,135-47.25,84.36ZM949.72,1490.17l63.67,52.05,46.34-82.86-25.97-132.49-65.15-36.38-38.25,80.06,19.37,119.61Z"/>
      <path class="cls-4" d="M1120.25,1764.88l-81.67-78.03-25.58-143.91,47.17-84.34,83.63,57.31,35.45,163.15-59,85.82ZM1039.42,1685.47l80.25,76.48,57.83-84.31-34.72-160.09-82.14-56.48-46.42,82.88,25.2,141.52Z"/>
      <path class="cls-4" d="M717.85,1460.75l-29.77-32.57-7.26-83.8,20.6-57.21,30.49,24.93,9.29,89.9-23.35,58.75ZM688.44,1427.2l29.25,31.93,22.92-57.7-9.11-88.26-29.95-24.56-20.26,56.22,7.15,82.37Z"/>
      <path class="cls-4" d="M776.17,1436.14l-35.48-33.9-9.27-89.85,23.71-62.84,36.33,24.9,11.94,96.88-27.23,64.8ZM741.12,1401.18l34.86,33.22,26.72-63.65-11.71-95.11-35.68-24.54-23.32,61.75,9.13,88.32Z"/>
      <path class="cls-4" d="M761.02,1596.4l-34.64-42.82-8.89-93.94,23.33-58.74,35.49,33.82,11.48,101.75-26.77,59.94ZM726.79,1552.6l34.03,41.99,26.27-58.87-11.25-99.88-34.85-33.3-22.94,57.72,8.75,92.35Z"/>
      <path class="cls-4" d="M812.48,1758.13l-40.88-56.5-11-106.53,26.74-59.93,41.9,45.74,14.39,116.73-31.15,60.49ZM772.07,1700.63l40.17,55.41,30.56-59.42-14.1-114.58-41.15-45.03-26.3,58.88,10.83,104.74Z"/>
      <path class="cls-4" d="M893.26,1759.9l-50.33-62.22-14.35-116.63,31.66-66.34,51.57,49.14,19.04,128.96-37.58,67.09ZM843.5,1696.58l49.45,61.01,36.86-65.91-18.65-126.57-50.65-48.39-31.15,65.18,14.14,114.67Z"/>
      <path class="cls-4" d="M625.48,1499.71l-21.7-29.99-4.48-73.84,16.05-48.48,22.24,24.28,5.72,78.55-17.83,49.47ZM604.06,1468.89l21.32,29.41,17.5-48.59-5.61-77.12-21.85-23.9-15.78,47.63,4.41,72.57Z"/>
      <path class="cls-4" d="M655.32,1618.04l-24.67-37.77-5.42-81.54,17.81-49.46,25.29,31.2,6.95,87.36-19.96,50.21ZM630.97,1579.43l24.24,37.05,19.59-49.32-6.81-85.77-24.84-30.71-17.51,48.6,5.34,80.15Z"/>
      <path class="cls-4" d="M668.22,1481.68l-25.28-31.26-5.71-78.51,18.1-52.49,25.91,24.69,7.28,83.85-20.29,53.72ZM643.26,1449.53l24.84,30.65,19.91-52.76-7.14-82.32-25.44-24.31-17.8,51.58,5.62,77.17Z"/>
      <path class="cls-4" d="M703.91,1608.09l-29.05-40.15-6.93-87.3,20.27-53.71,29.78,32.5,8.91,94.01-22.97,54.65ZM675.22,1567.04l28.55,39.37,22.54-53.68-8.73-92.29-29.24-32-19.93,52.77,6.83,85.82Z"/>
      <path class="cls-4" d="M576.71,1306.32l-17.24-18.86-3.11-61.84,13.33-46.15,17.66,14.44,3.96,65.06-14.59,47.36ZM559.7,1286.66l16.94,18.49,14.32-46.52-3.88-63.88-17.34-14.22-13.1,45.35,3.06,60.78Z"/>
      <path class="cls-4" d="M610.73,1278.08l-19.74-18.86-3.95-65.03,14.8-49.68,20.21,13.85,4.99,68.58-16.32,51.13ZM591.26,1258.37l19.39,18.48,16.01-50.22-4.9-67.34-19.85-13.65-14.55,48.82,3.89,63.91Z"/>
      <path class="cls-4" d="M637.48,1372.81l-22.24-24.33-4.73-71.19,16.3-51.12,22.78,18.62,6.01,75.52-18.11,52.5ZM615.53,1347.61l21.85,23.85,17.78-51.57-5.89-74.15-22.37-18.34-16.03,50.23,4.66,69.97Z"/>
      <path class="cls-4" d="M556.52,1226.28l-15.54-14.84-2.61-57.09,12.26-44.93,15.91,10.9,3.32,59.8-13.34,46.16ZM541.2,1210.67l15.27,14.55,13.09-45.34-3.25-58.72-15.63-10.74-12.05,44.15,2.57,56.11Z"/>
      <path class="cls-4" d="M507.83,1033.24l-11.77-6.57-1.54-46.2,9.81-41.31,12.05,3.69,1.98,47.89-10.53,42.5ZM496.24,1025.96l11.57,6.43,10.34-41.74-1.94-47.03-11.83-3.65-9.65,40.59,1.51,45.4Z"/>
      <path class="cls-4" d="M522.39,1090.96l-12.85-8.83-1.83-49.37,10.52-42.49,13.15,5.65,2.35,51.33-11.34,43.71ZM509.73,1081.39l12.62,8.65,11.13-42.93-2.3-50.41-12.91-5.58-10.34,41.75,1.8,48.52Z"/>
      <path class="cls-4" d="M531.3,996.75l-13.14-5.68-1.97-47.87,10.66-43.99,13.45,2.49,2.5,49.67-11.49,45.37ZM518.35,990.32l12.92,5.55,11.28-44.56-2.46-48.78-13.21-2.48-10.48,43.22,1.94,47.04Z"/>
      <path class="cls-4" d="M547.92,1055.63l-14.42-8.05-2.34-51.32,11.49-45.36,14.75,4.52,2.96,53.42-12.44,46.78ZM533.71,1046.79l14.17,7.88,12.21-45.95-2.9-52.46-14.49-4.47-11.29,44.57,2.31,50.43Z"/>
      <path class="cls-4" d="M597.78,1083.46l-18.07-10.09-3.5-57.71,13.72-50.29,18.49,5.66,4.4,60.39-15.03,52.02ZM579.96,1072.51l17.76,9.87,14.75-51.09-4.31-59.31-18.16-5.6-13.49,49.42,3.45,56.71Z"/>
      <path class="cls-4" d="M633.18,1040.76l-20.67-8.93-4.39-60.37,15.24-54.34,21.15,3.92,5.49,63.29-16.82,56.43ZM612.77,1030.9l20.31,8.73,16.51-55.42-5.39-62.15-20.77-3.9-14.98,53.4,4.32,59.33Z"/>
      <path class="cls-4" d="M586.32,911.2l-16.64-3.12-3.13-51.55,12.78-50.46,17.02-.82,3.9,53.59-13.92,52.37ZM569.9,907.21l16.36,3.03,13.67-51.43-3.83-52.63-16.71.77-12.56,49.59,3.08,50.66Z"/>
      <path class="cls-4" d="M649.48,1245.92l-22.77-18.67-4.98-68.55,16.55-53.76,23.31,12.96,6.29,72.49-18.4,55.53ZM627,1226.33l22.38,18.29,18.06-54.54-6.17-71.17-22.9-12.78-16.27,52.83,4.91,67.37Z"/>
      <path class="cls-4" d="M681.12,1345.32l-25.9-24.75-5.99-75.48,18.38-55.52,26.52,18.18,7.61,80.34-20.62,57.23ZM655.54,1319.63l25.45,24.25,20.24-56.2-7.46-78.88-26.05-17.91-18.08,54.56,5.9,74.19Z"/>
      <path class="cls-4" d="M731.78,1313.4l-30.49-25-7.6-80.3,20.93-60.71,31.21,17.35,9.68,85.8-23.74,62.85ZM701.67,1287.37l29.95,24.49,23.3-61.73-9.49-84.24-30.65-17.11-20.59,59.66,7.48,78.93Z"/>
      <path class="cls-4" d="M1143.59,1518.1l-83.62-57.5-26.44-134.87,48.02-93.38,85.58,36.78,36.56,151.42-60.11,97.55ZM1060.84,1459.06l82.16,56.3,58.92-95.81-35.81-148.59-84.05-36.31-47.26,91.78,26.04,132.62Z"/>
      <path class="cls-4" d="M1515.08,1773.54l-152.2-104.65-50.54-187.81,79.23-115.5,155.76,66.94,76.17,221.94-108.43,119.08ZM1364.33,1667.04l149.53,102.47,106.19-116.98-74.54-217.68-152.97-66.08-78.03,113.51,49.82,184.75Z"/>
      <path class="cls-4" d="M1547.05,1435.52l-155.73-67.27-52.03-172.06,80.72-131.25,159.3,29.56,78.29,199.53-110.55,141.49ZM1392.79,1366.1l153,65.75,108.27-138.91-76.62-195.74-156.45-29.36-79.5,129.03,51.29,169.23Z"/>
      <path class="cls-4" d="M1846.82,1780.82l-226.05-126.21-75.88-221.59,110.21-141.41,231.29,70.84,122.87,270.65-162.44,147.72ZM1622.8,1652.38l222.08,123.49,158.96-145.1-120.14-265.35-227.13-70.06-108.6,138.99,74.83,218.03Z"/>
      <path class="cls-4" d="M1886.05,1366.13l-231.24-71.33-77.99-199.25,112.32-163.74,236.48,15.95,126.11,236.41-165.68,181.96ZM1656.87,1292.16l227.18,69.58,162.13-178.59-123.31-231.86-232.23-16.15-110.68,161.01,76.91,196.01Z"/>
      <path class="cls-4" d="M2373.17,1792.37l-368.16-159.03-122.3-270.12,165.04-181.8,376.59,69.88,221.73,346.55-272.9,194.52ZM2008.1,1630.52l361.65,155.42,266.7-191.06-216.52-339.58-369.79-69.4-162.75,178.75,120.7,265.87Z"/>
      <path class="cls-4" d="M1054.96,1109.79l-67.85-20.93-21.03-107.28,40.24-95.84,69.38,4.68,28.22,116.88-48.97,102.48ZM987.83,1087.25l66.66,20.42,48.02-100.62-27.65-114.74-68.14-4.74-39.59,94.21,20.71,105.46Z"/>
      <path class="cls-4" d="M1166.93,1271.32l-85.56-36.96-27.29-125.83,48.88-102.42,87.52,16.24,37.67,139.68-61.22,109.29ZM1082.25,1232.65l84.07,36.13,60.01-107.3-36.89-137.09-85.96-16.13-48.11,100.67,26.88,123.72Z"/>
      <path class="cls-4" d="M758.5,527.18l-29.6,14.33-7.71-57.31,20.1-73.69,30.22-20.9,9.6,59.3-22.61,78.27ZM729.26,540.24l29.08-14.14,22.19-76.85-9.41-58.24-29.68,20.48-19.77,72.43,7.59,56.32Z"/>
      <path class="cls-4" d="M801.47,576.67l-34.07,12.88-9.25-62.78,22.59-78.23,34.79-20.52,11.62,65.28-25.68,83.38ZM767.8,588.2l33.47-12.72,25.2-81.86-11.4-64.11-34.17,20.1-22.22,76.89,9.11,61.7Z"/>
      <path class="cls-4" d="M815.4,429.33l-34.78,20.46-9.58-59.28,22.92-81.73,35.51-28.1,12.01,61.17-26.07,87.48ZM781.03,448.37l34.18-20.16,25.58-85.89-11.78-60.08-34.88,27.54-22.54,80.34,9.43,58.25Z"/>
      <path class="cls-4" d="M867.12,474.58l-40.54,19.63-11.6-65.26,26.04-87.43,41.39-28.63,14.7,67.68-30,94.01ZM827.04,492.71l39.84-19.36,29.43-92.29-14.41-66.46-40.66,28.05-25.61,85.94,11.42,64.13Z"/>
      <path class="cls-4" d="M851.97,634.84l-39.7,10.71-11.21-69.35,25.65-83.33,40.55-19.71,14.24,72.54-29.54,89.14ZM812.72,644.12l39.01-10.6,28.98-87.52-13.96-71.24-39.83,19.28-25.23,81.91,11.04,68.16Z"/>
      <path class="cls-4" d="M928.78,528.53l-47.94,18.13-14.21-72.52,29.96-93.94,48.96-28.88,18.27,75.68-35.03,101.54ZM881.37,545.04l47.11-17.9,34.37-99.68-17.91-74.32-48.09,28.28-29.47,92.35,13.99,71.27Z"/>
      <path class="cls-4" d="M882.28,314.32l-41.39,28.55-11.99-61.16,26.43-91.53,42.24-37.55,15.16,62.81-30.46,98.87ZM841.37,341.29l40.66-28.13,29.88-97.06-14.87-61.69-41.49,36.81-25.99,89.97,11.8,60.1Z"/>
      <path class="cls-4" d="M945.4,352.87l-48.95,28.79-14.67-67.66,30.42-98.8,49.97-39.55,18.83,69.81-35.59,107.4ZM896.99,379.96l48.1-28.37,34.91-105.43-18.45-68.57-49.08,38.75-29.92,97.13,14.45,66.49Z"/>
      <path class="cls-4" d="M962.01,177.22l-49.96,39.45-15.13-62.8,30.88-103.66L978.77,0l19.38,63.95-36.14,113.27ZM912.6,214.87l49.09-38.85,35.45-111.18-19-62.82-50.07,49.23-30.37,101.91,14.9,61.7Z"/>
      <path class="cls-4" d="M1116.66,457.49l-72.42,27.38-23.07-85.71,42.28-117.41,73.95-43.63,30.79,89.71-51.54,129.65ZM1045,482.86l71.15-27.04,50.54-127.25-30.17-88.1-72.63,42.72-41.6,115.44,22.72,84.24Z"/>
      <path class="cls-4" d="M1075.52,892.36l-69.37-4.82-21.71-100.09,40.92-103.03,70.91-11.42,29.08,107.83-49.83,111.54ZM1006.89,885.79l68.16,4.6,48.86-109.49-28.49-105.86-69.64,11.08-40.26,101.29,21.38,98.39Z"/>
      <path class="cls-4" d="M1096.09,674.93l-70.89,11.28-22.39-92.9,41.6-110.22,72.43-27.52,29.93,98.77-50.68,120.59ZM1025.94,684.33l69.65-11.22,49.7-118.37-29.33-96.98-71.14,26.9-40.93,108.36,22.05,91.31Z"/>
      <path class="cls-4" d="M1190.27,1024.54l-87.5-16.42-28.14-116.79,49.73-111.46,89.46-4.3,38.78,127.95-62.33,121.02ZM1103.67,1006.24l85.97,15.95,61.1-118.8-37.98-125.59-87.86,4.04-48.95,109.57,27.72,114.82Z"/>
      <path class="cls-4" d="M1340.83,1197.97l-114.16-35.21-37.56-139.55,62.19-120.93,116.74,7.88,53.7,156.47-80.93,131.35ZM1227.8,1160.74l112.16,34.35,79.3-128.94-52.58-153.55-114.66-7.97-61.23,118.89,37,137.22Z"/>
      <path class="cls-4" d="M1367.81,912.69l-116.72-8.12-38.66-127.84,63.3-132.64,119.31-19.22,55.2,140.67-82.42,147.14ZM1252.24,902.34l114.68,7.74,80.76-144.41-54.04-138.07-117.17,18.64-62.32,130.42,38.09,125.69Z"/>
      <path class="cls-4" d="M1394.8,627.4l-119.28,18.98-39.77-116.14,64.41-144.34,121.87-46.31,56.69,124.87-83.91,162.94ZM1276.69,643.93l117.2-18.88,82.23-159.89-55.51-122.6-119.69,45.26-63.41,141.94,39.18,114.17Z"/>
      <path class="cls-4" d="M1421.78,342.12l-121.85,46.07-40.88-104.43,65.51-156.05,124.43-73.41,58.19,109.08-85.41,178.74ZM1301.13,385.53l119.71-45.49,83.69-175.37-56.97-107.12-122.21,71.87-64.5,153.47,40.27,102.64Z"/>
      <path class="cls-4" d="M1642.97,421.45l-166.34,44.87-56.5-124.8,85.19-178.51,169.91-82.59,84.65,132.31-116.91,208.71ZM1478.19,463.3l163.42-44.4,114.49-204.73-82.84-129.93-166.87,80.8-83.9,175.59,55.69,122.67Z"/>
      <path class="cls-4" d="M1611,759.47l-162.81,7.49-55.01-140.55,83.7-162.76,166.37-45.21,82.53,154.72-114.79,186.31ZM1449.73,764.23l159.95-7.69,112.42-182.79-80.77-151.86-163.39,44.08-82.44,160.07,54.23,138.19Z"/>
      <path class="cls-4" d="M1925.27,951.45l-236.44-16.44-80.1-176.92,114.44-186.07,241.67-38.93,129.35,202.17-168.92,216.2ZM1690.95,931.93l232.28,15.67,165.3-212.09-126.48-198.36-237.33,37.76-112.76,183.02,79,174Z"/>
      <path class="cls-4" d="M1964.5,536.76l-241.63,38.44-82.22-154.59,116.55-208.4,246.86-93.81,132.59,167.93-172.16,250.44ZM1725.02,571.71l237.38-38.24,168.47-245.58-129.65-164.87-242.43,91.67-114.85,205.03,81.08,151.99Z"/>
      <path class="cls-4" d="M2474.63,719.73l-384.88,17.71-128.75-201.93,171.5-250,393.31-106.87,232.83,229.17-284.01,311.91ZM2092.96,733.33l378.07-18.17,277.55-305.73-227.36-224.9-386.21,104.19-169.12,246.02,127.07,198.6Z"/>
    </g>
  </g>
</svg>
